NotoSerifTamil-SemiCondensedBold.ufo
<glyph name="exclam" format="2">
  <advance width="357.8"/>
  <unicode hex="0021"/>
  <outline>
    <contour>
      <point x="152.73333333333335" y="224.70000000000002" type="line"/>
      <point x="205.06666666666666" y="224.70000000000002" type="line"/>
      <point x="261.1333333333333" y="714.0" type="line"/>
      <point x="96.66666666666666" y="714.0" type="line"/>
    </contour>
    <contour>
      <point x="179.9" y="-7.633333333333334" type="curve" smooth="yes"/>
      <point x="220.96666666666667" y="-7.633333333333334"/>
      <point x="256.40000000000003" y="11.266666666666667"/>
      <point x="256.40000000000003" y="69.8" type="curve" smooth="yes"/>
      <point x="256.40000000000003" y="128.6"/>
      <point x="220.96666666666667" y="147.23333333333332"/>
      <point x="179.9" y="147.23333333333332" type="curve" smooth="yes"/>
      <point x="136.83333333333334" y="147.23333333333332"/>
      <point x="103.4" y="128.6"/>
      <point x="103.4" y="69.8" type="curve" smooth="yes"/>
      <point x="103.4" y="11.266666666666667"/>
      <point x="136.83333333333334" y="-7.633333333333334"/>
    </contour>
  </outline>
</glyph>
<glyph name="quotedbl" format="2">
  <advance width="477.20000000000005"/>
  <unicode hex="0022"/>
  <outline>
    <contour>
      <point x="319.4666666666667" y="443.76666666666665" type="line"/>
      <point x="381.43333333333334" y="443.76666666666665" type="line"/>
      <point x="414.2333333333333" y="714.0" type="line"/>
      <point x="267.03333333333336" y="714.0" type="line"/>
    </contour>
    <contour>
      <point x="105.39999999999999" y="443.76666666666665" type="line"/>
      <point x="167.36666666666667" y="443.76666666666665" type="line"/>
      <point x="210.16666666666669" y="714.0" type="line"/>
      <point x="62.96666666666667" y="714.0" type="line"/>
    </contour>
  </outline>
</glyph>
<glyph name="numbersign" format="2">
  <advance width="521.2333333333333"/>
  <unicode hex="0023"/>
  <outline>
    <contour>
      <point x="74.96666666666667" y="0.0" type="line"/>
      <point x="144.86666666666667" y="0.0" type="line"/>
      <point x="183.23333333333332" y="200.73333333333335" type="line"/>
      <point x="279.53333333333336" y="200.73333333333335" type="line"/>
      <point x="242.53333333333333" y="0.0" type="line"/>
      <point x="312.43333333333334" y="0.0" type="line"/>
      <point x="349.8" y="200.73333333333335" type="line"/>
      <point x="467.46666666666664" y="200.73333333333335" type="line"/>
      <point x="467.46666666666664" y="268.6333333333333" type="line"/>
      <point x="363.43333333333334" y="268.6333333333333" type="line"/>
      <point x="397.8" y="450.3666666666667" type="line"/>
      <point x="499.46666666666664" y="450.3666666666667" type="line"/>
      <point x="499.46666666666664" y="519.2666666666667" type="line"/>
      <point x="410.43333333333334" y="519.2666666666667" type="line"/>
      <point x="447.43333333333334" y="714.0" type="line"/>
      <point x="377.5333333333333" y="714.0" type="line"/>
      <point x="340.1666666666667" y="519.2666666666667" type="line"/>
      <point x="243.86666666666667" y="519.2666666666667" type="line"/>
      <point x="279.8666666666667" y="714.0" type="line"/>
      <point x="208.96666666666667" y="714.0" type="line"/>
      <point x="173.60000000000002" y="519.2666666666667" type="line"/>
      <point x="53.766666666666666" y="519.2666666666667" type="line"/>
      <point x="53.766666666666666" y="450.3666666666667" type="line"/>
      <point x="160.60000000000002" y="450.3666666666667" type="line"/>
      <point x="125.6" y="268.6333333333333" type="line"/>
      <point x="21.766666666666666" y="268.6333333333333" type="line"/>
      <point x="21.766666666666666" y="200.73333333333335" type="line"/>
      <point x="112.96666666666667" y="200.73333333333335" type="line"/>
    </contour>
    <contour>
      <point x="195.86666666666667" y="268.6333333333333" type="line"/>
      <point x="231.23333333333335" y="450.3666666666667" type="line"/>
      <point x="328.53333333333336" y="450.3666666666667" type="line"/>
      <point x="293.5333333333333" y="268.6333333333333" type="line"/>
    </contour>
  </outline>
</glyph>
<glyph name="percent" format="2">
  <advance width="844.7666666666667"/>
  <unicode hex="0025"/>
  <outline>
    <contour>
      <point x="224.23333333333335" y="0.0" type="line"/>
      <point x="297.1" y="0.0" type="line"/>
      <point x="617.2666666666667" y="714.0" type="line"/>
      <point x="545.0333333333333" y="714.0" type="line"/>
    </contour>
    <contour>
      <point x="199.70000000000002" y="280.0" type="curve" smooth="yes"/>
      <point x="313.0" y="280.0"/>
      <point x="368.33333333333337" y="369.0"/>
      <point x="368.33333333333337" y="503.0" type="curve"/>
      <point x="368.33333333333337" y="637.0"/>
      <point x="313.0" y="724.0"/>
      <point x="200.33333333333334" y="724.0" type="curve" smooth="yes"/>
      <point x="80.76666666666667" y="724.0"/>
      <point x="31.066666666666666" y="637.0"/>
      <point x="31.066666666666666" y="503.0" type="curve" smooth="yes"/>
      <point x="31.066666666666666" y="369.0"/>
      <point x="80.76666666666667" y="280.0"/>
    </contour>
    <contour>
      <point x="199.70000000000002" y="328.1666666666667" type="curve" smooth="yes"/>
      <point x="153.26666666666668" y="328.1666666666667"/>
      <point x="136.36666666666667" y="392.1666666666667"/>
      <point x="136.36666666666667" y="503.0" type="curve"/>
      <point x="136.36666666666667" y="611.8333333333334"/>
      <point x="153.26666666666668" y="674.8333333333334"/>
      <point x="200.33333333333334" y="674.8333333333334" type="curve" smooth="yes"/>
      <point x="247.13333333333333" y="674.8333333333334"/>
      <point x="262.03333333333336" y="611.8333333333334"/>
      <point x="262.03333333333336" y="503.0" type="curve" smooth="yes"/>
      <point x="262.03333333333336" y="392.1666666666667"/>
      <point x="247.13333333333333" y="328.1666666666667"/>
    </contour>
    <contour>
      <point x="645.0666666666667" y="-10.0" type="curve" smooth="yes"/>
      <point x="758.7333333333333" y="-10.0"/>
      <point x="813.7" y="79.0"/>
      <point x="813.7" y="213.0" type="curve" smooth="yes"/>
      <point x="813.7" y="347.0"/>
      <point x="758.7333333333333" y="434.0"/>
      <point x="646.0666666666667" y="434.0" type="curve" smooth="yes"/>
      <point x="526.5" y="434.0"/>
      <point x="476.8" y="347.0"/>
      <point x="476.8" y="213.0" type="curve" smooth="yes"/>
      <point x="476.8" y="79.0"/>
      <point x="526.5" y="-10.0"/>
    </contour>
    <contour>
      <point x="645.0666666666667" y="38.166666666666664" type="curve" smooth="yes"/>
      <point x="599.0" y="38.166666666666664"/>
      <point x="582.1" y="102.16666666666667"/>
      <point x="582.1" y="213.0" type="curve" smooth="yes"/>
      <point x="582.1" y="321.8333333333333"/>
      <point x="599.0" y="384.8333333333333"/>
      <point x="646.0666666666667" y="384.8333333333333" type="curve" smooth="yes"/>
      <point x="692.5" y="384.8333333333333"/>
      <point x="707.7666666666667" y="321.8333333333333"/>
      <point x="707.7666666666667" y="213.0" type="curve" smooth="yes"/>
      <point x="707.7666666666667" y="102.16666666666667"/>
      <point x="692.5" y="38.166666666666664"/>
    </contour>
  </outline>
</glyph>
<glyph name="quotesingle" format="2">
  <advance width="273.1333333333333"/>
  <unicode hex="0027"/>
  <outline>
    <contour>
      <point x="105.39999999999999" y="443.76666666666665" type="line"/>
      <point x="167.36666666666667" y="443.76666666666665" type="line"/>
      <point x="210.16666666666669" y="714.0" type="line"/>
      <point x="62.96666666666667" y="714.0" type="line"/>
    </contour>
  </outline>
</glyph>
<glyph name="parenleft" format="2">
  <advance width="374.7"/>
  <unicode hex="0028"/>
  <outline>
    <contour>
      <point x="345.26666666666665" y="-137.53333333333333" type="curve"/>
      <point x="345.26666666666665" y="-75.73333333333332" type="line"/>
      <point x="230.06666666666666" y="6.2666666666666675"/>
      <point x="205.16666666666669" y="158.63333333333333"/>
      <point x="205.16666666666669" y="317.6333333333333" type="curve" smooth="yes"/>
      <point x="205.16666666666669" y="476.0"/>
      <point x="230.06666666666666" y="627.3666666666667"/>
      <point x="345.26666666666665" y="709.7333333333333" type="curve"/>
      <point x="345.26666666666665" y="770.5333333333333" type="line"/>
      <point x="135.83333333333331" y="683.7333333333333"/>
      <point x="52.96666666666667" y="535.9333333333334"/>
      <point x="52.96666666666667" y="317.6333333333333" type="curve" smooth="yes"/>
      <point x="52.96666666666667" y="98.7"/>
      <point x="135.83333333333331" y="-50.36666666666667"/>
    </contour>
  </outline>
</glyph>
<glyph name="parenright" format="2">
  <advance width="374.7"/>
  <unicode hex="0029"/>
  <outline>
    <contour>
      <point x="29.433333333333334" y="-137.53333333333333" type="line"/>
      <point x="239.23333333333335" y="-50.36666666666667"/>
      <point x="321.73333333333335" y="98.7"/>
      <point x="321.73333333333335" y="317.6333333333333" type="curve" smooth="yes"/>
      <point x="321.73333333333335" y="535.9333333333334"/>
      <point x="239.23333333333335" y="683.7333333333333"/>
      <point x="29.433333333333334" y="770.5333333333333" type="curve"/>
      <point x="29.433333333333334" y="709.7333333333333" type="line"/>
      <point x="144.63333333333333" y="627.3666666666667"/>
      <point x="169.53333333333333" y="476.0"/>
      <point x="169.53333333333333" y="317.6333333333333" type="curve" smooth="yes"/>
      <point x="169.53333333333333" y="158.63333333333333"/>
      <point x="144.63333333333333" y="6.2666666666666675"/>
      <point x="29.433333333333334" y="-75.73333333333332" type="curve"/>
    </contour>
  </outline>
</glyph>
<glyph name="asterisk" format="2">
  <advance width="464.6"/>
  <unicode hex="002A"/>
  <outline>
    <contour>
      <point x="181.33333333333334" y="367.3666666666667" type="line"/>
      <point x="285.3666666666667" y="367.3666666666667" type="line"/>
      <point x="252.5666666666667" y="530.4666666666667" type="line"/>
      <point x="390.83333333333337" y="427.56666666666666" type="line"/>
      <point x="433.26666666666665" y="522.9" type="line"/>
      <point x="289.7333333333333" y="564.0" type="line"/>
      <point x="433.26666666666665" y="604.4666666666667" type="line"/>
      <point x="390.83333333333337" y="700.8" type="line"/>
      <point x="252.5666666666667" y="597.5333333333334" type="line"/>
      <point x="286.0" y="760.0" type="line"/>
      <point x="181.33333333333334" y="760.0" type="line"/>
      <point x="212.5" y="595.9000000000001" type="line"/>
      <point x="74.5" y="702.8" type="line"/>
      <point x="32.43333333333333" y="605.4666666666667" type="line"/>
      <point x="176.33333333333334" y="564.0" type="line"/>
      <point x="32.43333333333333" y="521.9" type="line"/>
      <point x="74.5" y="426.56666666666666" type="line"/>
      <point x="211.5" y="531.8333333333334" type="line"/>
    </contour>
  </outline>
</glyph>
<glyph name="plus" format="2">
  <advance width="509.8666666666667"/>
  <unicode hex="002B"/>
  <outline>
    <contour>
      <point x="218.8" y="143.0" type="line"/>
      <point x="290.06666666666666" y="143.0" type="line"/>
      <point x="290.06666666666666" y="322.73333333333335" type="line"/>
      <point x="454.76666666666665" y="322.73333333333335" type="line"/>
      <point x="454.76666666666665" y="392.26666666666665" type="line"/>
      <point x="290.06666666666666" y="392.26666666666665" type="line"/>
      <point x="290.06666666666666" y="572.0" type="line"/>
      <point x="218.8" y="572.0" type="line"/>
      <point x="218.8" y="392.26666666666665" type="line"/>
      <point x="55.1" y="392.26666666666665" type="line"/>
      <point x="55.1" y="322.73333333333335" type="line"/>
      <point x="218.8" y="322.73333333333335" type="line"/>
    </contour>
  </outline>
</glyph>
<glyph name="comma" format="2">
  <advance width="275.6666666666667"/>
  <unicode hex="002C"/>
  <outline>
    <contour>
      <point x="43.16666666666667" y="-154.0" type="line"/>
      <point x="164.0" y="-119.73333333333333"/>
      <point x="209.33333333333334" y="-44.83333333333333"/>
      <point x="209.33333333333334" y="38.7" type="curve" smooth="yes"/>
      <point x="209.33333333333334" y="105.96666666666667"/>
      <point x="177.36666666666667" y="147.23333333333332"/>
      <point x="124.66666666666666" y="147.23333333333332" type="curve" smooth="yes"/>
      <point x="86.60000000000001" y="147.23333333333332"/>
      <point x="57.06666666666666" y="123.60000000000001"/>
      <point x="57.06666666666666" y="80.43333333333334" type="curve" smooth="yes"/>
      <point x="57.06666666666666" y="3.7333333333333334"/>
      <point x="124.2" y="12.9"/>
      <point x="124.2" y="-24.366666666666664" type="curve" smooth="yes"/>
      <point x="124.2" y="-62.266666666666666"/>
      <point x="96.4" y="-83.2"/>
      <point x="43.16666666666667" y="-103.83333333333333" type="curve"/>
    </contour>
  </outline>
</glyph>
<glyph name="hyphen" format="2">
  <advance width="289.1"/>
  <unicode hex="002D"/>
  <outline>
    <contour>
      <point x="23.533333333333335" y="221.83333333333334" type="line"/>
      <point x="265.93333333333334" y="221.83333333333334" type="line"/>
      <point x="265.93333333333334" y="323.1666666666667" type="line"/>
      <point x="23.533333333333335" y="323.1666666666667" type="line"/>
    </contour>
  </outline>
</glyph>
<glyph name="period" format="2">
  <advance width="275.6666666666667"/>
  <unicode hex="002E"/>
  <outline>
    <contour>
      <point x="137.83333333333334" y="-7.633333333333334" type="curve" smooth="yes"/>
      <point x="178.9" y="-7.633333333333334"/>
      <point x="214.70000000000002" y="11.266666666666667"/>
      <point x="214.70000000000002" y="69.8" type="curve" smooth="yes"/>
      <point x="214.70000000000002" y="128.6"/>
      <point x="178.9" y="147.23333333333332"/>
      <point x="137.83333333333334" y="147.23333333333332" type="curve" smooth="yes"/>
      <point x="94.76666666666667" y="147.23333333333332"/>
      <point x="60.96666666666667" y="128.6"/>
      <point x="60.96666666666667" y="69.8" type="curve" smooth="yes"/>
      <point x="60.96666666666667" y="11.266666666666667"/>
      <point x="94.76666666666667" y="-7.633333333333334"/>
    </contour>
  </outline>
</glyph>
<glyph name="slash" format="2">
  <advance width="268.56666666666666"/>
  <unicode hex="002F"/>
  <outline>
    <contour>
      <point x="0.0" y="-121.0" type="line"/>
      <point x="67.96666666666667" y="-121.0" type="line"/>
      <point x="268.56666666666666" y="760.0" type="line"/>
      <point x="202.96666666666667" y="760.0" type="line"/>
    </contour>
  </outline>
</glyph>
<glyph name="zero" format="2">
  <advance width="521.2333333333333"/>
  <unicode hex="0030"/>
  <outline>
    <contour>
      <point x="260.93333333333334" y="-10.0" type="curve" smooth="yes"/>
      <point x="424.29999999999995" y="-10.0"/>
      <point x="489.43333333333334" y="134.43333333333334"/>
      <point x="489.43333333333334" y="358.0" type="curve" smooth="yes"/>
      <point x="489.43333333333334" y="582.9333333333333"/>
      <point x="424.6666666666667" y="724.0"/>
      <point x="261.93333333333334" y="724.0" type="curve" smooth="yes"/>
      <point x="88.93333333333334" y="724.0"/>
      <point x="31.066666666666666" y="581.8333333333333"/>
      <point x="31.066666666666666" y="359.0" type="curve" smooth="yes"/>
      <point x="31.066666666666666" y="133.7"/>
      <point x="89.30000000000001" y="-10.0"/>
    </contour>
    <contour>
      <point x="260.93333333333334" y="53.166666666666664" type="curve" smooth="yes"/>
      <point x="192.0666666666667" y="53.166666666666664"/>
      <point x="177.26666666666668" y="165.53333333333333"/>
      <point x="177.26666666666668" y="358.0" type="curve" smooth="yes"/>
      <point x="177.26666666666668" y="550.4666666666667"/>
      <point x="192.0666666666667" y="660.8333333333334"/>
      <point x="261.93333333333334" y="660.8333333333334" type="curve" smooth="yes"/>
      <point x="329.43333333333334" y="660.8333333333334"/>
      <point x="343.96666666666664" y="550.4666666666667"/>
      <point x="343.96666666666664" y="358.0" type="curve" smooth="yes"/>
      <point x="343.96666666666664" y="165.53333333333333"/>
      <point x="329.43333333333334" y="53.166666666666664"/>
    </contour>
  </outline>
</glyph>
<glyph name="one" format="2">
  <advance width="521.2333333333333"/>
  <unicode hex="0031"/>
  <outline>
    <contour>
      <point x="87.46666666666667" y="0.0" type="line"/>
      <point x="473.33333333333337" y="0.0" type="line"/>
      <point x="473.33333333333337" y="51.53333333333333" type="line"/>
      <point x="405.90000000000003" y="51.53333333333333" type="line" smooth="yes"/>
      <point x="366.1" y="51.53333333333333"/>
      <point x="352.70000000000005" y="72.7"/>
      <point x="352.70000000000005" y="117.26666666666668" type="curve" smooth="yes"/>
      <point x="352.70000000000005" y="718.0" type="line"/>
      <point x="247.3" y="718.0" type="line"/>
      <point x="182.0666666666667" y="667.1" type="line" smooth="yes"/>
      <point x="120.10000000000001" y="618.4666666666667"/>
      <point x="75.39999999999999" y="600.8333333333334"/>
      <point x="38.33333333333333" y="590.8333333333334" type="curve"/>
      <point x="38.33333333333333" y="547.3000000000001"/>
      <point x="62.49999999999999" y="519.4000000000001"/>
      <point x="92.3" y="519.4000000000001" type="curve" smooth="yes"/>
      <point x="129.73333333333335" y="519.4000000000001"/>
      <point x="165.9" y="559.2"/>
      <point x="212.86666666666667" y="619.7333333333333" type="curve"/>
      <point x="212.86666666666667" y="117.26666666666668" type="line" smooth="yes"/>
      <point x="212.86666666666667" y="65.06666666666668"/>
      <point x="193.56666666666666" y="51.53333333333333"/>
      <point x="160.3" y="51.53333333333333" type="curve" smooth="yes"/>
      <point x="87.46666666666667" y="51.53333333333333" type="line"/>
    </contour>
  </outline>
</glyph>
<glyph name="two" format="2">
  <advance width="521.2333333333333"/>
  <unicode hex="0032"/>
  <outline>
    <contour>
      <point x="32.8" y="0.0" type="line"/>
      <point x="475.73333333333335" y="0.0" type="line"/>
      <point x="480.3666666666667" y="205.6" type="line"/>
      <point x="424.29999999999995" y="205.6" type="line"/>
      <point x="416.66666666666663" y="175.7" type="line" smooth="yes"/>
      <point x="404.6666666666667" y="130.6"/>
      <point x="376.8666666666667" y="106.33333333333334"/>
      <point x="339.5333333333333" y="106.33333333333334" type="curve" smooth="yes"/>
      <point x="125.60000000000001" y="106.33333333333334" type="line"/>
      <point x="234.03333333333333" y="218.56666666666666" type="line" smooth="yes"/>
      <point x="395.5333333333333" y="378.8666666666667"/>
      <point x="457.56666666666666" y="453.6333333333333"/>
      <point x="457.56666666666666" y="555.8" type="curve" smooth="yes"/>
      <point x="457.56666666666666" y="658.8"/>
      <point x="382.3333333333333" y="724.0"/>
      <point x="242.13333333333333" y="724.0" type="curve" smooth="yes"/>
      <point x="104.93333333333334" y="724.0"/>
      <point x="36.43333333333333" y="659.5333333333333"/>
      <point x="36.43333333333333" y="588.6333333333333" type="curve" smooth="yes"/>
      <point x="36.43333333333333" y="519.5666666666667"/>
      <point x="87.7" y="495.8666666666667"/>
      <point x="155.63333333333335" y="495.8666666666667" type="curve"/>
      <point x="155.63333333333335" y="605.8333333333334"/>
      <point x="178.9" y="664.4666666666667"/>
      <point x="242.13333333333333" y="664.4666666666667" type="curve" smooth="yes"/>
      <point x="286.83333333333337" y="664.4666666666667"/>
      <point x="315.00000000000006" y="628.6333333333333"/>
      <point x="315.00000000000006" y="550.8" type="curve" smooth="yes"/>
      <point x="315.00000000000006" y="448.53333333333336"/>
      <point x="283.6333333333333" y="378.1666666666667"/>
      <point x="170.53333333333336" y="251.43333333333334" type="curve" smooth="yes"/>
      <point x="32.8" y="97.13333333333333" type="line"/>
    </contour>
  </outline>
</glyph>
<glyph name="three" format="2">
  <advance width="521.2333333333333"/>
  <unicode hex="0033"/>
  <outline>
    <contour>
      <point x="227.23333333333332" y="-10.0" type="curve" smooth="yes"/>
      <point x="357.9" y="-10.0"/>
      <point x="480.7333333333333" y="43.0"/>
      <point x="480.7333333333333" y="204.16666666666666" type="curve" smooth="yes"/>
      <point x="480.7333333333333" y="319.53333333333336"/>
      <point x="391.9" y="365.6333333333333"/>
      <point x="315.93333333333334" y="380.26666666666665" type="curve"/>
      <point x="395.96666666666664" y="408.53333333333336"/>
      <point x="457.20000000000005" y="470.26666666666665"/>
      <point x="457.20000000000005" y="560.2666666666667" type="curve" smooth="yes"/>
      <point x="457.20000000000005" y="665.0"/>
      <point x="374.43333333333334" y="724.0"/>
      <point x="242.33333333333334" y="724.0" type="curve" smooth="yes"/>
      <point x="105.13333333333334" y="724.0"/>
      <point x="36.0" y="665.0666666666666"/>
      <point x="36.0" y="594.4333333333334" type="curve" smooth="yes"/>
      <point x="36.0" y="536.0"/>
      <point x="80.8" y="510.93333333333334"/>
      <point x="154.26666666666668" y="510.93333333333334" type="curve"/>
      <point x="154.26666666666668" y="589.3000000000001"/>
      <point x="170.83333333333334" y="664.4666666666667"/>
      <point x="236.23333333333335" y="664.4666666666667" type="curve" smooth="yes"/>
      <point x="285.83333333333337" y="664.4666666666667"/>
      <point x="313.3666666666667" y="620.1"/>
      <point x="313.3666666666667" y="547.3666666666667" type="curve" smooth="yes"/>
      <point x="313.3666666666667" y="458.26666666666665"/>
      <point x="277.5" y="399.6333333333333"/>
      <point x="197.36666666666667" y="399.6333333333333" type="curve"/>
      <point x="135.4" y="399.6333333333333" type="line"/>
      <point x="135.4" y="339.46666666666664" type="line"/>
      <point x="193.36666666666665" y="339.46666666666664" type="line" smooth="yes"/>
      <point x="286.40000000000003" y="339.46666666666664"/>
      <point x="335.90000000000003" y="284.1"/>
      <point x="335.90000000000003" y="205.16666666666666" type="curve" smooth="yes"/>
      <point x="335.90000000000003" y="91.26666666666667"/>
      <point x="281.93333333333334" y="57.8"/>
      <point x="221.70000000000002" y="57.8" type="curve" smooth="yes"/>
      <point x="154.20000000000002" y="57.8"/>
      <point x="107.5" y="104.1"/>
      <point x="107.5" y="187.26666666666668" type="curve"/>
      <point x="64.06666666666666" y="187.26666666666668"/>
      <point x="27.266666666666666" y="160.63333333333333"/>
      <point x="27.266666666666666" y="111.1" type="curve" smooth="yes"/>
      <point x="27.266666666666666" y="45.9"/>
      <point x="85.76666666666667" y="-10.0"/>
    </contour>
  </outline>
</glyph>
<glyph name="four" format="2">
  <advance width="521.2333333333333"/>
  <unicode hex="0034"/>
  <outline>
    <contour>
      <point x="166.79999999999998" y="0.0" type="line"/>
      <point x="495.8" y="0.0" type="line"/>
      <point x="495.8" y="51.53333333333333" type="line"/>
      <point x="483.53333333333336" y="51.53333333333333" type="line" smooth="yes"/>
      <point x="441.46666666666664" y="51.53333333333333"/>
      <point x="407.0333333333333" y="60.53333333333333"/>
      <point x="407.0333333333333" y="123.53333333333335" type="curve" smooth="yes"/>
      <point x="407.0333333333333" y="187.46666666666667" type="line"/>
      <point x="502.9666666666667" y="187.46666666666667" type="line"/>
      <point x="502.9666666666667" y="252.0" type="line"/>
      <point x="407.0333333333333" y="252.0" type="line"/>
      <point x="407.0333333333333" y="714.0" type="line"/>
      <point x="274.26666666666665" y="714.0" type="line"/>
      <point x="12.266666666666666" y="245.53333333333333" type="line"/>
      <point x="12.266666666666666" y="187.46666666666667" type="line"/>
      <point x="269.4666666666667" y="187.46666666666667" type="line"/>
      <point x="269.4666666666667" y="123.53333333333335" type="line" smooth="yes"/>
      <point x="269.4666666666667" y="60.53333333333333"/>
      <point x="235.03333333333333" y="51.53333333333333"/>
      <point x="192.96666666666667" y="51.53333333333333" type="curve" smooth="yes"/>
      <point x="166.79999999999998" y="51.53333333333333" type="line"/>
    </contour>
    <contour>
      <point x="80.06666666666668" y="252.0" type="line"/>
      <point x="202.23333333333332" y="471.70000000000005" type="line" smooth="yes"/>
      <point x="219.43333333333334" y="504.40000000000003"/>
      <point x="262.3666666666667" y="584.6999999999999"/>
      <point x="275.73333333333335" y="620.1" type="curve"/>
      <point x="271.1" y="558.1"/>
      <point x="269.4666666666667" y="489.0333333333333"/>
      <point x="269.4666666666667" y="431.0333333333333" type="curve" smooth="yes"/>
      <point x="269.4666666666667" y="252.0" type="line"/>
    </contour>
  </outline>
</glyph>
<glyph name="five" format="2">
  <advance width="521.2333333333333"/>
  <unicode hex="0035"/>
  <outline>
    <contour>
      <point x="228.5" y="-10.0" type="curve" smooth="yes"/>
      <point x="339.96666666666664" y="-10.0"/>
      <point x="472.26666666666665" y="51.03333333333333"/>
      <point x="472.26666666666665" y="219.63333333333333" type="curve" smooth="yes"/>
      <point x="472.26666666666665" y="362.26666666666665"/>
      <point x="377.8666666666667" y="433.6333333333333"/>
      <point x="232.03333333333333" y="433.6333333333333" type="curve" smooth="yes"/>
      <point x="196.16666666666666" y="433.6333333333333"/>
      <point x="150.36666666666665" y="426.26666666666665"/>
      <point x="130.1" y="417.9" type="curve"/>
      <point x="146.1" y="607.6666666666667" type="line"/>
      <point x="339.43333333333334" y="607.6666666666667" type="line" smooth="yes"/>
      <point x="369.23333333333335" y="607.6666666666667"/>
      <point x="375.4" y="594.0333333333334"/>
      <point x="382.1333333333334" y="567.4666666666666" type="curve" smooth="yes"/>
      <point x="389.76666666666665" y="535.6666666666667" type="line"/>
      <point x="443.83333333333337" y="535.6666666666667" type="line"/>
      <point x="439.5666666666667" y="713.6333333333333" type="line"/>
      <point x="89.06666666666666" y="713.6333333333333" type="line"/>
      <point x="58.166666666666664" y="367.6333333333333" type="line"/>
      <point x="98.3" y="350.3666666666667" type="line"/>
      <point x="126.83333333333333" y="359.3666666666667"/>
      <point x="156.46666666666667" y="369.46666666666664"/>
      <point x="202.33333333333334" y="369.46666666666664" type="curve" smooth="yes"/>
      <point x="281.7333333333333" y="369.46666666666664"/>
      <point x="328.06666666666666" y="320.3666666666667"/>
      <point x="328.06666666666666" y="219.63333333333333" type="curve" smooth="yes"/>
      <point x="328.06666666666666" y="95.16666666666666"/>
      <point x="275.1" y="57.06666666666667"/>
      <point x="213.86666666666667" y="57.06666666666667" type="curve" smooth="yes"/>
      <point x="137.73333333333332" y="57.06666666666667"/>
      <point x="111.93333333333332" y="120.43333333333334"/>
      <point x="111.93333333333332" y="178.16666666666669" type="curve"/>
      <point x="67.23333333333333" y="178.16666666666669"/>
      <point x="36.7" y="154.4333333333333"/>
      <point x="36.7" y="109.89999999999999" type="curve" smooth="yes"/>
      <point x="36.7" y="49.733333333333334"/>
      <point x="88.39999999999999" y="-10.0"/>
    </contour>
  </outline>
</glyph>
<glyph name="six" format="2">
  <advance width="521.2333333333333"/>
  <unicode hex="0036"/>
  <outline>
    <contour>
      <point x="273.2" y="-10.0" type="curve" smooth="yes"/>
      <point x="415.3" y="-10.0"/>
      <point x="489.1666666666667" y="88.0"/>
      <point x="489.1666666666667" y="230.63333333333333" type="curve" smooth="yes"/>
      <point x="489.1666666666667" y="360.26666666666665"/>
      <point x="415.3" y="437.26666666666665"/>
      <point x="303.1" y="437.26666666666665" type="curve" smooth="yes"/>
      <point x="239.13333333333333" y="437.26666666666665"/>
      <point x="200.53333333333333" y="417.1666666666667"/>
      <point x="175.36666666666667" y="398.06666666666666" type="curve"/>
      <point x="182.26666666666665" y="570.0"/>
      <point x="224.4" y="666.4666666666667"/>
      <point x="296.8" y="666.4666666666667" type="curve" smooth="yes"/>
      <point x="346.1333333333334" y="666.4666666666667"/>
      <point x="362.06666666666666" y="602.9666666666667"/>
      <point x="362.06666666666666" y="538.9333333333334" type="curve"/>
      <point x="442.0" y="538.9333333333334"/>
      <point x="472.16666666666663" y="572.6333333333333"/>
      <point x="472.16666666666663" y="614.3666666666667" type="curve" smooth="yes"/>
      <point x="472.16666666666663" y="671.3666666666667"/>
      <point x="424.9" y="724.0"/>
      <point x="303.9666666666667" y="724.0" type="curve" smooth="yes"/>
      <point x="126.36666666666666" y="724.0"/>
      <point x="41.333333333333336" y="562.1"/>
      <point x="41.333333333333336" y="331.83333333333337" type="curve" smooth="yes"/>
      <point x="41.333333333333336" y="97.0"/>
      <point x="134.73333333333335" y="-10.0"/>
    </contour>
    <contour>
      <point x="275.8333333333333" y="53.8" type="curve" smooth="yes"/>
      <point x="219.60000000000002" y="53.8"/>
      <point x="176.36666666666667" y="139.56666666666666"/>
      <point x="175.36666666666667" y="330.83333333333337" type="curve"/>
      <point x="192.0" y="352.0"/>
      <point x="231.56666666666666" y="377.3666666666667"/>
      <point x="268.3" y="377.3666666666667" type="curve" smooth="yes"/>
      <point x="320.5333333333333" y="377.3666666666667"/>
      <point x="352.6" y="329.73333333333335"/>
      <point x="352.6" y="220.63333333333333" type="curve" smooth="yes"/>
      <point x="352.6" y="104.53333333333335"/>
      <point x="323.1666666666667" y="53.8"/>
    </contour>
  </outline>
</glyph>
<glyph name="seven" format="2">
  <advance width="521.2333333333333"/>
  <unicode hex="0037"/>
  <outline>
    <contour>
      <point x="150.33333333333334" y="0.0" type="line"/>
      <point x="233.5" y="0.0" type="line"/>
      <point x="487.5" y="667.2" type="line"/>
      <point x="487.5" y="713.6333333333333" type="line"/>
      <point x="46.43333333333333" y="713.6333333333333" type="line"/>
      <point x="41.43333333333333" y="507.3" type="line"/>
      <point x="98.86666666666667" y="507.3" type="line"/>
      <point x="104.5" y="556.5666666666667" type="line" smooth="yes"/>
      <point x="108.5" y="590.6666666666667"/>
      <point x="124.66666666666666" y="608.3000000000001"/>
      <point x="158.46666666666667" y="608.3000000000001" type="curve" smooth="yes"/>
      <point x="399.4666666666667" y="608.3000000000001" type="line"/>
    </contour>
  </outline>
</glyph>
<glyph name="eight" format="2">
  <advance width="521.2333333333333"/>
  <unicode hex="0038"/>
  <outline>
    <contour>
      <point x="255.03333333333333" y="-10.0" type="curve" smooth="yes"/>
      <point x="405.4" y="-10.0"/>
      <point x="493.8" y="63.733333333333334"/>
      <point x="493.8" y="186.4333333333333" type="curve" smooth="yes"/>
      <point x="493.8" y="275.1333333333333"/>
      <point x="449.2666666666667" y="331.2"/>
      <point x="341.0" y="386.2666666666667" type="curve"/>
      <point x="418.1333333333333" y="426.7"/>
      <point x="466.1" y="469.0"/>
      <point x="466.1" y="552.6666666666667" type="curve" smooth="yes"/>
      <point x="466.1" y="651.1"/>
      <point x="398.1333333333333" y="724.0"/>
      <point x="265.56666666666666" y="724.0" type="curve" smooth="yes"/>
      <point x="107.5" y="724.0"/>
      <point x="48.96666666666667" y="638.3"/>
      <point x="48.96666666666667" y="543.1" type="curve" smooth="yes"/>
      <point x="48.96666666666667" y="460.7"/>
      <point x="92.23333333333332" y="406.2666666666667"/>
      <point x="166.36666666666667" y="362.09999999999997" type="curve"/>
      <point x="84.96666666666667" y="322.1333333333334"/>
      <point x="27.8" y="271.3"/>
      <point x="27.8" y="178.70000000000002" type="curve" smooth="yes"/>
      <point x="27.8" y="74.89999999999999"/>
      <point x="98.3" y="-10.0"/>
    </contour>
    <contour>
      <point x="259.3" y="46.63333333333333" type="curve" smooth="yes"/>
      <point x="196.43333333333334" y="46.63333333333333"/>
      <point x="154.36666666666667" y="97.06666666666668"/>
      <point x="154.36666666666667" y="178.73333333333335" type="curve" smooth="yes"/>
      <point x="154.36666666666667" y="248.36666666666667"/>
      <point x="183.96666666666667" y="294.56666666666666"/>
      <point x="225.66666666666666" y="325.0333333333333" type="curve"/>
      <point x="319.1333333333333" y="276.93333333333334"/>
      <point x="360.6666666666667" y="235.9"/>
      <point x="360.6666666666667" y="169.8" type="curve" smooth="yes"/>
      <point x="360.6666666666667" y="95.7"/>
      <point x="320.3333333333333" y="46.63333333333333"/>
    </contour>
    <contour>
      <point x="283.3" y="418.06666666666666" type="curve"/>
      <point x="218.8" y="451.1666666666667"/>
      <point x="181.9" y="485.73333333333335"/>
      <point x="181.9" y="556.2" type="curve" smooth="yes"/>
      <point x="181.9" y="620.9333333333334"/>
      <point x="209.7" y="666.7333333333333"/>
      <point x="261.03333333333336" y="666.7333333333333" type="curve" smooth="yes"/>
      <point x="317.2666666666667" y="666.7333333333333"/>
      <point x="346.3333333333333" y="611.3000000000001"/>
      <point x="346.3333333333333" y="552.8333333333334" type="curve" smooth="yes"/>
      <point x="346.3333333333333" y="485.0"/>
      <point x="326.43333333333334" y="446.8"/>
    </contour>
  </outline>
</glyph>
<glyph name="nine" format="2">
  <advance width="521.2333333333333"/>
  <unicode hex="0039"/>
  <outline>
    <contour>
      <point x="211.60000000000002" y="-10.366666666666667" type="curve"/>
      <point x="403.03333333333336" y="-10.366666666666667"/>
      <point x="479.9" y="163.60000000000002"/>
      <point x="479.9" y="388.0" type="curve"/>
      <point x="479.9" y="625.5666666666667"/>
      <point x="381.1333333333333" y="724.0"/>
      <point x="245.66666666666669" y="724.0" type="curve" smooth="yes"/>
      <point x="111.83333333333334" y="724.0"/>
      <point x="32.06666666666667" y="626.0"/>
      <point x="32.06666666666667" y="483.09999999999997" type="curve" smooth="yes"/>
      <point x="32.06666666666667" y="348.83333333333337"/>
      <point x="107.56666666666666" y="276.46666666666664"/>
      <point x="214.5" y="276.46666666666664" type="curve" smooth="yes"/>
      <point x="279.09999999999997" y="276.46666666666664"/>
      <point x="321.43333333333334" y="305.1"/>
      <point x="349.8666666666667" y="341.9" type="curve"/>
      <point x="343.23333333333335" y="149.9"/>
      <point x="300.00000000000006" y="51.9"/>
      <point x="217.33333333333334" y="51.9" type="curve" smooth="yes"/>
      <point x="153.63333333333333" y="51.9"/>
      <point x="124.03333333333333" y="98.9"/>
      <point x="106.13333333333333" y="157.0666666666667" type="curve"/>
      <point x="72.5" y="149.7"/>
      <point x="58.23333333333333" y="126.49999999999999"/>
      <point x="58.23333333333333" y="97.86666666666667" type="curve" smooth="yes"/>
      <point x="58.23333333333333" y="42.699999999999996"/>
      <point x="99.03333333333333" y="-10.366666666666667"/>
    </contour>
    <contour>
      <point x="256.03333333333336" y="344.8" type="curve" smooth="yes"/>
      <point x="198.06666666666666" y="344.8"/>
      <point x="168.26666666666668" y="395.6333333333333"/>
      <point x="168.26666666666668" y="488.0" type="curve" smooth="yes"/>
      <point x="168.26666666666668" y="600.7333333333333"/>
      <point x="198.7" y="659.2"/>
      <point x="252.03333333333333" y="659.2" type="curve" smooth="yes"/>
      <point x="310.6333333333333" y="659.2"/>
      <point x="348.23333333333335" y="586.5666666666667"/>
      <point x="349.8666666666667" y="408.5" type="curve"/>
      <point x="332.06666666666666" y="372.53333333333336"/>
      <point x="297.8" y="344.8"/>
    </contour>
  </outline>
</glyph>
<glyph name="colon" format="2">
  <advance width="282.73333333333335"/>
  <unicode hex="003A"/>
  <outline>
    <contour>
      <point x="141.0" y="387.56666666666666" type="curve" smooth="yes"/>
      <point x="182.06666666666666" y="387.56666666666666"/>
      <point x="217.86666666666665" y="406.8333333333333"/>
      <point x="217.86666666666665" y="465.0" type="curve" smooth="yes"/>
      <point x="217.86666666666665" y="524.1666666666667"/>
      <point x="182.06666666666666" y="542.4333333333334"/>
      <point x="141.0" y="542.4333333333334" type="curve" smooth="yes"/>
      <point x="97.93333333333334" y="542.4333333333334"/>
      <point x="64.5" y="524.1666666666667"/>
      <point x="64.5" y="465.0" type="curve" smooth="yes"/>
      <point x="64.5" y="406.8333333333333"/>
      <point x="97.93333333333334" y="387.56666666666666"/>
    </contour>
    <contour>
      <point x="141.0" y="-7.633333333333334" type="curve" smooth="yes"/>
      <point x="182.06666666666666" y="-7.633333333333334"/>
      <point x="217.86666666666665" y="11.266666666666667"/>
      <point x="217.86666666666665" y="69.8" type="curve" smooth="yes"/>
      <point x="217.86666666666665" y="128.6"/>
      <point x="182.06666666666666" y="147.23333333333332"/>
      <point x="141.0" y="147.23333333333332" type="curve" smooth="yes"/>
      <point x="97.93333333333334" y="147.23333333333332"/>
      <point x="64.5" y="128.6"/>
      <point x="64.5" y="69.8" type="curve" smooth="yes"/>
      <point x="64.5" y="11.266666666666667"/>
      <point x="97.93333333333334" y="-7.633333333333334"/>
    </contour>
  </outline>
</glyph>
<glyph name="semicolon" format="2">
  <advance width="282.73333333333335"/>
  <unicode hex="003B"/>
  <outline>
    <contour>
      <point x="50.96666666666667" y="-154.0" type="line"/>
      <point x="171.8" y="-119.73333333333333"/>
      <point x="217.13333333333333" y="-44.83333333333333"/>
      <point x="217.13333333333333" y="38.7" type="curve" smooth="yes"/>
      <point x="217.13333333333333" y="105.96666666666667"/>
      <point x="185.53333333333333" y="147.23333333333332"/>
      <point x="132.46666666666667" y="147.23333333333332" type="curve" smooth="yes"/>
      <point x="94.76666666666667" y="147.23333333333332"/>
      <point x="65.23333333333333" y="123.60000000000001"/>
      <point x="65.23333333333333" y="80.43333333333334" type="curve" smooth="yes"/>
      <point x="65.23333333333333" y="3.7333333333333334"/>
      <point x="132.36666666666665" y="12.9"/>
      <point x="132.36666666666665" y="-24.366666666666664" type="curve" smooth="yes"/>
      <point x="132.36666666666665" y="-62.63333333333333"/>
      <point x="104.56666666666666" y="-83.2"/>
      <point x="50.96666666666667" y="-103.83333333333333" type="curve"/>
    </contour>
    <contour>
      <point x="141.0" y="387.56666666666666" type="curve" smooth="yes"/>
      <point x="182.43333333333334" y="387.56666666666666"/>
      <point x="217.86666666666665" y="406.8333333333333"/>
      <point x="217.86666666666665" y="465.0" type="curve" smooth="yes"/>
      <point x="217.86666666666665" y="524.1666666666667"/>
      <point x="182.43333333333334" y="542.4333333333334"/>
      <point x="141.0" y="542.4333333333334" type="curve" smooth="yes"/>
      <point x="97.93333333333334" y="542.4333333333334"/>
      <point x="64.5" y="524.1666666666667"/>
      <point x="64.5" y="465.0" type="curve" smooth="yes"/>
      <point x="64.5" y="406.8333333333333"/>
      <point x="97.93333333333334" y="387.56666666666666"/>
    </contour>
  </outline>
</glyph>
<glyph name="less" format="2">
  <advance width="509.8666666666667"/>
  <unicode hex="003C"/>
  <outline>
    <contour>
      <point x="454.76666666666665" y="104.73333333333332" type="line"/>
      <point x="454.76666666666665" y="182.63333333333333" type="line"/>
      <point x="155.13333333333333" y="357.0" type="line"/>
      <point x="454.76666666666665" y="533.3666666666667" type="line"/>
      <point x="454.76666666666665" y="611.2666666666667" type="line"/>
      <point x="55.1" y="377.6333333333333" type="line"/>
      <point x="55.1" y="337.3666666666667" type="line"/>
    </contour>
  </outline>
</glyph>
<glyph name="equal" format="2">
  <advance width="509.8666666666667"/>
  <unicode hex="003D"/>
  <outline>
    <contour>
      <point x="53.1" y="417.16666666666663" type="line"/>
      <point x="456.76666666666665" y="417.16666666666663" type="line"/>
      <point x="456.76666666666665" y="486.0666666666667" type="line"/>
      <point x="53.1" y="486.0666666666667" type="line"/>
    </contour>
    <contour>
      <point x="53.1" y="227.93333333333334" type="line"/>
      <point x="456.76666666666665" y="227.93333333333334" type="line"/>
      <point x="456.76666666666665" y="296.83333333333337" type="line"/>
      <point x="53.1" y="296.83333333333337" type="line"/>
    </contour>
  </outline>
</glyph>
<glyph name="greater" format="2">
  <advance width="509.8666666666667"/>
  <unicode hex="003E"/>
  <outline>
    <contour>
      <point x="55.1" y="104.73333333333332" type="line"/>
      <point x="454.76666666666665" y="337.3666666666667" type="line"/>
      <point x="454.76666666666665" y="377.6333333333333" type="line"/>
      <point x="55.1" y="611.2666666666667" type="line"/>
      <point x="55.1" y="533.3666666666667" type="line"/>
      <point x="354.3666666666667" y="357.0" type="line"/>
      <point x="55.1" y="182.63333333333333" type="line"/>
    </contour>
  </outline>
</glyph>
<glyph name="question" format="2">
  <advance width="515.5333333333333"/>
  <unicode hex="003F"/>
  <outline>
    <contour>
      <point x="202.9" y="225.43333333333334" type="line"/>
      <point x="257.6666666666667" y="225.43333333333334" type="line"/>
      <point x="278.76666666666665" y="320.4666666666667" type="line"/>
      <point x="402.96666666666664" y="374.73333333333335"/>
      <point x="463.46666666666664" y="433.73333333333335"/>
      <point x="463.46666666666664" y="541.1" type="curve" smooth="yes"/>
      <point x="463.46666666666664" y="656.7333333333333"/>
      <point x="369.0" y="724.0"/>
      <point x="234.6" y="724.0" type="curve" smooth="yes"/>
      <point x="97.5" y="724.0"/>
      <point x="34.800000000000004" y="671.1666666666666"/>
      <point x="34.800000000000004" y="607.6333333333333" type="curve" smooth="yes"/>
      <point x="34.800000000000004" y="558.4333333333333"/>
      <point x="87.2" y="537.6333333333333"/>
      <point x="164.8" y="537.6333333333333" type="curve"/>
      <point x="164.8" y="610.4"/>
      <point x="184.8" y="665.4666666666667"/>
      <point x="240.03333333333336" y="665.4666666666667" type="curve" smooth="yes"/>
      <point x="290.26666666666665" y="665.4666666666667"/>
      <point x="313.2666666666667" y="618.9000000000001"/>
      <point x="313.2666666666667" y="553.8000000000001" type="curve" smooth="yes"/>
      <point x="313.2666666666667" y="473.33333333333337"/>
      <point x="288.4666666666667" y="395.90000000000003"/>
      <point x="182.16666666666666" y="349.9" type="curve"/>
    </contour>
    <contour>
      <point x="228.96666666666667" y="-7.633333333333334" type="curve" smooth="yes"/>
      <point x="270.03333333333336" y="-7.633333333333334"/>
      <point x="305.8333333333333" y="11.266666666666667"/>
      <point x="305.8333333333333" y="69.8" type="curve" smooth="yes"/>
      <point x="305.8333333333333" y="128.6"/>
      <point x="270.03333333333336" y="147.23333333333332"/>
      <point x="228.96666666666667" y="147.23333333333332" type="curve" smooth="yes"/>
      <point x="185.9" y="147.23333333333332"/>
      <point x="152.10000000000002" y="128.6"/>
      <point x="152.10000000000002" y="69.8" type="curve" smooth="yes"/>
      <point x="152.10000000000002" y="11.266666666666667"/>
      <point x="185.9" y="-7.633333333333334"/>
    </contour>
  </outline>
</glyph>
<glyph name="bracketleft" format="2">
  <advance width="387.9666666666667"/>
  <unicode hex="005B"/>
  <outline>
    <contour>
      <point x="93.03333333333333" y="-128.0" type="line"/>
      <point x="353.53333333333336" y="-128.0" type="line"/>
      <point x="353.53333333333336" y="-76.46666666666665" type="line"/>
      <point x="313.46666666666664" y="-76.46666666666665" type="line" smooth="yes"/>
      <point x="271.4" y="-76.46666666666665"/>
      <point x="236.96666666666667" y="-67.46666666666665"/>
      <point x="236.96666666666667" y="-4.466666666666667" type="curve" smooth="yes"/>
      <point x="236.96666666666667" y="636.4666666666667" type="line" smooth="yes"/>
      <point x="236.96666666666667" y="699.4666666666667"/>
      <point x="271.4" y="708.4666666666667"/>
      <point x="313.46666666666664" y="708.4666666666667" type="curve" smooth="yes"/>
      <point x="353.53333333333336" y="708.4666666666667" type="line"/>
      <point x="353.53333333333336" y="760.0" type="line"/>
      <point x="93.03333333333333" y="760.0" type="line"/>
    </contour>
  </outline>
</glyph>
<glyph name="backslash" format="2">
  <advance width="268.56666666666666"/>
  <unicode hex="005C"/>
  <outline>
    <contour>
      <point x="200.96666666666667" y="-121.0" type="line"/>
      <point x="268.56666666666666" y="-121.0" type="line"/>
      <point x="66.96666666666667" y="760.0" type="line"/>
      <point x="0.0" y="760.0" type="line"/>
    </contour>
  </outline>
</glyph>
<glyph name="bracketright" format="2">
  <advance width="387.9666666666667"/>
  <unicode hex="005D"/>
  <outline>
    <contour>
      <point x="34.43333333333334" y="-128.0" type="line"/>
      <point x="294.93333333333334" y="-128.0" type="line"/>
      <point x="294.93333333333334" y="760.0" type="line"/>
      <point x="34.43333333333334" y="760.0" type="line"/>
      <point x="34.43333333333334" y="708.4666666666667" type="line"/>
      <point x="74.5" y="708.4666666666667" type="line" smooth="yes"/>
      <point x="116.56666666666666" y="708.4666666666667"/>
      <point x="151.0" y="699.4666666666667"/>
      <point x="151.0" y="636.4666666666667" type="curve" smooth="yes"/>
      <point x="151.0" y="-4.466666666666667" type="line" smooth="yes"/>
      <point x="151.0" y="-67.46666666666665"/>
      <point x="116.56666666666666" y="-76.46666666666665"/>
      <point x="74.5" y="-76.46666666666665" type="curve" smooth="yes"/>
      <point x="34.43333333333334" y="-76.46666666666665" type="line"/>
    </contour>
  </outline>
</glyph>
<glyph name="asciicircum" format="2">
  <advance width="509.8666666666667"/>
  <unicode hex="005E"/>
  <outline>
    <contour>
      <point x="37.199999999999996" y="262.73333333333335" type="line"/>
      <point x="110.06666666666668" y="262.73333333333335" type="line"/>
      <point x="253.43333333333334" y="606.8333333333334" type="line"/>
      <point x="398.8" y="262.73333333333335" type="line"/>
      <point x="471.6666666666667" y="262.73333333333335" type="line"/>
      <point x="273.96666666666664" y="714.0" type="line"/>
      <point x="233.9" y="714.0" type="line"/>
    </contour>
  </outline>
</glyph>
<glyph name="underscore" format="2">
  <advance width="427.4666666666667"/>
  <unicode hex="005F"/>
  <outline>
    <contour>
      <point x="-5.0" y="-142.0" type="line"/>
      <point x="432.1" y="-142.0" type="line"/>
      <point x="432.1" y="-83.0" type="line"/>
      <point x="-5.0" y="-83.0" type="line"/>
    </contour>
  </outline>
</glyph>
<glyph name="braceleft" format="2">
  <advance width="412.3"/>
  <unicode hex="007B"/>
  <outline>
    <contour>
      <point x="295.73333333333335" y="-125.36666666666666" type="curve" smooth="yes"/>
      <point x="385.23333333333335" y="-125.36666666666666" type="line"/>
      <point x="385.23333333333335" y="-73.46666666666665" type="line"/>
      <point x="348.43333333333334" y="-73.46666666666665" type="line" smooth="yes"/>
      <point x="295.46666666666664" y="-73.46666666666665"/>
      <point x="282.56666666666666" y="-38.46666666666667"/>
      <point x="282.56666666666666" y="25.266666666666666" type="curve" smooth="yes"/>
      <point x="282.56666666666666" y="196.26666666666665" type="line" smooth="yes"/>
      <point x="282.56666666666666" y="257.3666666666667"/>
      <point x="251.13333333333333" y="297.1"/>
      <point x="180.26666666666665" y="315.3666666666667" type="curve"/>
      <point x="180.26666666666665" y="322.6333333333333" type="line"/>
      <point x="252.13333333333333" y="339.5333333333333"/>
      <point x="282.56666666666666" y="379.26666666666665"/>
      <point x="282.56666666666666" y="440.3666666666667" type="curve" smooth="yes"/>
      <point x="282.56666666666666" y="610.3666666666667" type="line" smooth="yes"/>
      <point x="282.56666666666666" y="674.1"/>
      <point x="295.46666666666664" y="708.4666666666667"/>
      <point x="348.43333333333334" y="708.4666666666667" type="curve" smooth="yes"/>
      <point x="385.23333333333335" y="708.4666666666667" type="line"/>
      <point x="385.23333333333335" y="760.0" type="line"/>
      <point x="295.73333333333335" y="760.0" type="line" smooth="yes"/>
      <point x="190.33333333333334" y="760.0"/>
      <point x="135.36666666666667" y="707.3666666666667"/>
      <point x="135.36666666666667" y="614.3666666666667" type="curve" smooth="yes"/>
      <point x="135.36666666666667" y="442.3666666666667" type="line" smooth="yes"/>
      <point x="135.36666666666667" y="366.6333333333333"/>
      <point x="88.03333333333333" y="349.5333333333333"/>
      <point x="27.066666666666666" y="347.5333333333333" type="curve"/>
      <point x="27.066666666666666" y="289.1" type="line"/>
      <point x="88.03333333333333" y="286.1"/>
      <point x="135.36666666666667" y="270.3666666666667"/>
      <point x="135.36666666666667" y="193.26666666666665" type="curve" smooth="yes"/>
      <point x="135.36666666666667" y="22.266666666666666" type="line" smooth="yes"/>
      <point x="135.36666666666667" y="-68.73333333333332"/>
      <point x="190.33333333333334" y="-125.36666666666666"/>
    </contour>
  </outline>
</glyph>
<glyph name="bar" format="2">
  <advance width="521.2333333333333"/>
  <unicode hex="007C"/>
  <outline>
    <contour>
      <point x="226.13333333333333" y="-240.0" type="line"/>
      <point x="294.09999999999997" y="-240.0" type="line"/>
      <point x="294.09999999999997" y="760.0" type="line"/>
      <point x="226.13333333333333" y="760.0" type="line"/>
    </contour>
  </outline>
</glyph>
<glyph name="braceright" format="2">
  <advance width="412.3"/>
  <unicode hex="007D"/>
  <outline>
    <contour>
      <point x="27.066666666666666" y="-125.36666666666666" type="line"/>
      <point x="116.56666666666668" y="-125.36666666666666" type="line" smooth="yes"/>
      <point x="221.96666666666667" y="-125.36666666666666"/>
      <point x="276.93333333333334" y="-68.73333333333332"/>
      <point x="276.93333333333334" y="22.266666666666666" type="curve" smooth="yes"/>
      <point x="276.93333333333334" y="193.26666666666665" type="line" smooth="yes"/>
      <point x="276.93333333333334" y="270.3666666666667"/>
      <point x="325.0" y="286.1"/>
      <point x="385.23333333333335" y="289.1" type="curve"/>
      <point x="385.23333333333335" y="347.5333333333333" type="line"/>
      <point x="325.0" y="349.5333333333333"/>
      <point x="276.93333333333334" y="366.6333333333333"/>
      <point x="276.93333333333334" y="442.3666666666667" type="curve" smooth="yes"/>
      <point x="276.93333333333334" y="614.3666666666667" type="line" smooth="yes"/>
      <point x="276.93333333333334" y="707.3666666666667"/>
      <point x="221.96666666666667" y="760.0"/>
      <point x="116.56666666666668" y="760.0" type="curve" smooth="yes"/>
      <point x="27.066666666666666" y="760.0" type="line"/>
      <point x="27.066666666666666" y="708.4666666666667" type="line"/>
      <point x="63.86666666666667" y="708.4666666666667" type="line" smooth="yes"/>
      <point x="116.83333333333334" y="708.4666666666667"/>
      <point x="129.73333333333335" y="674.1"/>
      <point x="129.73333333333335" y="610.3666666666667" type="curve" smooth="yes"/>
      <point x="129.73333333333335" y="440.3666666666667" type="line" smooth="yes"/>
      <point x="129.73333333333335" y="379.26666666666665"/>
      <point x="160.16666666666669" y="339.5333333333333"/>
      <point x="232.4" y="322.6333333333333" type="curve"/>
      <point x="232.4" y="315.3666666666667" type="line"/>
      <point x="161.16666666666669" y="297.1"/>
      <point x="129.73333333333335" y="257.3666666666667"/>
      <point x="129.73333333333335" y="196.26666666666665" type="curve" smooth="yes"/>
      <point x="129.73333333333335" y="25.266666666666666" type="line" smooth="yes"/>
      <point x="129.73333333333335" y="-38.46666666666667"/>
      <point x="116.83333333333334" y="-73.46666666666665"/>
      <point x="63.86666666666667" y="-73.46666666666665" type="curve" smooth="yes"/>
      <point x="27.066666666666666" y="-73.46666666666665" type="line"/>
    </contour>
  </outline>
</glyph>
<glyph name="asciitilde" format="2">
  <advance width="509.8666666666667"/>
  <unicode hex="007E"/>
  <outline>
    <contour>
      <point x="36.1" y="262.73333333333335" type="curve"/>
      <point x="105.8" y="262.73333333333335" type="line"/>
      <point x="107.53333333333333" y="344.46666666666664"/>
      <point x="125.7" y="379.46666666666664"/>
      <point x="162.03333333333333" y="379.46666666666664" type="curve" smooth="yes"/>
      <point x="181.66666666666666" y="379.46666666666664"/>
      <point x="192.76666666666665" y="368.26666666666665"/>
      <point x="234.0" y="327.73333333333335" type="curve" smooth="yes"/>
      <point x="284.5333333333333" y="276.79999999999995"/>
      <point x="313.9666666666667" y="262.73333333333335"/>
      <point x="352.2" y="262.73333333333335" type="curve" smooth="yes"/>
      <point x="441.8" y="262.73333333333335"/>
      <point x="470.6" y="347.93333333333334"/>
      <point x="473.8666666666667" y="450.26666666666665" type="curve"/>
      <point x="403.16666666666663" y="450.26666666666665" type="line"/>
      <point x="400.53333333333336" y="370.06666666666666"/>
      <point x="383.3666666666667" y="333.9"/>
      <point x="350.20000000000005" y="333.9" type="curve" smooth="yes"/>
      <point x="329.83333333333337" y="333.9"/>
      <point x="316.93333333333334" y="349.0"/>
      <point x="279.96666666666664" y="383.26666666666665" type="curve" smooth="yes"/>
      <point x="229.0" y="430.26666666666665"/>
      <point x="203.63333333333333" y="450.26666666666665"/>
      <point x="159.66666666666666" y="450.26666666666665" type="curve" smooth="yes"/>
      <point x="65.0" y="450.26666666666665"/>
      <point x="36.833333333333336" y="359.73333333333335"/>
    </contour>
  </outline>
</glyph>
<glyph name="twosuperior" format="2">
  <advance width="372.8666666666667"/>
  <unicode hex="00B2"/>
  <outline>
    <contour>
      <point x="31.866666666666667" y="387.0" type="line"/>
      <point x="332.6333333333334" y="387.0" type="line"/>
      <point x="336.2666666666667" y="525.0" type="line"/>
      <point x="302.93333333333334" y="525.0" type="line"/>
      <point x="297.93333333333334" y="498.0" type="line"/>
      <point x="293.93333333333334" y="478.6333333333333"/>
      <point x="284.6666666666667" y="464.6333333333333"/>
      <point x="258.8666666666667" y="464.6333333333333" type="curve"/>
      <point x="105.1" y="464.6333333333333" type="line"/>
      <point x="178.29999999999998" y="526.0666666666667" type="line"/>
      <point x="291.0" y="614.1333333333333"/>
      <point x="322.29999999999995" y="651.6666666666666"/>
      <point x="322.29999999999995" y="714.3333333333333" type="curve" smooth="yes"/>
      <point x="322.29999999999995" y="780.8"/>
      <point x="278.8666666666667" y="825.0"/>
      <point x="176.73333333333335" y="825.0" type="curve" smooth="yes"/>
      <point x="85.46666666666667" y="825.0"/>
      <point x="38.4" y="787.5333333333333"/>
      <point x="38.4" y="739.5333333333333" type="curve" smooth="yes"/>
      <point x="38.4" y="700.5666666666667"/>
      <point x="74.86666666666667" y="684.3"/>
      <point x="122.16666666666667" y="684.3" type="curve"/>
      <point x="122.16666666666667" y="733.2333333333333"/>
      <point x="129.63333333333333" y="780.0"/>
      <point x="173.0666666666667" y="780.0" type="curve" smooth="yes"/>
      <point x="205.6" y="780.0"/>
      <point x="219.33333333333334" y="754.2666666666668"/>
      <point x="219.33333333333334" y="711.2666666666667" type="curve" smooth="yes"/>
      <point x="219.33333333333334" y="654.0666666666667"/>
      <point x="197.29999999999998" y="609.7333333333333"/>
      <point x="133.8" y="551.3666666666667" type="curve" smooth="yes"/>
      <point x="31.866666666666667" y="457.1666666666667" type="line"/>
    </contour>
  </outline>
</glyph>
<glyph name="threesuperior" format="2">
  <advance width="372.8666666666667"/>
  <unicode hex="00B3"/>
  <outline>
    <contour>
      <point x="157.66666666666669" y="380.0" type="curve" smooth="yes"/>
      <point x="246.63333333333335" y="380.0"/>
      <point x="337.09999999999997" y="418.5"/>
      <point x="337.09999999999997" y="510.26666666666665" type="curve" smooth="yes"/>
      <point x="337.09999999999997" y="572.0333333333333"/>
      <point x="293.8" y="602.3666666666667"/>
      <point x="232.86666666666667" y="612.0" type="curve"/>
      <point x="232.86666666666667" y="616.2666666666667" type="line"/>
      <point x="288.53333333333336" y="631.9"/>
      <point x="321.2" y="665.9"/>
      <point x="321.2" y="724.2666666666667" type="curve" smooth="yes"/>
      <point x="321.2" y="786.2666666666667"/>
      <point x="268.9" y="824.0"/>
      <point x="177.26666666666668" y="824.0" type="curve" smooth="yes"/>
      <point x="85.73333333333333" y="824.0"/>
      <point x="39.766666666666666" y="783.6333333333333"/>
      <point x="39.766666666666666" y="736.1" type="curve" smooth="yes"/>
      <point x="39.766666666666666" y="701.8333333333334"/>
      <point x="69.46666666666667" y="692.3666666666667"/>
      <point x="119.8" y="692.3666666666667" type="curve"/>
      <point x="119.8" y="739.8333333333334"/>
      <point x="129.96666666666667" y="779.7333333333333"/>
      <point x="171.60000000000002" y="779.7333333333333" type="curve" smooth="yes"/>
      <point x="203.76666666666668" y="779.7333333333333"/>
      <point x="218.23333333333335" y="757.1"/>
      <point x="218.23333333333335" y="715.3666666666667" type="curve" smooth="yes"/>
      <point x="218.23333333333335" y="664.3666666666667"/>
      <point x="191.8" y="632.6333333333333"/>
      <point x="143.63333333333335" y="632.6333333333333" type="curve" smooth="yes"/>
      <point x="111.73333333333333" y="632.6333333333333" type="line"/>
      <point x="111.73333333333333" y="586.0" type="line"/>
      <point x="143.26666666666665" y="586.0" type="line" smooth="yes"/>
      <point x="210.4" y="586.0"/>
      <point x="234.56666666666666" y="557.6333333333333"/>
      <point x="234.56666666666666" y="512.2666666666667" type="curve" smooth="yes"/>
      <point x="234.56666666666666" y="453.1666666666667"/>
      <point x="200.86666666666667" y="429.9"/>
      <point x="155.36666666666667" y="429.9" type="curve" smooth="yes"/>
      <point x="108.2" y="429.9"/>
      <point x="82.96666666666667" y="466.0"/>
      <point x="82.96666666666667" y="512.4666666666667" type="curve"/>
      <point x="43.7" y="512.4666666666667"/>
      <point x="26.233333333333334" y="492.03333333333336"/>
      <point x="26.233333333333334" y="463.46666666666664" type="curve" smooth="yes"/>
      <point x="26.233333333333334" y="414.46666666666664"/>
      <point x="69.93333333333332" y="380.0"/>
    </contour>
  </outline>
</glyph>
<glyph name="multiply" format="2">
  <advance width="509.8666666666667"/>
  <unicode hex="00D7"/>
  <outline>
    <contour>
      <point x="116.23333333333333" y="159.26666666666668" type="line"/>
      <point x="254.8" y="308.0" type="line"/>
      <point x="393.2666666666667" y="160.0" type="line"/>
      <point x="442.90000000000003" y="206.70000000000002" type="line"/>
      <point x="301.8666666666667" y="358.3666666666667" type="line"/>
      <point x="442.90000000000003" y="509.66666666666663" type="line"/>
      <point x="392.2666666666667" y="557.0" type="line"/>
      <point x="254.8" y="409.3666666666667" type="line"/>
      <point x="116.6" y="557.1" type="line"/>
      <point x="65.96666666666667" y="510.4" type="line"/>
      <point x="207.1" y="359.0" type="line"/>
      <point x="65.96666666666667" y="206.6" type="line"/>
    </contour>
  </outline>
</glyph>
<glyph name="divide" format="2">
  <advance width="509.8666666666667"/>
  <unicode hex="00F7"/>
  <outline>
    <contour>
      <point x="55.1" y="322.73333333333335" type="line"/>
      <point x="454.76666666666665" y="322.73333333333335" type="line"/>
      <point x="454.76666666666665" y="392.26666666666665" type="line"/>
      <point x="55.1" y="392.26666666666665" type="line"/>
    </contour>
    <contour>
      <point x="255.43333333333334" y="107.73333333333332" type="curve" smooth="yes"/>
      <point x="284.6" y="107.73333333333332"/>
      <point x="308.5" y="123.73333333333332"/>
      <point x="308.5" y="168.0" type="curve" smooth="yes"/>
      <point x="308.5" y="213.26666666666665"/>
      <point x="284.6" y="228.26666666666665"/>
      <point x="255.43333333333334" y="228.26666666666665" type="curve" smooth="yes"/>
      <point x="224.9" y="228.26666666666665"/>
      <point x="202.0" y="213.26666666666665"/>
      <point x="202.0" y="168.0" type="curve" smooth="yes"/>
      <point x="202.0" y="123.73333333333332"/>
      <point x="224.9" y="107.73333333333332"/>
    </contour>
    <contour>
      <point x="255.43333333333334" y="486.73333333333335" type="curve" smooth="yes"/>
      <point x="284.6" y="486.73333333333335"/>
      <point x="308.5" y="502.73333333333335"/>
      <point x="308.5" y="547.0" type="curve" smooth="yes"/>
      <point x="308.5" y="592.2666666666667"/>
      <point x="284.6" y="607.2666666666667"/>
      <point x="255.43333333333334" y="607.2666666666667" type="curve" smooth="yes"/>
      <point x="224.9" y="607.2666666666667"/>
      <point x="202.0" y="592.2666666666667"/>
      <point x="202.0" y="547.0" type="curve" smooth="yes"/>
      <point x="202.0" y="502.73333333333335"/>
      <point x="224.9" y="486.73333333333335"/>
    </contour>
  </outline>
</glyph>
<glyph name="udatta-deva" format="2">
  <unicode hex="0951"/>
  <anchor x="0.0" y="563.7333333333333" name="_vedic"/>
  <outline>
    <contour>
      <point x="-36.333333333333336" y="932.5666666666667" type="line"/>
      <point x="36.333333333333336" y="932.5666666666667" type="line"/>
      <point x="36.333333333333336" y="1136.1" type="line"/>
      <point x="-36.333333333333336" y="1136.1" type="line"/>
    </contour>
  </outline>
</glyph>
<glyph name="anudatta-deva" format="2">
  <unicode hex="0952"/>
  <anchor x="0.0" y="0.0" name="_bottom"/>
  <outline>
    <contour>
      <point x="-193.13333333333333" y="-577.2" type="line"/>
      <point x="193.13333333333333" y="-577.2" type="line"/>
      <point x="193.13333333333333" y="-489.1333333333333" type="line"/>
      <point x="-193.13333333333333" y="-489.1333333333333" type="line"/>
    </contour>
  </outline>
</glyph>
<glyph name="danda-deva" format="2">
  <advance width="323.5"/>
  <unicode hex="0964"/>
  <outline>
    <contour>
      <point x="83.1" y="0.0" type="line"/>
      <point x="240.03333333333336" y="0.0" type="line"/>
      <point x="240.03333333333336" y="563.7333333333333" type="line"/>
      <point x="83.1" y="563.7333333333333" type="line"/>
    </contour>
  </outline>
</glyph>
<glyph name="dbldanda-deva" format="2">
  <advance width="593.1333333333333"/>
  <unicode hex="0965"/>
  <outline>
    <contour>
      <point x="353.09999999999997" y="0.0" type="line"/>
      <point x="510.03333333333336" y="0.0" type="line"/>
      <point x="510.03333333333336" y="563.7333333333333" type="line"/>
      <point x="353.09999999999997" y="563.7333333333333" type="line"/>
    </contour>
    <contour>
      <point x="83.1" y="0.0" type="line"/>
      <point x="240.03333333333336" y="0.0" type="line"/>
      <point x="240.03333333333336" y="563.7333333333333" type="line"/>
      <point x="83.1" y="563.7333333333333" type="line"/>
    </contour>
  </outline>
</glyph>
<glyph name="anusvara-tamil" format="2">
  <unicode hex="0B82"/>
  <note>
uni0B82
</note>
  <anchor x="0.0" y="563.7333333333333" name="_top"/>
  <outline>
    <contour>
      <point x="0.0" y="622.9333333333333" type="curve" smooth="yes"/>
      <point x="76.06666666666666" y="622.9333333333333"/>
      <point x="137.13333333333335" y="680.6333333333334"/>
      <point x="137.13333333333335" y="758.6" type="curve" smooth="yes"/>
      <point x="137.13333333333335" y="836.5666666666667"/>
      <point x="76.06666666666666" y="893.9"/>
      <point x="0.0" y="893.9" type="curve" smooth="yes"/>
      <point x="-76.06666666666666" y="893.9"/>
      <point x="-137.13333333333335" y="836.5666666666667"/>
      <point x="-137.13333333333335" y="758.6" type="curve" smooth="yes"/>
      <point x="-137.13333333333335" y="680.6333333333334"/>
      <point x="-76.06666666666666" y="622.9333333333333"/>
    </contour>
    <contour>
      <point x="0.0" y="697.3666666666667" type="curve" smooth="yes"/>
      <point x="-32.166666666666664" y="697.3666666666667"/>
      <point x="-59.33333333333333" y="724.1666666666666"/>
      <point x="-59.33333333333333" y="758.6" type="curve" smooth="yes"/>
      <point x="-59.33333333333333" y="792.4"/>
      <point x="-32.166666666666664" y="819.1999999999999"/>
      <point x="0.0" y="819.1999999999999" type="curve" smooth="yes"/>
      <point x="32.166666666666664" y="819.1999999999999"/>
      <point x="59.33333333333333" y="792.4"/>
      <point x="59.33333333333333" y="758.6" type="curve" smooth="yes"/>
      <point x="59.33333333333333" y="724.1666666666666"/>
      <point x="32.166666666666664" y="697.3666666666667"/>
    </contour>
  </outline>
</glyph>
<glyph name="visarga-tamil" format="2">
  <advance width="858.5"/>
  <unicode hex="0B83"/>
  <note>
uni0B83
</note>
  <outline>
    <contour>
      <point x="635.6666666666667" y="-3.9000000000000004" type="curve" smooth="yes"/>
      <point x="745.1" y="-3.9000000000000004"/>
      <point x="811.9666666666667" y="68.9"/>
      <point x="811.9666666666667" y="184.73333333333332" type="curve" smooth="yes"/>
      <point x="811.9666666666667" y="300.2"/>
      <point x="745.0999999999999" y="372.3666666666667"/>
      <point x="636.4" y="372.3666666666667" type="curve" smooth="yes"/>
      <point x="533.2" y="372.3666666666667"/>
      <point x="473.06666666666666" y="291.6666666666667"/>
      <point x="473.06666666666666" y="183.63333333333333" type="curve" smooth="yes"/>
      <point x="473.06666666666666" y="76.7"/>
      <point x="532.1" y="-3.9000000000000004"/>
    </contour>
    <contour>
      <point x="211.13333333333333" y="-3.9000000000000004" type="curve" smooth="yes"/>
      <point x="320.56666666666666" y="-3.9000000000000004"/>
      <point x="386.43333333333334" y="68.9"/>
      <point x="386.43333333333334" y="184.73333333333332" type="curve" smooth="yes"/>
      <point x="386.43333333333334" y="300.2"/>
      <point x="320.2" y="372.3666666666667"/>
      <point x="211.5" y="372.3666666666667" type="curve" smooth="yes"/>
      <point x="107.66666666666667" y="372.3666666666667"/>
      <point x="47.53333333333333" y="291.6666666666667"/>
      <point x="47.53333333333333" y="183.63333333333333" type="curve" smooth="yes"/>
      <point x="47.53333333333333" y="76.7"/>
      <point x="106.56666666666666" y="-3.9000000000000004"/>
    </contour>
    <contour>
      <point x="426.03333333333336" y="433.6" type="curve" smooth="yes"/>
      <point x="535.4666666666666" y="433.6"/>
      <point x="601.7" y="508.93333333333334"/>
      <point x="601.7" y="621.6" type="curve" smooth="yes"/>
      <point x="601.7" y="737.0666666666667"/>
      <point x="535.4666666666666" y="809.2333333333333"/>
      <point x="426.7666666666667" y="809.2333333333333" type="curve" smooth="yes"/>
      <point x="323.56666666666666" y="809.2333333333333"/>
      <point x="262.8" y="728.5333333333333"/>
      <point x="262.8" y="620.8666666666667" type="curve" smooth="yes"/>
      <point x="262.8" y="513.9333333333333"/>
      <point x="322.4666666666667" y="433.6"/>
    </contour>
    <contour>
      <point x="193.66666666666666" y="55.4" type="curve" smooth="yes"/>
      <point x="141.0" y="55.4"/>
      <point x="109.06666666666666" y="105.83333333333333"/>
      <point x="109.06666666666666" y="184.73333333333332" type="curve" smooth="yes"/>
      <point x="109.06666666666666" y="262.2666666666667"/>
      <point x="141.36666666666665" y="313.06666666666666"/>
      <point x="194.4" y="313.06666666666666" type="curve" smooth="yes"/>
      <point x="247.6" y="313.06666666666666"/>
      <point x="274.56666666666666" y="264.8333333333333"/>
      <point x="274.56666666666666" y="184.73333333333332" type="curve" smooth="yes"/>
      <point x="274.56666666666666" y="103.26666666666667"/>
      <point x="247.6" y="55.4"/>
    </contour>
    <contour>
      <point x="409.56666666666666" y="492.9" type="curve" smooth="yes"/>
      <point x="356.26666666666665" y="492.9"/>
      <point x="324.9666666666667" y="543.0666666666667"/>
      <point x="324.9666666666667" y="621.6" type="curve" smooth="yes"/>
      <point x="324.9666666666667" y="699.1333333333333"/>
      <point x="356.26666666666665" y="749.9333333333333"/>
      <point x="409.93333333333334" y="749.9333333333333" type="curve" smooth="yes"/>
      <point x="463.5" y="749.9333333333333"/>
      <point x="489.83333333333337" y="701.6999999999999"/>
      <point x="489.83333333333337" y="621.6" type="curve" smooth="yes"/>
      <point x="489.83333333333337" y="540.1333333333333"/>
      <point x="463.1333333333333" y="492.9"/>
    </contour>
    <contour>
      <point x="619.2" y="55.4" type="curve" smooth="yes"/>
      <point x="566.5333333333334" y="55.4"/>
      <point x="534.2333333333333" y="105.83333333333333"/>
      <point x="534.2333333333333" y="184.73333333333332" type="curve" smooth="yes"/>
      <point x="534.2333333333333" y="262.2666666666667"/>
      <point x="566.5333333333334" y="313.06666666666666"/>
      <point x="619.5666666666667" y="313.06666666666666" type="curve" smooth="yes"/>
      <point x="673.1333333333334" y="313.06666666666666"/>
      <point x="699.4666666666667" y="264.8333333333333"/>
      <point x="699.4666666666667" y="184.73333333333332" type="curve" smooth="yes"/>
      <point x="699.4666666666667" y="103.26666666666667"/>
      <point x="672.7666666666668" y="55.4"/>
    </contour>
  </outline>
</glyph>
<glyph name="a-tamil" format="2">
  <advance width="1271.1333333333334"/>
  <unicode hex="0B85"/>
  <note>
uni0B85
</note>
  <anchor x="608.1999999999999" y="0.0" name="bottom"/>
  <anchor x="428.6666666666667" y="-146.96666666666667" name="nukta"/>
  <anchor x="607.4000000000001" y="563.7333333333333" name="top"/>
  <anchor x="607.7666666666667" y="563.7333333333333" name="vedic"/>
  <outline>
    <contour>
      <point x="1036.6333333333334" y="-218.83333333333334" type="line"/>
      <point x="1190.4" y="-218.83333333333334" type="line"/>
      <point x="1190.4" y="563.7333333333333" type="line"/>
      <point x="1036.6333333333334" y="563.7333333333333" type="line"/>
      <point x="1036.6333333333334" y="164.63333333333333" type="line"/>
      <point x="119.2" y="164.63333333333333" type="line" smooth="yes"/>
      <point x="59.53333333333333" y="164.63333333333333"/>
      <point x="28.26666666666667" y="130.46666666666667"/>
      <point x="28.26666666666667" y="80.93333333333334" type="curve" smooth="yes"/>
      <point x="28.26666666666667" y="-28.266666666666666"/>
      <point x="183.73333333333335" y="-146.96666666666667"/>
      <point x="428.6666666666667" y="-146.96666666666667" type="curve" smooth="yes"/>
      <point x="736.9333333333334" y="-146.96666666666667"/>
      <point x="929.1666666666666" y="-0.46666666666666656"/>
      <point x="929.1666666666666" y="237.83333333333334" type="curve" smooth="yes"/>
      <point x="929.1666666666666" y="430.6333333333333"/>
      <point x="792.4" y="568.7333333333333"/>
      <point x="593.4666666666667" y="568.7333333333333" type="curve" smooth="yes"/>
      <point x="440.46666666666664" y="568.7333333333333"/>
      <point x="356.8" y="484.46666666666664"/>
      <point x="356.8" y="377.73333333333335" type="curve" smooth="yes"/>
      <point x="356.8" y="289.1"/>
      <point x="420.23333333333335" y="222.66666666666666"/>
      <point x="516.9666666666667" y="222.66666666666666" type="curve" smooth="yes"/>
      <point x="620.8333333333334" y="222.66666666666666"/>
      <point x="677.0333333333333" y="285.8666666666667"/>
      <point x="677.0333333333333" y="366.2" type="curve" smooth="yes"/>
      <point x="677.0333333333333" y="441.4"/>
      <point x="617.2666666666668" y="514.4333333333333"/>
      <point x="527.3333333333334" y="521.7666666666667" type="curve"/>
      <point x="469.43333333333334" y="515.3" type="line"/>
      <point x="521.8666666666667" y="498.26666666666665"/>
      <point x="571.4" y="448.23333333333335"/>
      <point x="571.4" y="385.26666666666665" type="curve" smooth="yes"/>
      <point x="571.4" y="339.53333333333336"/>
      <point x="544.7" y="302.43333333333334"/>
      <point x="497.6333333333333" y="302.43333333333334" type="curve" smooth="yes"/>
      <point x="461.4666666666667" y="302.43333333333334"/>
      <point x="426.1333333333334" y="328.1666666666667"/>
      <point x="426.1333333333334" y="386.1666666666667" type="curve" smooth="yes"/>
      <point x="426.1333333333334" y="447.56666666666666"/>
      <point x="475.3666666666667" y="506.73333333333335"/>
      <point x="576.1" y="506.73333333333335" type="curve" smooth="yes"/>
      <point x="677.9333333333334" y="506.73333333333335"/>
      <point x="777.7" y="432.1"/>
      <point x="777.7" y="261.1333333333333" type="curve" smooth="yes"/>
      <point x="777.7" y="18.066666666666666"/>
      <point x="599.0666666666667" y="-84.96666666666667"/>
      <point x="409.29999999999995" y="-84.96666666666667" type="curve" smooth="yes"/>
      <point x="220.8" y="-84.96666666666667"/>
      <point x="97.0" y="1.3999999999999995"/>
      <point x="97.0" y="75.0" type="curve" smooth="yes"/>
      <point x="97.0" y="92.63333333333334"/>
      <point x="106.0" y="103.63333333333334"/>
      <point x="130.06666666666666" y="103.63333333333334" type="curve" smooth="yes"/>
      <point x="1036.6333333333334" y="103.63333333333334" type="line"/>
    </contour>
  </outline>
</glyph>
<glyph name="aa-tamil" format="2">
  <advance width="1485.0333333333333"/>
  <unicode hex="0B86"/>
  <note>
uni0B86
</note>
  <anchor x="736.6" y="0.0" name="bottom"/>
  <anchor x="428.6666666666667" y="-146.96666666666667" name="nukta"/>
  <anchor x="735.1666666666666" y="563.7333333333333" name="top"/>
  <anchor x="736.1666666666666" y="563.7333333333333" name="vedic"/>
  <outline>
    <contour>
      <point x="1026.0" y="-440.93333333333334" type="curve" smooth="yes"/>
      <point x="1260.7" y="-440.93333333333334"/>
      <point x="1462.4333333333334" y="-317.7"/>
      <point x="1462.4333333333334" y="-91.46666666666667" type="curve" smooth="yes"/>
      <point x="1462.4333333333334" y="17.23333333333333"/>
      <point x="1406.7333333333333" y="83.63333333333334"/>
      <point x="1316.8" y="83.63333333333334" type="curve" smooth="yes"/>
      <point x="1232.1666666666665" y="83.63333333333334"/>
      <point x="1166.7" y="18.9"/>
      <point x="1158.3333333333333" y="-101.86666666666667" type="curve"/>
      <point x="1189.3" y="-109.23333333333333" type="line"/>
      <point x="1188.9333333333334" y="-50.8"/>
      <point x="1225.9666666666667" y="-22.8"/>
      <point x="1258.2333333333333" y="-22.8" type="curve" smooth="yes"/>
      <point x="1297.1999999999998" y="-22.8"/>
      <point x="1319.3666666666666" y="-52.86666666666667"/>
      <point x="1319.3666666666666" y="-99.23333333333333" type="curve" smooth="yes"/>
      <point x="1319.0" y="-274.3"/>
      <point x="1176.7" y="-380.3"/>
      <point x="1015.1999999999999" y="-380.3" type="curve" smooth="yes"/>
      <point x="920.3666666666667" y="-380.3"/>
      <point x="818.1666666666667" y="-349.59999999999997"/>
      <point x="818.1666666666667" y="-276.1333333333334" type="curve" smooth="yes"/>
      <point x="818.1666666666667" y="-225.53333333333333"/>
      <point x="863.9" y="-197.20000000000002"/>
      <point x="921.9666666666666" y="-188.63333333333333" type="curve"/>
      <point x="908.3333333333333" y="-129.36666666666667" type="line"/>
      <point x="820.1666666666666" y="-147.20000000000002"/>
      <point x="754.4333333333334" y="-191.46666666666667"/>
      <point x="754.4333333333334" y="-272.5" type="curve" smooth="yes"/>
      <point x="754.4333333333334" y="-385.76666666666665"/>
      <point x="880.5333333333333" y="-440.93333333333334"/>
    </contour>
    <component base="a-tamil"/>
  </outline>
</glyph>
<glyph name="i-tamil" format="2">
  <advance width="991.0333333333333"/>
  <unicode hex="0B87"/>
  <note>
uni0B87
</note>
  <anchor x="476.3666666666667" y="0.0" name="bottom"/>
  <anchor x="474.3666666666667" y="-278.9" name="nukta"/>
  <anchor x="500.2333333333333" y="851.2666666666667" name="top"/>
  <anchor x="482.3666666666667" y="563.7333333333333" name="vedic"/>
  <outline>
    <contour>
      <point x="228.46666666666667" y="-320.96666666666664" type="curve" smooth="yes"/>
      <point x="525.9666666666666" y="-320.96666666666664"/>
      <point x="777.4666666666667" y="-75.7"/>
      <point x="777.4666666666667" y="233.16666666666666" type="curve" smooth="yes"/>
      <point x="777.4666666666667" y="438.53333333333336"/>
      <point x="652.8666666666667" y="568.7333333333333"/>
      <point x="464.06666666666666" y="568.7333333333333" type="curve" smooth="yes"/>
      <point x="316.1666666666667" y="568.7333333333333"/>
      <point x="239.1" y="486.46666666666664"/>
      <point x="239.1" y="380.8" type="curve" smooth="yes"/>
      <point x="239.1" y="293.06666666666666"/>
      <point x="301.8" y="229.0"/>
      <point x="387.3" y="229.0" type="curve" smooth="yes"/>
      <point x="485.46666666666664" y="229.0"/>
      <point x="541.3000000000001" y="287.5"/>
      <point x="541.3000000000001" y="371.43333333333334" type="curve" smooth="yes"/>
      <point x="541.3000000000001" y="448.8666666666667"/>
      <point x="469.3333333333333" y="518.2"/>
      <point x="378.4" y="527.7333333333333" type="curve"/>
      <point x="335.9666666666667" y="520.6333333333333" type="line"/>
      <point x="393.2" y="502.96666666666664"/>
      <point x="434.66666666666663" y="450.1333333333333"/>
      <point x="434.66666666666663" y="387.06666666666666" type="curve" smooth="yes"/>
      <point x="434.66666666666663" y="338.53333333333336"/>
      <point x="409.9666666666667" y="307.5"/>
      <point x="367.7" y="307.5" type="curve" smooth="yes"/>
      <point x="333.06666666666666" y="307.5"/>
      <point x="302.73333333333335" y="334.3333333333333"/>
      <point x="302.73333333333335" y="385.8" type="curve" smooth="yes"/>
      <point x="302.73333333333335" y="447.56666666666666"/>
      <point x="342.9" y="507.3666666666667"/>
      <point x="446.43333333333334" y="507.3666666666667" type="curve" smooth="yes"/>
      <point x="571.3666666666667" y="507.3666666666667"/>
      <point x="627.1" y="391.23333333333335"/>
      <point x="627.1" y="239.33333333333334" type="curve" smooth="yes"/>
      <point x="627.1" y="-30.733333333333334"/>
      <point x="486.06666666666666" y="-258.6"/>
      <point x="229.5666666666667" y="-258.6" type="curve" smooth="yes"/>
      <point x="154.9" y="-258.6"/>
      <point x="106.7" y="-221.9"/>
      <point x="106.7" y="-158.73333333333332" type="curve" smooth="yes"/>
      <point x="106.7" y="-31.566666666666666"/>
      <point x="304.4666666666667" y="47.1"/>
      <point x="479.7" y="47.1" type="curve" smooth="yes"/>
      <point x="652.9" y="47.1"/>
      <point x="849.0" y="-27.633333333333333"/>
      <point x="849.0" y="-153.56666666666666" type="curve" smooth="yes"/>
      <point x="849.0" y="-231.5"/>
      <point x="789.4666666666667" y="-258.6"/>
      <point x="716.4333333333334" y="-258.6" type="curve" smooth="yes"/>
      <point x="450.46666666666664" y="-258.6"/>
      <point x="126.66666666666667" y="58.03333333333333"/>
      <point x="126.66666666666667" y="359.5" type="curve" smooth="yes"/>
      <point x="126.66666666666667" y="618.1666666666666"/>
      <point x="298.1666666666667" y="731.4666666666667"/>
      <point x="498.96666666666664" y="731.4666666666667" type="curve" smooth="yes"/>
      <point x="722.2666666666667" y="731.4666666666667"/>
      <point x="873.2666666666667" y="592.4333333333334"/>
      <point x="873.2666666666667" y="328.56666666666666" type="curve" smooth="yes"/>
      <point x="873.2666666666667" y="100.7" type="line"/>
      <point x="941.4333333333333" y="100.7" type="line"/>
      <point x="941.4333333333333" y="336.3666666666667" type="line" smooth="yes"/>
      <point x="941.4333333333333" y="678.9333333333334"/>
      <point x="767.6999999999999" y="851.2666666666667"/>
      <point x="500.2333333333333" y="851.2666666666667" type="curve" smooth="yes"/>
      <point x="243.0" y="851.2666666666667"/>
      <point x="54.93333333333334" y="692.2333333333333"/>
      <point x="54.93333333333334" y="410.6333333333334" type="curve" smooth="yes"/>
      <point x="54.93333333333334" y="34.56666666666667"/>
      <point x="410.16666666666663" y="-320.3333333333333"/>
      <point x="742.0" y="-320.3333333333333" type="curve" smooth="yes"/>
      <point x="844.2666666666667" y="-320.3333333333333"/>
      <point x="921.1" y="-265.06666666666666"/>
      <point x="921.1" y="-170.36666666666667" type="curve" smooth="yes"/>
      <point x="921.1" y="18.900000000000002"/>
      <point x="697.0666666666666" y="107.0"/>
      <point x="479.96666666666664" y="107.0" type="curve" smooth="yes"/>
      <point x="260.76666666666665" y="107.0"/>
      <point x="36.06666666666667" y="11.600000000000001"/>
      <point x="36.06666666666667" y="-158.83333333333331" type="curve" smooth="yes"/>
      <point x="36.06666666666667" y="-262.9"/>
      <point x="115.89999999999999" y="-320.96666666666664"/>
    </contour>
  </outline>
</glyph>
<glyph name="ii-tamil" format="2">
  <advance width="826.4"/>
  <unicode hex="0B88"/>
  <note>
uni0B88
</note>
  <anchor x="420.8" y="0.0" name="bottom"/>
  <anchor x="420.8" y="0.0" name="nukta"/>
  <anchor x="423.1666666666667" y="563.7333333333333" name="top"/>
  <anchor x="423.8" y="563.7333333333333" name="vedic"/>
  <outline>
    <contour>
      <point x="80.46666666666667" y="0.0" type="line"/>
      <point x="148.63333333333335" y="0.0" type="line"/>
      <point x="148.63333333333335" y="503.1" type="line"/>
      <point x="409.23333333333335" y="503.1" type="line"/>
      <point x="409.23333333333335" y="0.0" type="line"/>
      <point x="568.1666666666666" y="0.0" type="line"/>
      <point x="568.1666666666666" y="503.1" type="line"/>
      <point x="777.9666666666667" y="503.1" type="line"/>
      <point x="777.9666666666667" y="563.7333333333333" type="line"/>
      <point x="80.46666666666667" y="563.7333333333333" type="line"/>
    </contour>
    <contour>
      <point x="278.56666666666666" y="193.79999999999998" type="curve" smooth="yes"/>
      <point x="320.53333333333336" y="193.79999999999998"/>
      <point x="354.59999999999997" y="227.5"/>
      <point x="354.59999999999997" y="267.1" type="curve" smooth="yes"/>
      <point x="354.59999999999997" y="306.06666666666666"/>
      <point x="320.9" y="339.76666666666665"/>
      <point x="278.93333333333334" y="339.76666666666665" type="curve" smooth="yes"/>
      <point x="236.60000000000002" y="339.76666666666665"/>
      <point x="202.9" y="306.06666666666666"/>
      <point x="202.9" y="267.1" type="curve" smooth="yes"/>
      <point x="202.9" y="227.5"/>
      <point x="236.60000000000002" y="193.79999999999998"/>
    </contour>
    <contour>
      <point x="697.4666666666667" y="193.79999999999998" type="curve" smooth="yes"/>
      <point x="740.0666666666667" y="193.79999999999998"/>
      <point x="773.5" y="227.5"/>
      <point x="773.5" y="267.1" type="curve" smooth="yes"/>
      <point x="773.5" y="306.06666666666666"/>
      <point x="740.4333333333334" y="339.76666666666665"/>
      <point x="697.8333333333334" y="339.76666666666665" type="curve" smooth="yes"/>
      <point x="655.5" y="339.76666666666665"/>
      <point x="621.8000000000001" y="306.06666666666666"/>
      <point x="621.8000000000001" y="267.1" type="curve" smooth="yes"/>
      <point x="621.8000000000001" y="227.5"/>
      <point x="655.5" y="193.79999999999998"/>
    </contour>
  </outline>
</glyph>
<glyph name="u-tamil" format="2">
  <advance width="923.0333333333333"/>
  <unicode hex="0B89"/>
  <note>
uni0B89
</note>
  <anchor x="469.8" y="0.0" name="bottom"/>
  <anchor x="469.8" y="0.0" name="nukta"/>
  <anchor x="473.8" y="563.7333333333333" name="top"/>
  <anchor x="472.8" y="563.7333333333333" name="vedic"/>
  <outline>
    <contour>
      <point x="137.13333333333333" y="0.0" type="curve" smooth="yes"/>
      <point x="912.5666666666667" y="0.0" type="line"/>
      <point x="912.5666666666667" y="61.0" type="line"/>
      <point x="132.96666666666667" y="61.0" type="line" smooth="yes"/>
      <point x="114.06666666666668" y="61.0"/>
      <point x="99.96666666666667" y="75.0"/>
      <point x="99.96666666666667" y="95.73333333333333" type="curve" smooth="yes"/>
      <point x="99.96666666666667" y="117.1"/>
      <point x="113.7" y="130.46666666666667"/>
      <point x="132.96666666666667" y="130.46666666666667" type="curve" smooth="yes"/>
      <point x="368.8333333333333" y="130.46666666666667" type="line" smooth="yes"/>
      <point x="543.4" y="130.46666666666667"/>
      <point x="657.1666666666666" y="196.0"/>
      <point x="657.1666666666666" y="336.1" type="curve" smooth="yes"/>
      <point x="657.1666666666666" y="489.43333333333334"/>
      <point x="529.3666666666667" y="568.7333333333333"/>
      <point x="361.59999999999997" y="568.7333333333333" type="curve" smooth="yes"/>
      <point x="191.10000000000002" y="568.7333333333333"/>
      <point x="112.0" y="485.0333333333333"/>
      <point x="112.0" y="381.2" type="curve" smooth="yes"/>
      <point x="112.0" y="293.20000000000005"/>
      <point x="175.13333333333335" y="238.93333333333334"/>
      <point x="259.53333333333336" y="238.93333333333334" type="curve" smooth="yes"/>
      <point x="363.93333333333334" y="238.93333333333334"/>
      <point x="412.96666666666664" y="295.43333333333334"/>
      <point x="412.96666666666664" y="367.29999999999995" type="curve" smooth="yes"/>
      <point x="412.96666666666664" y="441.1333333333334"/>
      <point x="358.90000000000003" y="511.9"/>
      <point x="266.1666666666667" y="521.0333333333333" type="curve"/>
      <point x="212.86666666666667" y="516.4" type="line"/>
      <point x="273.1" y="493.8333333333333"/>
      <point x="311.76666666666665" y="443.3666666666666"/>
      <point x="311.76666666666665" y="385.46666666666664" type="curve" smooth="yes"/>
      <point x="311.76666666666665" y="340.6333333333334"/>
      <point x="285.43333333333334" y="310.9"/>
      <point x="246.26666666666668" y="310.9" type="curve" smooth="yes"/>
      <point x="206.76666666666665" y="310.9"/>
      <point x="181.33333333333331" y="339.79999999999995"/>
      <point x="181.33333333333331" y="387.26666666666665" type="curve" smooth="yes"/>
      <point x="181.33333333333331" y="448.5"/>
      <point x="226.1" y="507.46666666666664"/>
      <point x="338.7" y="507.46666666666664" type="curve" smooth="yes"/>
      <point x="436.03333333333336" y="507.46666666666664"/>
      <point x="506.06666666666666" y="450.73333333333335"/>
      <point x="506.06666666666666" y="346.73333333333335" type="curve" smooth="yes"/>
      <point x="506.06666666666666" y="240.3"/>
      <point x="446.56666666666666" y="189.1"/>
      <point x="345.66666666666663" y="189.1" type="curve" smooth="yes"/>
      <point x="137.13333333333333" y="189.1" type="line" smooth="yes"/>
      <point x="76.43333333333334" y="189.1"/>
      <point x="37.166666666666664" y="157.0"/>
      <point x="37.166666666666664" y="95.73333333333333" type="curve" smooth="yes"/>
      <point x="37.166666666666664" y="34.733333333333334"/>
      <point x="76.8" y="0.0"/>
    </contour>
  </outline>
</glyph>
<glyph name="uu-tamil" format="2">
  <advance width="1669.1666666666667"/>
  <unicode hex="0B8A"/>
  <note>
uni0B8A
</note>
  <anchor x="852.6666666666667" y="0.0" name="bottom"/>
  <anchor x="852.6666666666666" y="0.0" name="nukta"/>
  <anchor x="854.5666666666667" y="563.7333333333333" name="top"/>
  <anchor x="855.6666666666667" y="563.7333333333333" name="vedic"/>
  <outline>
    <contour>
      <point x="136.4" y="0.0" type="curve" smooth="yes"/>
      <point x="1615.3" y="0.0" type="line"/>
      <point x="1615.3" y="61.0" type="line"/>
      <point x="132.23333333333335" y="61.0" type="line" smooth="yes"/>
      <point x="112.96666666666667" y="61.0"/>
      <point x="99.96666666666667" y="75.0"/>
      <point x="99.96666666666667" y="95.73333333333333" type="curve" smooth="yes"/>
      <point x="99.96666666666667" y="117.1"/>
      <point x="112.96666666666667" y="130.46666666666667"/>
      <point x="132.23333333333335" y="130.46666666666667" type="curve" smooth="yes"/>
      <point x="368.8333333333333" y="130.46666666666667" type="line" smooth="yes"/>
      <point x="543.4" y="130.46666666666667"/>
      <point x="657.1666666666666" y="196.0"/>
      <point x="657.1666666666666" y="336.1" type="curve" smooth="yes"/>
      <point x="657.1666666666666" y="489.43333333333334"/>
      <point x="529.3666666666667" y="568.7333333333333"/>
      <point x="361.59999999999997" y="568.7333333333333" type="curve" smooth="yes"/>
      <point x="191.10000000000002" y="568.7333333333333"/>
      <point x="112.0" y="485.0333333333333"/>
      <point x="112.0" y="381.2" type="curve" smooth="yes"/>
      <point x="112.0" y="293.20000000000005"/>
      <point x="175.13333333333335" y="238.93333333333334"/>
      <point x="259.53333333333336" y="238.93333333333334" type="curve" smooth="yes"/>
      <point x="363.93333333333334" y="238.93333333333334"/>
      <point x="412.96666666666664" y="295.43333333333334"/>
      <point x="412.96666666666664" y="367.29999999999995" type="curve" smooth="yes"/>
      <point x="412.96666666666664" y="441.1333333333334"/>
      <point x="358.90000000000003" y="511.9"/>
      <point x="266.1666666666667" y="521.0333333333333" type="curve"/>
      <point x="212.86666666666667" y="516.4" type="line"/>
      <point x="273.1" y="493.8333333333333"/>
      <point x="311.76666666666665" y="443.3666666666666"/>
      <point x="311.76666666666665" y="385.46666666666664" type="curve" smooth="yes"/>
      <point x="311.76666666666665" y="340.6333333333334"/>
      <point x="285.43333333333334" y="310.9"/>
      <point x="246.26666666666668" y="310.9" type="curve" smooth="yes"/>
      <point x="206.76666666666665" y="310.9"/>
      <point x="181.33333333333331" y="339.79999999999995"/>
      <point x="181.33333333333331" y="387.26666666666665" type="curve" smooth="yes"/>
      <point x="181.33333333333331" y="448.5"/>
      <point x="226.1" y="507.46666666666664"/>
      <point x="338.7" y="507.46666666666664" type="curve" smooth="yes"/>
      <point x="436.03333333333336" y="507.46666666666664"/>
      <point x="506.06666666666666" y="450.73333333333335"/>
      <point x="506.06666666666666" y="346.73333333333335" type="curve" smooth="yes"/>
      <point x="506.06666666666666" y="240.3"/>
      <point x="446.56666666666666" y="189.1"/>
      <point x="345.66666666666663" y="189.1" type="curve" smooth="yes"/>
      <point x="136.4" y="189.1" type="line" smooth="yes"/>
      <point x="75.33333333333333" y="189.1"/>
      <point x="37.166666666666664" y="157.0"/>
      <point x="37.166666666666664" y="95.73333333333333" type="curve" smooth="yes"/>
      <point x="37.166666666666664" y="34.733333333333334"/>
      <point x="75.7" y="0.0"/>
    </contour>
    <contour>
      <point x="918.7666666666667" y="119.96666666666667" type="curve" smooth="yes"/>
      <point x="1011.4333333333334" y="119.96666666666667"/>
      <point x="1079.0333333333333" y="166.26666666666665"/>
      <point x="1079.0333333333333" y="258.1666666666667" type="curve" smooth="yes"/>
      <point x="1079.0333333333333" y="344.3"/>
      <point x="1020.2333333333333" y="393.56666666666666"/>
      <point x="937.6666666666666" y="393.56666666666666" type="curve" smooth="yes"/>
      <point x="845.6333333333333" y="393.56666666666666"/>
      <point x="792.2333333333333" y="323.1"/>
      <point x="787.9666666666667" y="223.43333333333334" type="curve"/>
      <point x="822.3" y="200.93333333333334" type="line"/>
      <point x="826.8333333333334" y="270.8333333333333"/>
      <point x="859.6333333333334" y="330.3666666666667"/>
      <point x="910.4" y="330.3666666666667" type="curve" smooth="yes"/>
      <point x="945.8333333333334" y="330.3666666666667"/>
      <point x="973.2666666666667" y="304.1"/>
      <point x="973.2666666666667" y="262.3333333333333" type="curve" smooth="yes"/>
      <point x="973.2666666666667" y="210.43333333333334"/>
      <point x="939.6" y="182.6"/>
      <point x="892.4666666666666" y="182.6" type="curve" smooth="yes"/>
      <point x="834.4333333333334" y="182.6"/>
      <point x="788.3333333333334" y="235.3"/>
      <point x="788.3333333333334" y="334.8" type="curve" smooth="yes"/>
      <point x="788.3333333333334" y="450.3"/>
      <point x="867.1333333333333" y="508.1"/>
      <point x="958.6" y="508.1" type="curve" smooth="yes"/>
      <point x="1054.8" y="508.1"/>
      <point x="1137.8666666666668" y="444.56666666666666"/>
      <point x="1139.1333333333332" y="325.06666666666666" type="curve"/>
      <point x="1202.7333333333333" y="325.06666666666666" type="line"/>
      <point x="1198.7333333333333" y="482.53333333333336"/>
      <point x="1093.0666666666668" y="568.7333333333333"/>
      <point x="961.7666666666667" y="568.7333333333333" type="curve" smooth="yes"/>
      <point x="821.4666666666667" y="568.7333333333333"/>
      <point x="723.2666666666667" y="477.5"/>
      <point x="723.2666666666667" y="334.06666666666666" type="curve" smooth="yes"/>
      <point x="723.2666666666667" y="206.3"/>
      <point x="806.1333333333333" y="119.96666666666667"/>
    </contour>
    <contour>
      <point x="1139.1333333333332" y="121.7" type="line"/>
      <point x="1269.1000000000001" y="121.7" type="line"/>
      <point x="1269.1000000000001" y="504.56666666666666" type="line"/>
      <point x="1401.0" y="504.56666666666666" type="line"/>
      <point x="1401.0" y="121.7" type="line"/>
      <point x="1531.2333333333333" y="121.7" type="line"/>
      <point x="1531.2333333333333" y="504.56666666666666" type="line"/>
      <point x="1615.3" y="504.56666666666666" type="line"/>
      <point x="1615.3" y="563.7333333333333" type="line"/>
      <point x="1169.2" y="563.7333333333333" type="line"/>
      <point x="1170.3" y="375.1666666666667" type="line"/>
      <point x="1139.1333333333332" y="374.06666666666666" type="line"/>
    </contour>
  </outline>
</glyph>
<glyph name="e-tamil" format="2">
  <advance width="910.5333333333334"/>
  <unicode hex="0B8E"/>
  <note>
uni0B8E
</note>
  <anchor x="481.73333333333335" y="0.0" name="bottom"/>
  <anchor x="482.3666666666667" y="0.0" name="nukta"/>
  <anchor x="484.1" y="563.7333333333333" name="top"/>
  <anchor x="484.73333333333335" y="563.7333333333333" name="vedic"/>
  <outline>
    <contour>
      <point x="272.8" y="-5.0" type="curve" smooth="yes"/>
      <point x="389.2666666666667" y="-5.0"/>
      <point x="461.8666666666667" y="65.06666666666666"/>
      <point x="461.8666666666667" y="161.46666666666664" type="curve" smooth="yes"/>
      <point x="461.8666666666667" y="250.29999999999998"/>
      <point x="403.9" y="323.0"/>
      <point x="300.16666666666663" y="323.0" type="curve" smooth="yes"/>
      <point x="192.3" y="323.0"/>
      <point x="127.63333333333333" y="243.83333333333331"/>
      <point x="118.3" y="110.03333333333333" type="curve"/>
      <point x="159.1" y="88.46666666666667" type="line"/>
      <point x="162.36666666666665" y="186.66666666666669"/>
      <point x="201.93333333333334" y="240.7"/>
      <point x="256.7" y="240.7" type="curve" smooth="yes"/>
      <point x="307.53333333333336" y="240.7"/>
      <point x="332.23333333333335" y="199.9"/>
      <point x="332.23333333333335" y="154.9" type="curve" smooth="yes"/>
      <point x="332.23333333333335" y="105.33333333333333"/>
      <point x="304.1" y="61.733333333333334"/>
      <point x="242.36666666666665" y="61.733333333333334" type="curve" smooth="yes"/>
      <point x="161.13333333333335" y="61.733333333333334"/>
      <point x="113.33333333333334" y="147.56666666666666"/>
      <point x="113.33333333333334" y="261.9666666666667" type="curve" smooth="yes"/>
      <point x="113.33333333333334" y="398.0"/>
      <point x="198.76666666666668" y="503.1"/>
      <point x="391.6333333333333" y="503.1" type="curve" smooth="yes"/>
      <point x="600.2" y="503.1" type="line"/>
      <point x="600.2" y="0.0" type="line"/>
      <point x="754.9666666666667" y="0.0" type="line"/>
      <point x="754.9666666666667" y="503.1" type="line"/>
      <point x="893.1666666666667" y="503.1" type="line"/>
      <point x="893.1666666666667" y="563.7333333333333" type="line"/>
      <point x="383.8" y="563.7333333333333" type="line" smooth="yes"/>
      <point x="160.13333333333333" y="563.7333333333333"/>
      <point x="49.96666666666667" y="427.9333333333333"/>
      <point x="49.96666666666667" y="263.9666666666667" type="curve" smooth="yes"/>
      <point x="49.96666666666667" y="109.93333333333334"/>
      <point x="134.73333333333332" y="-5.0"/>
    </contour>
  </outline>
</glyph>
<glyph name="ai-tamil" format="2">
  <advance width="997.6666666666667"/>
  <unicode hex="0B90"/>
  <note>
uni0B90
</note>
  <anchor x="498.46666666666664" y="0.0" name="bottom"/>
  <anchor x="497.73333333333335" y="-320.3333333333333" name="nukta"/>
  <anchor x="514.5666666666667" y="563.7333333333333" name="top"/>
  <anchor x="514.4666666666666" y="563.7333333333333" name="vedic"/>
  <outline>
    <contour>
      <point x="295.0" y="-320.3333333333333" type="curve" smooth="yes"/>
      <point x="404.93333333333334" y="-320.3333333333333"/>
      <point x="496.79999999999995" y="-276.76666666666665"/>
      <point x="513.7333333333333" y="-170.10000000000002" type="curve"/>
      <point x="526.0333333333333" y="-239.20000000000002"/>
      <point x="585.8333333333334" y="-320.3333333333333"/>
      <point x="729.4" y="-320.3333333333333" type="curve" smooth="yes"/>
      <point x="870.6" y="-320.3333333333333"/>
      <point x="948.3333333333334" y="-239.86666666666667"/>
      <point x="948.3333333333334" y="-116.33333333333334" type="curve" smooth="yes"/>
      <point x="948.3333333333334" y="-52.5"/>
      <point x="925.7" y="3.766666666666666"/>
      <point x="883.5666666666667" y="64.93333333333334" type="curve"/>
      <point x="832.6333333333333" y="33.93333333333334" type="line"/>
      <point x="869.1333333333333" y="-19.5"/>
      <point x="883.0666666666666" y="-60.166666666666664"/>
      <point x="883.0666666666666" y="-108.16666666666667" type="curve" smooth="yes"/>
      <point x="883.0666666666666" y="-199.2"/>
      <point x="828.7333333333333" y="-257.1333333333333"/>
      <point x="730.1333333333333" y="-257.1333333333333" type="curve" smooth="yes"/>
      <point x="630.7333333333333" y="-257.1333333333333"/>
      <point x="590.0" y="-177.96666666666667"/>
      <point x="590.0" y="-85.5" type="curve" smooth="yes"/>
      <point x="590.0" y="-30.733333333333334" type="line"/>
      <point x="444.3333333333333" y="-30.733333333333334" type="line"/>
      <point x="444.3333333333333" y="-94.7" type="line" smooth="yes"/>
      <point x="444.3333333333333" y="-210.76666666666668"/>
      <point x="391.33333333333337" y="-257.8666666666667"/>
      <point x="324.90000000000003" y="-257.8666666666667" type="curve" smooth="yes"/>
      <point x="259.2" y="-257.8666666666667"/>
      <point x="203.5" y="-220.73333333333335"/>
      <point x="203.5" y="-122.9" type="curve" smooth="yes"/>
      <point x="203.5" y="37.0"/>
      <point x="328.20000000000005" y="60.43333333333334"/>
      <point x="536.6" y="78.9" type="curve" smooth="yes"/>
      <point x="761.1333333333333" y="99.0"/>
      <point x="947.9666666666667" y="153.43333333333334"/>
      <point x="947.9666666666667" y="349.26666666666665" type="curve" smooth="yes"/>
      <point x="947.9666666666667" y="500.1"/>
      <point x="852.2333333333333" y="569.3666666666667"/>
      <point x="713.7333333333333" y="569.3666666666667" type="curve" smooth="yes"/>
      <point x="613.5" y="569.3666666666667"/>
      <point x="545.9666666666667" y="527.5"/>
      <point x="521.3333333333333" y="439.0" type="curve"/>
      <point x="490.26666666666665" y="525.5"/>
      <point x="401.93333333333334" y="569.3666666666667"/>
      <point x="294.50000000000006" y="569.3666666666667" type="curve" smooth="yes"/>
      <point x="153.33333333333331" y="569.3666666666667"/>
      <point x="54.96666666666667" y="488.6"/>
      <point x="54.96666666666667" y="350.53333333333336" type="curve" smooth="yes"/>
      <point x="54.96666666666667" y="238.16666666666666"/>
      <point x="129.43333333333334" y="157.16666666666666"/>
      <point x="232.16666666666669" y="157.16666666666666" type="curve" smooth="yes"/>
      <point x="319.1666666666667" y="157.16666666666666"/>
      <point x="380.6666666666667" y="199.73333333333332"/>
      <point x="380.6666666666667" y="284.8" type="curve" smooth="yes"/>
      <point x="380.6666666666667" y="362.6333333333333"/>
      <point x="329.5333333333333" y="410.3666666666667"/>
      <point x="252.7" y="410.3666666666667" type="curve" smooth="yes"/>
      <point x="184.1" y="410.3666666666667"/>
      <point x="118.1" y="369.0"/>
      <point x="109.2" y="238.66666666666666" type="curve"/>
      <point x="142.53333333333333" y="221.53333333333333" type="line"/>
      <point x="147.16666666666666" y="312.8333333333333"/>
      <point x="184.93333333333334" y="347.70000000000005"/>
      <point x="223.33333333333334" y="347.70000000000005" type="curve" smooth="yes"/>
      <point x="258.8333333333333" y="347.70000000000005"/>
      <point x="280.06666666666666" y="322.43333333333334"/>
      <point x="280.06666666666666" y="284.8" type="curve" smooth="yes"/>
      <point x="280.06666666666666" y="241.73333333333335"/>
      <point x="253.66666666666666" y="219.9"/>
      <point x="214.26666666666665" y="219.9" type="curve" smooth="yes"/>
      <point x="160.16666666666666" y="219.9"/>
      <point x="117.96666666666667" y="263.3333333333333"/>
      <point x="117.96666666666667" y="349.43333333333334" type="curve" smooth="yes"/>
      <point x="117.96666666666667" y="455.96666666666664"/>
      <point x="195.86666666666667" y="507.0"/>
      <point x="286.9666666666667" y="507.0" type="curve" smooth="yes"/>
      <point x="382.23333333333335" y="507.0"/>
      <point x="444.3333333333333" y="462.8333333333333"/>
      <point x="444.3333333333333" y="364.2" type="curve" smooth="yes"/>
      <point x="444.3333333333333" y="214.8" type="line"/>
      <point x="590.0" y="214.8" type="line"/>
      <point x="590.0" y="378.76666666666665" type="line" smooth="yes"/>
      <point x="590.0" y="459.8333333333333"/>
      <point x="624.7" y="506.6333333333333"/>
      <point x="689.0" y="506.6333333333333" type="curve" smooth="yes"/>
      <point x="760.7333333333333" y="506.6333333333333"/>
      <point x="794.4333333333333" y="454.9"/>
      <point x="794.4333333333333" y="366.96666666666664" type="curve" smooth="yes"/>
      <point x="794.4333333333333" y="199.26666666666668"/>
      <point x="659.0666666666666" y="142.73333333333335"/>
      <point x="431.26666666666665" y="122.8" type="curve" smooth="yes"/>
      <point x="229.4" y="105.80000000000001"/>
      <point x="49.96666666666667" y="66.96666666666667"/>
      <point x="49.96666666666667" y="-112.1" type="curve" smooth="yes"/>
      <point x="49.96666666666667" y="-249.6"/>
      <point x="159.53333333333333" y="-320.3333333333333"/>
    </contour>
  </outline>
</glyph>
<glyph name="o-tamil" format="2">
  <advance width="1001.9666666666667"/>
  <unicode hex="0B92"/>
  <note>
uni0B92
</note>
  <anchor x="504.56666666666666" y="0.0" name="bottom"/>
  <anchor x="502.56666666666666" y="-335.0" name="nukta"/>
  <anchor x="497.56666666666666" y="563.7333333333333" name="top"/>
  <anchor x="497.56666666666666" y="563.7333333333333" name="vedic"/>
  <outline>
    <contour>
      <point x="361.7666666666667" y="-354.3333333333333" type="curve" smooth="yes"/>
      <point x="605.9" y="-354.3333333333333"/>
      <point x="604.0" y="-151.0"/>
      <point x="769.4666666666667" y="-151.0" type="curve" smooth="yes"/>
      <point x="833.5666666666667" y="-151.0" type="line"/>
      <point x="833.5666666666667" y="-87.19999999999999" type="line"/>
      <point x="744.2333333333333" y="-87.19999999999999" type="line" smooth="yes"/>
      <point x="569.7" y="-87.19999999999999"/>
      <point x="501.3333333333333" y="79.86666666666666"/>
      <point x="600.5" y="219.83333333333334" type="curve"/>
      <point x="606.5" y="216.83333333333331" type="line"/>
      <point x="573.4666666666666" y="110.06666666666666"/>
      <point x="606.7333333333333" y="-4.633333333333334"/>
      <point x="756.8666666666667" y="-4.633333333333334" type="curve" smooth="yes"/>
      <point x="871.4" y="-4.633333333333334"/>
      <point x="952.6333333333333" y="72.96666666666667"/>
      <point x="952.6333333333333" y="199.79999999999998" type="curve" smooth="yes"/>
      <point x="952.6333333333333" y="435.3666666666667"/>
      <point x="731.7333333333333" y="568.7333333333333"/>
      <point x="472.5" y="568.7333333333333" type="curve" smooth="yes"/>
      <point x="249.43333333333334" y="568.7333333333333"/>
      <point x="49.96666666666667" y="442.7"/>
      <point x="49.96666666666667" y="237.4" type="curve" smooth="yes"/>
      <point x="49.96666666666667" y="97.86666666666667"/>
      <point x="134.73333333333332" y="-5.0"/>
      <point x="269.6333333333333" y="-5.0" type="curve" smooth="yes"/>
      <point x="383.56666666666666" y="-5.0"/>
      <point x="455.5333333333333" y="65.06666666666668"/>
      <point x="455.5333333333333" y="161.46666666666664" type="curve" smooth="yes"/>
      <point x="455.5333333333333" y="250.29999999999998"/>
      <point x="397.56666666666666" y="323.0"/>
      <point x="297.0" y="323.0" type="curve" smooth="yes"/>
      <point x="189.13333333333333" y="323.0"/>
      <point x="121.3" y="241.29999999999998"/>
      <point x="112.6" y="103.69999999999999" type="curve"/>
      <point x="152.76666666666668" y="82.13333333333334" type="line"/>
      <point x="156.03333333333333" y="183.5"/>
      <point x="198.76666666666668" y="240.7"/>
      <point x="253.53333333333333" y="240.7" type="curve" smooth="yes"/>
      <point x="301.83333333333337" y="240.7"/>
      <point x="325.9" y="199.9"/>
      <point x="325.9" y="154.9" type="curve" smooth="yes"/>
      <point x="325.9" y="105.33333333333334"/>
      <point x="297.7666666666667" y="61.733333333333334"/>
      <point x="239.2" y="61.733333333333334" type="curve" smooth="yes"/>
      <point x="161.13333333333333" y="61.733333333333334"/>
      <point x="113.33333333333334" y="130.43333333333334"/>
      <point x="113.33333333333334" y="237.03333333333333" type="curve" smooth="yes"/>
      <point x="113.33333333333334" y="408.3"/>
      <point x="291.6666666666667" y="511.8"/>
      <point x="467.73333333333335" y="511.8" type="curve" smooth="yes"/>
      <point x="661.0" y="511.8"/>
      <point x="806.6" y="408.3333333333333"/>
      <point x="806.6" y="223.66666666666666" type="curve" smooth="yes"/>
      <point x="806.6" y="132.46666666666667"/>
      <point x="780.1333333333334" y="63.56666666666666"/>
      <point x="714.7" y="63.56666666666666" type="curve" smooth="yes"/>
      <point x="641.4333333333334" y="63.56666666666666"/>
      <point x="627.1666666666667" y="169.63333333333333"/>
      <point x="678.0" y="270.1333333333333" type="curve"/>
      <point x="610.8666666666667" y="311.7333333333333" type="line"/>
      <point x="461.23333333333335" y="161.56666666666666"/>
      <point x="465.53333333333336" y="-26.2"/>
      <point x="611.4666666666667" y="-108.03333333333333" type="curve"/>
      <point x="611.4666666666667" y="-113.03333333333333" type="line"/>
      <point x="479.9" y="-132.96666666666667"/>
      <point x="453.23333333333335" y="-285.23333333333335"/>
      <point x="324.4666666666667" y="-285.23333333333335" type="curve" smooth="yes"/>
      <point x="266.5333333333333" y="-285.23333333333335"/>
      <point x="232.63333333333333" y="-251.10000000000002"/>
      <point x="232.63333333333333" y="-203.20000000000002" type="curve" smooth="yes"/>
      <point x="232.63333333333333" y="-167.4"/>
      <point x="251.16666666666669" y="-137.8"/>
      <point x="289.20000000000005" y="-111.7" type="curve"/>
      <point x="252.63333333333333" y="-68.26666666666667" type="line"/>
      <point x="200.70000000000002" y="-106.0"/>
      <point x="175.16666666666669" y="-148.5"/>
      <point x="175.16666666666669" y="-198.4" type="curve" smooth="yes"/>
      <point x="175.16666666666669" y="-286.03333333333336"/>
      <point x="244.76666666666668" y="-354.3333333333333"/>
    </contour>
  </outline>
</glyph>
<glyph name="oo-tamil" format="2">
  <advance width="1001.9666666666667"/>
  <unicode hex="0B93"/>
  <note>
uni0B93
</note>
  <anchor x="495.6666666666667" y="0.0" name="bottom"/>
  <anchor x="493.6666666666667" y="-333.7" name="nukta"/>
  <anchor x="488.6666666666667" y="563.7333333333333" name="top"/>
  <anchor x="488.6666666666667" y="563.7333333333333" name="vedic"/>
  <outline>
    <contour>
      <point x="336.96666666666664" y="-377.3666666666667" type="curve" smooth="yes"/>
      <point x="605.2" y="-377.3666666666667"/>
      <point x="612.8666666666667" y="-151.0"/>
      <point x="768.8333333333334" y="-151.0" type="curve" smooth="yes"/>
      <point x="832.4666666666667" y="-151.0" type="line"/>
      <point x="832.4666666666667" y="-87.19999999999999" type="line"/>
      <point x="749.9333333333334" y="-87.19999999999999" type="line" smooth="yes"/>
      <point x="572.2333333333333" y="-87.19999999999999"/>
      <point x="503.2333333333333" y="86.83333333333333"/>
      <point x="591.6333333333333" y="219.83333333333334" type="curve"/>
      <point x="598.2666666666667" y="216.2" type="line"/>
      <point x="567.7666666666667" y="109.43333333333334"/>
      <point x="606.7333333333333" y="-4.633333333333334"/>
      <point x="756.8666666666667" y="-4.633333333333334" type="curve" smooth="yes"/>
      <point x="871.4" y="-4.633333333333334"/>
      <point x="952.6333333333333" y="72.96666666666667"/>
      <point x="952.6333333333333" y="199.79999999999998" type="curve" smooth="yes"/>
      <point x="952.6333333333333" y="435.3666666666667"/>
      <point x="731.7333333333333" y="568.7333333333333"/>
      <point x="472.5" y="568.7333333333333" type="curve" smooth="yes"/>
      <point x="249.43333333333334" y="568.7333333333333"/>
      <point x="49.96666666666667" y="442.7"/>
      <point x="49.96666666666667" y="237.4" type="curve" smooth="yes"/>
      <point x="49.96666666666667" y="97.86666666666667"/>
      <point x="134.73333333333332" y="-5.0"/>
      <point x="269.6333333333333" y="-5.0" type="curve" smooth="yes"/>
      <point x="383.56666666666666" y="-5.0"/>
      <point x="455.5333333333333" y="65.06666666666668"/>
      <point x="455.5333333333333" y="161.46666666666664" type="curve" smooth="yes"/>
      <point x="455.5333333333333" y="250.29999999999998"/>
      <point x="397.56666666666666" y="323.0"/>
      <point x="297.0" y="323.0" type="curve" smooth="yes"/>
      <point x="189.13333333333333" y="323.0"/>
      <point x="121.3" y="241.29999999999998"/>
      <point x="112.6" y="103.69999999999999" type="curve"/>
      <point x="152.76666666666668" y="82.13333333333334" type="line"/>
      <point x="156.03333333333333" y="183.5"/>
      <point x="198.76666666666668" y="240.7"/>
      <point x="253.53333333333333" y="240.7" type="curve" smooth="yes"/>
      <point x="301.83333333333337" y="240.7"/>
      <point x="325.9" y="199.9"/>
      <point x="325.9" y="154.9" type="curve" smooth="yes"/>
      <point x="325.9" y="105.33333333333334"/>
      <point x="297.7666666666667" y="61.733333333333334"/>
      <point x="239.2" y="61.733333333333334" type="curve" smooth="yes"/>
      <point x="161.13333333333333" y="61.733333333333334"/>
      <point x="113.33333333333334" y="130.43333333333334"/>
      <point x="113.33333333333334" y="237.03333333333333" type="curve" smooth="yes"/>
      <point x="113.33333333333334" y="408.3"/>
      <point x="291.6666666666667" y="511.8"/>
      <point x="467.73333333333335" y="511.8" type="curve" smooth="yes"/>
      <point x="661.0" y="511.8"/>
      <point x="806.6" y="408.3333333333333"/>
      <point x="806.6" y="223.66666666666666" type="curve" smooth="yes"/>
      <point x="806.6" y="132.46666666666667"/>
      <point x="780.1333333333334" y="63.56666666666666"/>
      <point x="714.7" y="63.56666666666666" type="curve" smooth="yes"/>
      <point x="641.4333333333334" y="63.56666666666666"/>
      <point x="617.6666666666667" y="169.63333333333333"/>
      <point x="669.1333333333333" y="270.1333333333333" type="curve"/>
      <point x="602.0" y="311.7333333333333" type="line"/>
      <point x="450.09999999999997" y="159.03333333333333"/>
      <point x="471.8666666666667" y="-27.466666666666665"/>
      <point x="620.9666666666666" y="-109.3" type="curve"/>
      <point x="620.9666666666666" y="-114.3" type="line"/>
      <point x="484.9666666666667" y="-129.79999999999998"/>
      <point x="442.1333333333333" y="-311.26666666666665"/>
      <point x="297.0333333333333" y="-311.26666666666665" type="curve" smooth="yes"/>
      <point x="223.4" y="-311.26666666666665"/>
      <point x="188.06666666666666" y="-265.7333333333333"/>
      <point x="188.06666666666666" y="-218.56666666666666" type="curve" smooth="yes"/>
      <point x="188.06666666666666" y="-177.6"/>
      <point x="220.29999999999998" y="-145.9"/>
      <point x="258.53333333333336" y="-145.9" type="curve" smooth="yes"/>
      <point x="300.4" y="-145.9"/>
      <point x="327.4666666666667" y="-168.96666666666667"/>
      <point x="343.26666666666665" y="-222.9" type="curve"/>
      <point x="389.1" y="-201.66666666666666"/>
      <point x="416.06666666666666" y="-172.96666666666667"/>
      <point x="416.06666666666666" y="-137.63333333333335" type="curve" smooth="yes"/>
      <point x="416.06666666666666" y="-88.66666666666667"/>
      <point x="362.6666666666667" y="-57.86666666666667"/>
      <point x="301.7" y="-57.86666666666667" type="curve" smooth="yes"/>
      <point x="204.70000000000002" y="-57.86666666666667"/>
      <point x="129.43333333333334" y="-118.13333333333334"/>
      <point x="129.43333333333334" y="-213.3" type="curve" smooth="yes"/>
      <point x="129.43333333333334" y="-310.8666666666667"/>
      <point x="219.96666666666667" y="-377.3666666666667"/>
    </contour>
  </outline>
</glyph>
<glyph name="au-tamil" format="2">
  <advance width="2216.4"/>
  <unicode hex="0B94"/>
  <note>
uni0B94
</note>
  <anchor x="1139.0666666666666" y="0.0" name="bottom"/>
  <anchor x="1243.4333333333334" y="0.0" name="nukta"/>
  <anchor x="1132.4333333333332" y="563.7333333333333" name="top"/>
  <anchor x="1132.4333333333332" y="563.7333333333333" name="vedic"/>
  <outline>
    <contour>
      <point x="1255.7666666666667" y="-5.0" type="curve" smooth="yes"/>
      <point x="1371.8666666666668" y="-5.0"/>
      <point x="1444.2" y="65.06666666666668"/>
      <point x="1444.2" y="161.46666666666664" type="curve" smooth="yes"/>
      <point x="1444.2" y="250.29999999999998"/>
      <point x="1386.2333333333333" y="323.0"/>
      <point x="1283.1333333333334" y="323.0" type="curve" smooth="yes"/>
      <point x="1175.2666666666667" y="323.0"/>
      <point x="1110.6" y="243.83333333333331"/>
      <point x="1101.2666666666667" y="110.03333333333333" type="curve"/>
      <point x="1141.7" y="88.46666666666667" type="line"/>
      <point x="1144.9666666666667" y="186.66666666666666"/>
      <point x="1184.8999999999999" y="240.7"/>
      <point x="1239.6666666666667" y="240.7" type="curve" smooth="yes"/>
      <point x="1290.1333333333334" y="240.7"/>
      <point x="1314.8333333333335" y="199.9"/>
      <point x="1314.8333333333335" y="154.9" type="curve" smooth="yes"/>
      <point x="1314.8333333333335" y="105.33333333333334"/>
      <point x="1286.7" y="61.733333333333334"/>
      <point x="1225.3333333333335" y="61.733333333333334" type="curve" smooth="yes"/>
      <point x="1144.1" y="61.733333333333334"/>
      <point x="1096.3" y="147.56666666666666"/>
      <point x="1096.3" y="261.9666666666667" type="curve" smooth="yes"/>
      <point x="1096.3" y="400.43333333333334"/>
      <point x="1184.0" y="505.53333333333336"/>
      <point x="1354.9333333333332" y="505.53333333333336" type="curve" smooth="yes"/>
      <point x="1473.0333333333335" y="505.53333333333336"/>
      <point x="1582.4333333333334" y="430.7"/>
      <point x="1582.4333333333334" y="301.3666666666667" type="curve"/>
      <point x="1643.8000000000002" y="313.2666666666667" type="line"/>
      <point x="1625.8333333333333" y="489.3666666666667"/>
      <point x="1487.7333333333333" y="568.7333333333333"/>
      <point x="1346.2333333333333" y="568.7333333333333" type="curve" smooth="yes"/>
      <point x="1143.5333333333333" y="568.7333333333333"/>
      <point x="1032.9333333333334" y="430.73333333333335"/>
      <point x="1032.9333333333334" y="263.9666666666667" type="curve" smooth="yes"/>
      <point x="1032.9333333333334" y="109.93333333333334"/>
      <point x="1117.3333333333333" y="-5.0"/>
    </contour>
    <contour>
      <point x="1582.4333333333334" y="0.0" type="line"/>
      <point x="1737.2" y="0.0" type="line"/>
      <point x="1737.2" y="503.1" type="line"/>
      <point x="1907.0666666666666" y="503.1" type="line"/>
      <point x="1907.0666666666666" y="0.0" type="line"/>
      <point x="2061.4666666666667" y="0.0" type="line"/>
      <point x="2061.4666666666667" y="503.1" type="line"/>
      <point x="2199.0333333333333" y="503.1" type="line"/>
      <point x="2199.0333333333333" y="563.7333333333333" type="line"/>
      <point x="1616.4333333333334" y="563.7333333333333" type="line"/>
      <point x="1616.4333333333334" y="355.8333333333333" type="line"/>
      <point x="1582.4333333333334" y="368.26666666666665" type="line"/>
    </contour>
    <component base="o-tamil"/>
  </outline>
</glyph>
<glyph name="nga-tamil" format="2">
  <advance width="1003.0333333333333"/>
  <unicode hex="0B99"/>
  <note>
uni0B99
</note>
  <anchor x="499.3333333333333" y="0.0" name="bottom"/>
  <anchor x="541.0666666666666" y="563.7333333333333" name="imatra"/>
  <anchor x="498.8666666666667" y="0.0" name="nukta"/>
  <anchor x="504.4" y="563.7333333333333" name="top"/>
  <anchor x="500.3333333333333" y="563.7333333333333" name="vedic"/>
  <outline>
    <contour>
      <point x="80.46666666666667" y="0.0" type="line"/>
      <point x="144.93333333333334" y="0.0" type="line"/>
      <point x="144.93333333333334" y="503.1" type="line"/>
      <point x="273.4" y="503.1" type="line"/>
      <point x="273.4" y="178.66666666666666" type="line"/>
      <point x="415.1666666666667" y="178.66666666666666" type="line"/>
      <point x="415.1666666666667" y="227.26666666666665" type="line" smooth="yes"/>
      <point x="415.1666666666667" y="265.9666666666667"/>
      <point x="439.3" y="287.96666666666664"/>
      <point x="470.26666666666665" y="287.96666666666664" type="curve" smooth="yes"/>
      <point x="503.23333333333335" y="287.96666666666664"/>
      <point x="527.4666666666667" y="261.06666666666666"/>
      <point x="527.4666666666667" y="205.86666666666667" type="curve" smooth="yes"/>
      <point x="527.4666666666667" y="125.23333333333333"/>
      <point x="480.6333333333334" y="61.0"/>
      <point x="391.1" y="61.0" type="curve" smooth="yes"/>
      <point x="273.4" y="61.0" type="line"/>
      <point x="273.4" y="0.0" type="line"/>
      <point x="922.3" y="0.0" type="line"/>
      <point x="922.3" y="563.7333333333333" type="line"/>
      <point x="765.0" y="563.7333333333333" type="line"/>
      <point x="765.0" y="61.0" type="line"/>
      <point x="544.0666666666666" y="61.0" type="line"/>
      <point x="606.1" y="77.03333333333333"/>
      <point x="671.8666666666667" y="132.96666666666667"/>
      <point x="671.8666666666667" y="232.66666666666666" type="curve" smooth="yes"/>
      <point x="671.8666666666667" y="325.4"/>
      <point x="615.9333333333333" y="385.2"/>
      <point x="531.6333333333333" y="385.2" type="curve" smooth="yes"/>
      <point x="476.8333333333333" y="385.2"/>
      <point x="438.7" y="357.3666666666667"/>
      <point x="420.8" y="330.0" type="curve"/>
      <point x="420.8" y="503.1" type="line"/>
      <point x="565.3333333333334" y="503.1" type="line"/>
      <point x="565.3333333333334" y="563.7333333333333" type="line"/>
      <point x="80.46666666666667" y="563.7333333333333" type="line"/>
    </contour>
  </outline>
</glyph>
<glyph name="ca-tamil" format="2">
  <advance width="722.4333333333333"/>
  <unicode hex="0B9A"/>
  <note>
uni0B9A
</note>
  <anchor x="356.4" y="0.0" name="bottom"/>
  <anchor x="546.0666666666667" y="563.7333333333333" name="imatra"/>
  <anchor x="352.3666666666667" y="0.0" name="nukta"/>
  <anchor x="446.4" y="563.7333333333333" name="top"/>
  <anchor x="383.40000000000003" y="563.7333333333333" name="vedic"/>
  <outline>
    <contour>
      <point x="264.56666666666666" y="-4.0" type="curve" smooth="yes"/>
      <point x="438.1" y="-4.0"/>
      <point x="528.8666666666667" y="81.2"/>
      <point x="528.8666666666667" y="217.83333333333334" type="curve" smooth="yes"/>
      <point x="528.8666666666667" y="269.26666666666665" type="line"/>
      <point x="678.3666666666667" y="269.26666666666665" type="line"/>
      <point x="678.3666666666667" y="330.26666666666665" type="line"/>
      <point x="528.8666666666667" y="330.26666666666665" type="line"/>
      <point x="528.8666666666667" y="502.73333333333335" type="line"/>
      <point x="678.3666666666667" y="502.73333333333335" type="line"/>
      <point x="678.3666666666667" y="563.7333333333333" type="line"/>
      <point x="178.06666666666666" y="563.7333333333333" type="line"/>
      <point x="178.06666666666666" y="306.6666666666667" type="line"/>
      <point x="244.96666666666667" y="306.6666666666667" type="line"/>
      <point x="244.96666666666667" y="502.73333333333335" type="line"/>
      <point x="372.8333333333333" y="502.73333333333335" type="line"/>
      <point x="372.8333333333333" y="330.26666666666665" type="line"/>
      <point x="225.1" y="330.26666666666665" type="line" smooth="yes"/>
      <point x="119.86666666666666" y="330.26666666666665"/>
      <point x="53.13333333333333" y="262.2"/>
      <point x="53.13333333333333" y="170.0" type="curve" smooth="yes"/>
      <point x="53.13333333333333" y="65.46666666666667"/>
      <point x="129.70000000000002" y="-4.0"/>
    </contour>
    <contour>
      <point x="241.8" y="62.1" type="curve" smooth="yes"/>
      <point x="161.56666666666666" y="62.1"/>
      <point x="122.93333333333334" y="104.8"/>
      <point x="122.93333333333334" y="168.63333333333333" type="curve" smooth="yes"/>
      <point x="122.93333333333334" y="226.1"/>
      <point x="156.8" y="269.26666666666665"/>
      <point x="234.79999999999998" y="269.26666666666665" type="curve" smooth="yes"/>
      <point x="372.8333333333333" y="269.26666666666665" type="line"/>
      <point x="372.8333333333333" y="207.1" type="line" smooth="yes"/>
      <point x="372.8333333333333" y="111.03333333333333"/>
      <point x="318.79999999999995" y="62.1"/>
    </contour>
  </outline>
</glyph>
<glyph name="ja-tamil" format="2">
  <advance width="997.0333333333334"/>
  <unicode hex="0B9C"/>
  <note>
uni0B9C
</note>
  <anchor x="498.46666666666664" y="0.0" name="bottom"/>
  <anchor x="497.73333333333335" y="-320.3333333333333" name="nukta"/>
  <anchor x="515.3333333333334" y="563.7333333333333" name="top"/>
  <anchor x="509.33333333333337" y="563.7333333333333" name="vedic"/>
  <outline>
    <contour>
      <point x="276.6333333333333" y="-320.3333333333333" type="curve" smooth="yes"/>
      <point x="522.1333333333333" y="-320.3333333333333"/>
      <point x="509.53333333333336" y="-22.466666666666665"/>
      <point x="692.0" y="-22.466666666666665" type="curve" smooth="yes"/>
      <point x="756.7666666666667" y="-22.466666666666665"/>
      <point x="797.6999999999999" y="-67.63333333333334"/>
      <point x="797.6999999999999" y="-132.0" type="curve" smooth="yes"/>
      <point x="797.6999999999999" y="-203.0"/>
      <point x="761.2666666666667" y="-253.9666666666667"/>
      <point x="688.4333333333334" y="-253.9666666666667" type="curve" smooth="yes"/>
      <point x="659.0999999999999" y="-253.9666666666667"/>
      <point x="629.1333333333333" y="-244.70000000000002"/>
      <point x="590.4666666666667" y="-221.73333333333335" type="curve"/>
      <point x="568.2666666666667" y="-265.0333333333333" type="line"/>
      <point x="627.1666666666667" y="-306.3333333333333"/>
      <point x="684.0" y="-320.3333333333333"/>
      <point x="740.9" y="-320.3333333333333" type="curve" smooth="yes"/>
      <point x="861.2666666666667" y="-320.3333333333333"/>
      <point x="947.3333333333334" y="-251.10000000000002"/>
      <point x="947.3333333333334" y="-142.6" type="curve" smooth="yes"/>
      <point x="947.3333333333334" y="-17.266666666666666"/>
      <point x="868.1333333333333" y="43.36666666666667"/>
      <point x="742.4333333333333" y="43.36666666666667" type="curve" smooth="yes"/>
      <point x="475.5" y="43.36666666666667"/>
      <point x="490.53333333333336" y="-255.66666666666669"/>
      <point x="311.73333333333335" y="-255.66666666666669" type="curve" smooth="yes"/>
      <point x="243.9" y="-255.66666666666669"/>
      <point x="203.5" y="-202.46666666666667"/>
      <point x="203.5" y="-120.7" type="curve" smooth="yes"/>
      <point x="203.5" y="31.9"/>
      <point x="321.2666666666667" y="63.7"/>
      <point x="537.9666666666667" y="85.8" type="curve" smooth="yes"/>
      <point x="774.1333333333333" y="109.8"/>
      <point x="947.7" y="160.66666666666666"/>
      <point x="947.7" y="351.1666666666667" type="curve" smooth="yes"/>
      <point x="947.7" y="498.46666666666664"/>
      <point x="853.2333333333333" y="569.3666666666667"/>
      <point x="715.3666666666667" y="569.3666666666667" type="curve" smooth="yes"/>
      <point x="622.2" y="569.3666666666667"/>
      <point x="546.3333333333334" y="527.1333333333333"/>
      <point x="522.0666666666666" y="438.6333333333333" type="curve"/>
      <point x="490.6333333333333" y="525.1333333333333"/>
      <point x="415.43333333333334" y="569.3666666666667"/>
      <point x="307.6333333333333" y="569.3666666666667" type="curve" smooth="yes"/>
      <point x="163.93333333333334" y="569.3666666666667"/>
      <point x="55.333333333333336" y="488.6"/>
      <point x="55.333333333333336" y="350.53333333333336" type="curve" smooth="yes"/>
      <point x="55.333333333333336" y="235.0"/>
      <point x="126.0" y="157.16666666666666"/>
      <point x="232.53333333333333" y="157.16666666666666" type="curve" smooth="yes"/>
      <point x="319.53333333333336" y="157.16666666666666"/>
      <point x="382.3" y="196.56666666666666"/>
      <point x="382.3" y="284.8" type="curve" smooth="yes"/>
      <point x="382.3" y="367.06666666666666"/>
      <point x="331.1666666666667" y="410.3666666666667"/>
      <point x="256.8666666666667" y="410.3666666666667" type="curve" smooth="yes"/>
      <point x="189.9" y="410.3666666666667"/>
      <point x="124.16666666666667" y="366.46666666666664"/>
      <point x="117.16666666666667" y="238.66666666666666" type="curve"/>
      <point x="149.6" y="221.53333333333333" type="line"/>
      <point x="156.4" y="317.26666666666665"/>
      <point x="193.53333333333333" y="347.70000000000005"/>
      <point x="230.03333333333333" y="347.70000000000005" type="curve" smooth="yes"/>
      <point x="256.6666666666667" y="347.70000000000005"/>
      <point x="277.9" y="326.8666666666667"/>
      <point x="277.9" y="290.5" type="curve" smooth="yes"/>
      <point x="277.9" y="246.8"/>
      <point x="252.76666666666668" y="219.9"/>
      <point x="214.63333333333333" y="219.9" type="curve" smooth="yes"/>
      <point x="156.73333333333332" y="219.9"/>
      <point x="124.66666666666666" y="263.3333333333333"/>
      <point x="124.66666666666666" y="349.43333333333334" type="curve" smooth="yes"/>
      <point x="124.66666666666666" y="452.8"/>
      <point x="202.93333333333334" y="507.0"/>
      <point x="294.40000000000003" y="507.0" type="curve" smooth="yes"/>
      <point x="389.66666666666663" y="507.0"/>
      <point x="444.7" y="461.73333333333335"/>
      <point x="444.7" y="364.56666666666666" type="curve" smooth="yes"/>
      <point x="444.7" y="214.8" type="line"/>
      <point x="590.3666666666667" y="214.8" type="line"/>
      <point x="590.3666666666667" y="379.1333333333333" type="line" smooth="yes"/>
      <point x="590.3666666666667" y="459.1"/>
      <point x="628.6" y="506.6333333333333"/>
      <point x="692.9000000000001" y="506.6333333333333" type="curve" smooth="yes"/>
      <point x="760.4666666666667" y="506.6333333333333"/>
      <point x="794.1666666666667" y="458.06666666666666"/>
      <point x="794.1666666666667" y="365.7" type="curve" smooth="yes"/>
      <point x="794.1666666666667" y="213.83333333333334"/>
      <point x="691.9333333333334" y="146.2"/>
      <point x="432.0" y="122.0" type="curve" smooth="yes"/>
      <point x="248.26666666666665" y="105.26666666666667"/>
      <point x="49.96666666666667" y="75.03333333333333"/>
      <point x="49.96666666666667" y="-113.73333333333333" type="curve" smooth="yes"/>
      <point x="49.96666666666667" y="-251.8"/>
      <point x="147.63333333333335" y="-320.3333333333333"/>
    </contour>
  </outline>
</glyph>
<glyph name="tta-tamil" format="2">
  <advance width="877.9"/>
  <unicode hex="0B9F"/>
  <note>
uni0B9F
</note>
  <anchor x="442.43333333333334" y="0.0" name="bottom"/>
  <anchor x="442.43333333333334" y="0.0" name="nukta"/>
  <anchor x="504.0" y="563.7333333333333" name="top"/>
  <anchor x="473.26666666666665" y="563.7333333333333" name="vedic"/>
  <outline>
    <contour>
      <point x="80.46666666666667" y="0.0" type="line"/>
      <point x="866.8" y="0.0" type="line"/>
      <point x="866.8" y="61.0" type="line"/>
      <point x="237.76666666666665" y="61.0" type="line"/>
      <point x="237.76666666666665" y="563.7333333333333" type="line"/>
      <point x="80.46666666666667" y="563.7333333333333" type="line"/>
    </contour>
  </outline>
</glyph>
<glyph name="nna-tamil" format="2">
  <advance width="1752.5"/>
  <unicode hex="0BA3"/>
  <note>
uni0BA3
</note>
  <anchor x="934.9333333333333" y="0.0" name="bottom"/>
  <anchor x="1598.2666666666667" y="563.7333333333333" name="imatra"/>
  <anchor x="934.5666666666666" y="0.0" name="nukta"/>
  <anchor x="924.9333333333334" y="563.7333333333333" name="top"/>
  <anchor x="894.4333333333333" y="563.7333333333333" name="vedic"/>
  <outline>
    <contour>
      <point x="718.4" y="-4.633333333333334" type="curve" smooth="yes"/>
      <point x="830.4333333333334" y="-4.633333333333334"/>
      <point x="901.0333333333334" y="69.53333333333335"/>
      <point x="901.0333333333334" y="199.5" type="curve" smooth="yes"/>
      <point x="901.0333333333334" y="415.7"/>
      <point x="701.2666666666667" y="568.7333333333333"/>
      <point x="442.9" y="568.7333333333333" type="curve" smooth="yes"/>
      <point x="223.03333333333333" y="568.7333333333333"/>
      <point x="49.96666666666667" y="451.43333333333334"/>
      <point x="49.96666666666667" y="240.53333333333333" type="curve" smooth="yes"/>
      <point x="49.96666666666667" y="90.93333333333334"/>
      <point x="138.8" y="-5.0"/>
      <point x="273.43333333333334" y="-5.0" type="curve" smooth="yes"/>
      <point x="389.53333333333336" y="-5.0"/>
      <point x="461.8666666666666" y="65.06666666666668"/>
      <point x="461.8666666666666" y="161.46666666666664" type="curve" smooth="yes"/>
      <point x="461.8666666666666" y="250.29999999999998"/>
      <point x="403.9" y="323.0"/>
      <point x="300.43333333333334" y="323.0" type="curve" smooth="yes"/>
      <point x="189.13333333333333" y="323.0"/>
      <point x="120.03333333333333" y="235.6"/>
      <point x="118.93333333333334" y="110.03333333333333" type="curve"/>
      <point x="159.73333333333332" y="88.46666666666667" type="line"/>
      <point x="163.0" y="186.66666666666666"/>
      <point x="202.56666666666666" y="240.7"/>
      <point x="256.96666666666664" y="240.7" type="curve" smooth="yes"/>
      <point x="308.1666666666667" y="240.7"/>
      <point x="332.5" y="199.9"/>
      <point x="332.5" y="154.9" type="curve" smooth="yes"/>
      <point x="332.5" y="105.33333333333334"/>
      <point x="304.3666666666667" y="61.733333333333334"/>
      <point x="243.0" y="61.733333333333334" type="curve" smooth="yes"/>
      <point x="163.93333333333334" y="61.733333333333334"/>
      <point x="113.33333333333334" y="128.56666666666666"/>
      <point x="113.33333333333334" y="239.8" type="curve" smooth="yes"/>
      <point x="113.33333333333334" y="409.40000000000003"/>
      <point x="244.79999999999998" y="507.0"/>
      <point x="427.9" y="507.0" type="curve" smooth="yes"/>
      <point x="637.7333333333332" y="507.0"/>
      <point x="761.2666666666667" y="384.8666666666667"/>
      <point x="761.2666666666667" y="193.4" type="curve" smooth="yes"/>
      <point x="761.2666666666667" y="111.23333333333333"/>
      <point x="733.6666666666667" y="65.26666666666667"/>
      <point x="683.9000000000001" y="65.26666666666667" type="curve" smooth="yes"/>
      <point x="634.9666666666666" y="65.26666666666667"/>
      <point x="605.0" y="113.76666666666667"/>
      <point x="605.0" y="197.3" type="curve" smooth="yes"/>
      <point x="605.0" y="367.56666666666666"/>
      <point x="729.4" y="507.0"/>
      <point x="919.9333333333333" y="507.0" type="curve" smooth="yes"/>
      <point x="1108.9" y="507.0"/>
      <point x="1202.0" y="368.53333333333336"/>
      <point x="1202.0" y="193.4" type="curve" smooth="yes"/>
      <point x="1202.0" y="114.39999999999999"/>
      <point x="1175.9333333333334" y="65.26666666666667"/>
      <point x="1125.9" y="65.26666666666667" type="curve" smooth="yes"/>
      <point x="1075.3333333333335" y="65.26666666666667"/>
      <point x="1045.3666666666668" y="111.23333333333333"/>
      <point x="1045.3666666666668" y="194.76666666666668" type="curve" smooth="yes"/>
      <point x="1045.3666666666668" y="376.1333333333333"/>
      <point x="1171.6999999999998" y="503.1"/>
      <point x="1376.8666666666668" y="503.1" type="curve" smooth="yes"/>
      <point x="1735.1333333333332" y="503.1" type="line"/>
      <point x="1735.1333333333332" y="563.7333333333333" type="line"/>
      <point x="1370.8666666666666" y="563.7333333333333" type="line" smooth="yes"/>
      <point x="1118.8" y="563.7333333333333"/>
      <point x="981.7333333333333" y="393.46666666666664"/>
      <point x="981.7333333333333" y="201.03333333333333" type="curve" smooth="yes"/>
      <point x="981.7333333333333" y="71.8"/>
      <point x="1040.0333333333333" y="-4.633333333333334"/>
      <point x="1156.2333333333333" y="-4.633333333333334" type="curve" smooth="yes"/>
      <point x="1269.5333333333335" y="-4.633333333333334"/>
      <point x="1341.7666666666667" y="68.9"/>
      <point x="1341.7666666666667" y="198.23333333333332" type="curve" smooth="yes"/>
      <point x="1341.7666666666667" y="412.5"/>
      <point x="1165.0" y="568.7333333333333"/>
      <point x="928.9666666666667" y="568.7333333333333" type="curve" smooth="yes"/>
      <point x="702.0333333333333" y="568.7333333333333"/>
      <point x="541.0" y="398.2"/>
      <point x="541.0" y="201.03333333333333" type="curve" smooth="yes"/>
      <point x="541.0" y="71.8"/>
      <point x="603.4666666666667" y="-4.633333333333334"/>
    </contour>
    <contour>
      <point x="1443.1666666666667" y="0.0" type="line"/>
      <point x="1597.5666666666668" y="0.0" type="line"/>
      <point x="1597.5666666666668" y="532.2" type="line"/>
      <point x="1443.1666666666667" y="532.2" type="line"/>
    </contour>
  </outline>
</glyph>
<glyph name="na-tamil" format="2">
  <advance width="798.5333333333334"/>
  <unicode hex="0BA8"/>
  <note>
uni0BA8
</note>
  <anchor x="375.56666666666666" y="0.0" name="bottom"/>
  <anchor x="520.3666666666667" y="563.7333333333333" name="imatra"/>
  <anchor x="397.3" y="-218.1" name="nukta"/>
  <anchor x="382.26666666666665" y="563.7333333333333" name="top"/>
  <anchor x="411.4" y="563.7333333333333" name="vedic"/>
  <outline>
    <contour>
      <point x="200.73333333333335" y="-272.6333333333333" type="curve"/>
      <point x="200.73333333333335" y="-186.63333333333333"/>
      <point x="223.53333333333333" y="-132.1"/>
      <point x="330.83333333333337" y="-132.1" type="curve" smooth="yes"/>
      <point x="422.5333333333333" y="-132.1" type="line" smooth="yes"/>
      <point x="628.6" y="-132.1"/>
      <point x="748.8333333333334" y="-54.46666666666667"/>
      <point x="748.8333333333334" y="133.5" type="curve" smooth="yes"/>
      <point x="748.8333333333334" y="277.1"/>
      <point x="667.1999999999999" y="344.3"/>
      <point x="579.0333333333334" y="344.3" type="curve" smooth="yes"/>
      <point x="508.6333333333333" y="344.3"/>
      <point x="471.2" y="307.7666666666667"/>
      <point x="453.00000000000006" y="275.6666666666667" type="curve"/>
      <point x="453.00000000000006" y="503.1" type="line"/>
      <point x="607.4333333333333" y="503.1" type="line"/>
      <point x="607.4333333333333" y="563.7333333333333" type="line"/>
      <point x="89.33333333333334" y="563.7333333333333" type="line"/>
      <point x="89.33333333333334" y="0.0" type="line"/>
      <point x="157.5" y="0.0" type="line"/>
      <point x="157.5" y="503.1" type="line"/>
      <point x="296.3333333333333" y="503.1" type="line"/>
      <point x="296.3333333333333" y="0.0" type="line"/>
      <point x="453.00000000000006" y="0.0" type="line"/>
      <point x="453.00000000000006" y="184.36666666666667" type="line" smooth="yes"/>
      <point x="453.00000000000006" y="225.93333333333334"/>
      <point x="474.3666666666667" y="255.29999999999998"/>
      <point x="514.8" y="255.29999999999998" type="curve" smooth="yes"/>
      <point x="560.0666666666667" y="255.29999999999998"/>
      <point x="594.5666666666667" y="219.36666666666667"/>
      <point x="594.5666666666667" y="120.23333333333333" type="curve" smooth="yes"/>
      <point x="594.5666666666667" y="-5.066666666666666"/>
      <point x="546.5333333333333" y="-79.46666666666665"/>
      <point x="404.8333333333333" y="-79.46666666666665" type="curve" smooth="yes"/>
      <point x="272.70000000000005" y="-79.46666666666665" type="line" smooth="yes"/>
      <point x="169.2" y="-79.46666666666665"/>
      <point x="76.43333333333334" y="-100.0"/>
      <point x="76.43333333333334" y="-185.0" type="curve" smooth="yes"/>
      <point x="76.43333333333334" y="-244.63333333333333"/>
      <point x="126.76666666666667" y="-272.6333333333333"/>
    </contour>
  </outline>
</glyph>
<glyph name="pa-tamil" format="2">
  <advance width="882.7666666666668"/>
  <unicode hex="0BAA"/>
  <note>
uni0BAA
</note>
  <anchor x="443.0333333333333" y="0.0" name="bottom"/>
  <anchor x="793.4" y="563.7333333333333" name="imatra"/>
  <anchor x="443.0333333333333" y="0.0" name="nukta"/>
  <anchor x="440.8666666666666" y="563.7333333333333" name="top"/>
  <anchor x="441.56666666666666" y="563.7333333333333" name="vedic"/>
  <outline>
    <contour>
      <point x="80.46666666666667" y="0.0" type="line"/>
      <point x="802.0333333333333" y="0.0" type="line"/>
      <point x="802.0333333333333" y="563.7333333333333" type="line"/>
      <point x="645.1" y="563.7333333333333" type="line"/>
      <point x="645.1" y="61.0" type="line"/>
      <point x="235.23333333333332" y="61.0" type="line"/>
      <point x="235.23333333333332" y="563.7333333333333" type="line"/>
      <point x="80.46666666666667" y="563.7333333333333" type="line"/>
    </contour>
  </outline>
</glyph>
<glyph name="ma-tamil" format="2">
  <advance width="890.3000000000001"/>
  <unicode hex="0BAE"/>
  <note>
uni0BAE
</note>
  <anchor x="443.00000000000006" y="0.0" name="bottom"/>
  <anchor x="823.5" y="563.7333333333333" name="imatra"/>
  <anchor x="443.3666666666667" y="0.0" name="nukta"/>
  <anchor x="480.1333333333333" y="563.7333333333333" name="top"/>
  <anchor x="459.7333333333333" y="563.7333333333333" name="vedic"/>
  <outline>
    <contour>
      <point x="80.46666666666667" y="0.0" type="line"/>
      <point x="684.7666666666667" y="0.0" type="line" smooth="yes"/>
      <point x="792.5" y="0.0"/>
      <point x="836.0666666666667" y="75.4"/>
      <point x="836.0666666666667" y="233.36666666666667" type="curve" smooth="yes"/>
      <point x="836.0666666666667" y="452.8666666666667"/>
      <point x="742.9666666666667" y="569.3666666666667"/>
      <point x="601.6333333333333" y="569.3666666666667" type="curve" smooth="yes"/>
      <point x="483.3333333333333" y="569.3666666666667"/>
      <point x="417.56666666666666" y="495.6666666666667"/>
      <point x="417.56666666666666" y="383.1666666666667" type="curve" smooth="yes"/>
      <point x="417.56666666666666" y="61.0" type="line"/>
      <point x="237.76666666666665" y="61.0" type="line"/>
      <point x="237.76666666666665" y="563.7333333333333" type="line"/>
      <point x="80.46666666666667" y="563.7333333333333" type="line"/>
    </contour>
    <contour>
      <point x="573.6" y="61.0" type="line"/>
      <point x="573.6" y="391.6" type="line" smooth="yes"/>
      <point x="573.6" y="465.7333333333333"/>
      <point x="600.4333333333333" y="496.43333333333334"/>
      <point x="644.3666666666667" y="496.43333333333334" type="curve" smooth="yes"/>
      <point x="701.5" y="496.43333333333334"/>
      <point x="768.1666666666666" y="413.3333333333333"/>
      <point x="768.1666666666666" y="235.26666666666668" type="curve" smooth="yes"/>
      <point x="768.1666666666666" y="118.4"/>
      <point x="747.0666666666667" y="61.0"/>
      <point x="679.7666666666667" y="61.0" type="curve" smooth="yes"/>
    </contour>
  </outline>
</glyph>
<glyph name="ya-tamil" format="2">
  <advance width="978.7333333333333"/>
  <unicode hex="0BAF"/>
  <note>
uni0BAF
</note>
  <anchor x="537.6333333333333" y="0.0" name="bottom"/>
  <anchor x="889.8333333333334" y="563.7333333333333" name="imatra"/>
  <anchor x="537.2666666666667" y="0.0" name="nukta"/>
  <anchor x="523.3333333333333" y="563.7333333333333" name="top"/>
  <anchor x="488.83333333333337" y="563.7333333333333" name="vedic"/>
  <outline>
    <contour>
      <point x="240.6" y="-9.266666666666667" type="curve" smooth="yes"/>
      <point x="323.0333333333333" y="-9.266666666666667"/>
      <point x="362.2" y="32.5"/>
      <point x="380.5" y="61.9" type="curve"/>
      <point x="380.5" y="0.0" type="line"/>
      <point x="898.0" y="0.0" type="line"/>
      <point x="898.0" y="563.7333333333333" type="line"/>
      <point x="741.3333333333334" y="563.7333333333333" type="line"/>
      <point x="741.3333333333334" y="61.0" type="line"/>
      <point x="521.3333333333334" y="61.0" type="line"/>
      <point x="521.3333333333334" y="563.7333333333333" type="line"/>
      <point x="367.7666666666667" y="563.7333333333333" type="line"/>
      <point x="367.7666666666667" y="144.26666666666665" type="line" smooth="yes"/>
      <point x="367.7666666666667" y="94.89999999999999"/>
      <point x="338.43333333333334" y="63.833333333333336"/>
      <point x="298.40000000000003" y="63.833333333333336" type="curve" smooth="yes"/>
      <point x="261.1666666666667" y="63.833333333333336"/>
      <point x="234.03333333333333" y="88.16666666666666"/>
      <point x="234.03333333333333" y="148.86666666666667" type="curve" smooth="yes"/>
      <point x="234.03333333333333" y="563.7333333333333" type="line"/>
      <point x="77.73333333333333" y="563.7333333333333" type="line"/>
      <point x="77.73333333333333" y="161.23333333333332" type="line" smooth="yes"/>
      <point x="77.73333333333333" y="53.766666666666666"/>
      <point x="140.70000000000002" y="-9.266666666666667"/>
    </contour>
  </outline>
</glyph>
<glyph name="ra-tamil" format="2">
  <advance width="631.5999999999999"/>
  <unicode hex="0BB0"/>
  <note>
uni0BB0
</note>
  <anchor x="312.73333333333335" y="0.0" name="bottom"/>
  <anchor x="522.9333333333333" y="563.7333333333333" name="imatra"/>
  <anchor x="312.73333333333335" y="-227.26666666666668" name="nukta"/>
  <anchor x="325.93333333333334" y="563.7333333333333" name="top"/>
  <anchor x="346.43333333333334" y="563.7333333333333" name="vedic"/>
  <outline>
    <contour>
      <point x="160.16666666666669" y="-258.0" type="line"/>
      <point x="476.6666666666667" y="38.83333333333333" type="line"/>
      <point x="476.6666666666667" y="503.1" type="line"/>
      <point x="614.2333333333333" y="503.1" type="line"/>
      <point x="614.2333333333333" y="563.7333333333333" type="line"/>
      <point x="80.46666666666667" y="563.7333333333333" type="line"/>
      <point x="80.46666666666667" y="0.0" type="line"/>
      <point x="149.0" y="0.0" type="line"/>
      <point x="149.0" y="503.1" type="line"/>
      <point x="318.1" y="503.1" type="line"/>
      <point x="318.1" y="-17.266666666666666" type="line"/>
      <point x="114.96666666666667" y="-210.03333333333333" type="line"/>
    </contour>
  </outline>
</glyph>
<glyph name="rra-tamil" format="2">
  <advance width="877.6333333333333"/>
  <unicode hex="0BB1"/>
  <note>
uni0BB1
</note>
  <anchor x="437.5" y="0.0" name="bottom"/>
  <anchor x="461.16666666666663" y="-186.83333333333334" name="nukta"/>
  <anchor x="437.9666666666667" y="563.7333333333333" name="top"/>
  <anchor x="460.79999999999995" y="563.7333333333333" name="vedic"/>
  <outline>
    <contour>
      <point x="206.16666666666666" y="-267.6333333333333" type="curve"/>
      <point x="206.16666666666666" y="-184.1"/>
      <point x="227.86666666666665" y="-128.1"/>
      <point x="336.9" y="-128.1" type="curve" smooth="yes"/>
      <point x="434.33333333333337" y="-128.1" type="line" smooth="yes"/>
      <point x="680.9666666666667" y="-128.1"/>
      <point x="839.3666666666667" y="-16.53333333333333"/>
      <point x="839.3666666666667" y="245.26666666666665" type="curve" smooth="yes"/>
      <point x="839.3666666666667" y="464.4"/>
      <point x="731.1999999999999" y="568.7333333333333"/>
      <point x="582.2333333333333" y="568.7333333333333" type="curve" smooth="yes"/>
      <point x="476.53333333333336" y="568.7333333333333"/>
      <point x="419.6333333333333" y="515.6333333333333"/>
      <point x="397.3666666666667" y="458.3666666666667" type="curve"/>
      <point x="378.3666666666667" y="518.4333333333334"/>
      <point x="330.93333333333334" y="568.1"/>
      <point x="246.46666666666667" y="568.1" type="curve" smooth="yes"/>
      <point x="156.16666666666666" y="568.1"/>
      <point x="93.93333333333334" y="511.6666666666667"/>
      <point x="93.93333333333334" y="399.93333333333334" type="curve" smooth="yes"/>
      <point x="93.93333333333334" y="0.0" type="line"/>
      <point x="162.1" y="0.0" type="line"/>
      <point x="162.1" y="392.40000000000003" type="line" smooth="yes"/>
      <point x="162.1" y="468.5"/>
      <point x="185.9" y="502.46666666666664"/>
      <point x="240.73333333333332" y="502.46666666666664" type="curve" smooth="yes"/>
      <point x="291.96666666666664" y="502.46666666666664"/>
      <point x="316.93333333333334" y="463.5"/>
      <point x="316.93333333333334" y="390.3" type="curve" smooth="yes"/>
      <point x="316.93333333333334" y="0.0" type="line"/>
      <point x="474.43333333333334" y="0.0" type="line"/>
      <point x="474.43333333333334" y="380.1333333333333" type="line" smooth="yes"/>
      <point x="474.43333333333334" y="461.8666666666666"/>
      <point x="508.3" y="503.1"/>
      <point x="564.3333333333334" y="503.1" type="curve" smooth="yes"/>
      <point x="630.9666666666667" y="503.1"/>
      <point x="679.6" y="435.2"/>
      <point x="679.6" y="259.43333333333334" type="curve" smooth="yes"/>
      <point x="679.6" y="22.3"/>
      <point x="592.9666666666667" y="-74.36666666666667"/>
      <point x="422.5" y="-74.36666666666667" type="curve" smooth="yes"/>
      <point x="278.1333333333333" y="-74.36666666666667" type="line" smooth="yes"/>
      <point x="175.26666666666668" y="-74.36666666666667"/>
      <point x="82.5" y="-96.9"/>
      <point x="82.5" y="-183.53333333333333" type="curve" smooth="yes"/>
      <point x="82.5" y="-242.8"/>
      <point x="133.20000000000002" y="-267.6333333333333"/>
    </contour>
  </outline>
</glyph>
<glyph name="la-tamil" format="2">
  <advance width="1058.4333333333334"/>
  <unicode hex="0BB2"/>
  <note>
uni0BB2
</note>
  <anchor x="527.1999999999999" y="0.0" name="bottom"/>
  <anchor x="526.8333333333333" y="0.0" name="nukta"/>
  <anchor x="561.1" y="563.7333333333333" name="top"/>
  <anchor x="526.0333333333333" y="563.7333333333333" name="vedic"/>
  <outline>
    <contour>
      <point x="272.8" y="-5.0" type="curve" smooth="yes"/>
      <point x="389.2666666666667" y="-5.0"/>
      <point x="461.8666666666667" y="65.06666666666668"/>
      <point x="461.8666666666667" y="161.46666666666664" type="curve" smooth="yes"/>
      <point x="461.8666666666667" y="250.29999999999998"/>
      <point x="403.9" y="323.0"/>
      <point x="300.16666666666663" y="323.0" type="curve" smooth="yes"/>
      <point x="192.29999999999998" y="323.0"/>
      <point x="127.63333333333334" y="243.83333333333331"/>
      <point x="118.3" y="110.03333333333333" type="curve"/>
      <point x="159.1" y="88.46666666666667" type="line"/>
      <point x="162.36666666666667" y="186.66666666666666"/>
      <point x="201.93333333333334" y="240.7"/>
      <point x="256.7" y="240.7" type="curve" smooth="yes"/>
      <point x="307.53333333333336" y="240.7"/>
      <point x="332.2333333333333" y="199.9"/>
      <point x="332.2333333333333" y="154.9" type="curve" smooth="yes"/>
      <point x="332.2333333333333" y="105.33333333333334"/>
      <point x="304.1" y="61.733333333333334"/>
      <point x="242.36666666666667" y="61.733333333333334" type="curve" smooth="yes"/>
      <point x="161.13333333333333" y="61.733333333333334"/>
      <point x="113.33333333333334" y="147.56666666666666"/>
      <point x="113.33333333333334" y="261.96666666666664" type="curve" smooth="yes"/>
      <point x="113.33333333333334" y="405.4"/>
      <point x="206.70000000000002" y="505.9"/>
      <point x="354.0" y="505.9" type="curve" smooth="yes"/>
      <point x="490.66666666666663" y="505.9"/>
      <point x="558.8333333333334" y="426.1666666666667"/>
      <point x="559.2" y="285.1666666666667" type="curve" smooth="yes"/>
      <point x="559.2" y="182.56666666666666" type="line" smooth="yes"/>
      <point x="559.2" y="66.13333333333333"/>
      <point x="630.6333333333333" y="-3.9000000000000004"/>
      <point x="762.0666666666667" y="-3.9000000000000004" type="curve" smooth="yes"/>
      <point x="907.9666666666667" y="-3.9000000000000004"/>
      <point x="1004.2" y="118.56666666666666"/>
      <point x="1004.2" y="298.3333333333333" type="curve" smooth="yes"/>
      <point x="1004.2" y="395.46666666666664"/>
      <point x="976.1999999999999" y="475.3666666666667"/>
      <point x="908.8" y="568.1" type="curve"/>
      <point x="856.6" y="533.9333333333333" type="line"/>
      <point x="916.0" y="451.3"/>
      <point x="940.4666666666667" y="382.9"/>
      <point x="940.4666666666667" y="290.73333333333335" type="curve" smooth="yes"/>
      <point x="940.4666666666667" y="162.66666666666666"/>
      <point x="871.9" y="61.5"/>
      <point x="796.9" y="61.5" type="curve" smooth="yes"/>
      <point x="743.2666666666667" y="61.5"/>
      <point x="714.9666666666667" y="97.0"/>
      <point x="714.9666666666667" y="173.4" type="curve" smooth="yes"/>
      <point x="714.9666666666667" y="294.06666666666666" type="line" smooth="yes"/>
      <point x="714.9666666666667" y="469.93333333333334"/>
      <point x="573.2666666666667" y="568.7333333333333"/>
      <point x="379.8666666666667" y="568.7333333333333" type="curve" smooth="yes"/>
      <point x="167.33333333333334" y="568.7333333333333"/>
      <point x="49.96666666666667" y="436.1333333333334"/>
      <point x="49.96666666666667" y="263.9666666666667" type="curve" smooth="yes"/>
      <point x="49.96666666666667" y="109.93333333333334"/>
      <point x="134.73333333333335" y="-5.0"/>
    </contour>
  </outline>
</glyph>
<glyph name="lla-tamil" format="2">
  <advance width="1233.4333333333334"/>
  <unicode hex="0BB3"/>
  <note>
uni0BB3
</note>
  <anchor x="658.4666666666667" y="0.0" name="bottom"/>
  <anchor x="1081.7666666666667" y="563.7333333333333" name="imatra"/>
  <anchor x="659.5666666666667" y="0.0" name="nukta"/>
  <anchor x="668.7333333333333" y="563.7333333333333" name="top"/>
  <anchor x="633.9333333333333" y="563.7333333333333" name="vedic"/>
  <outline>
    <contour>
      <point x="272.8" y="-5.0" type="curve" smooth="yes"/>
      <point x="389.2666666666667" y="-5.0"/>
      <point x="461.8666666666667" y="65.06666666666668"/>
      <point x="461.8666666666667" y="161.46666666666664" type="curve" smooth="yes"/>
      <point x="461.8666666666667" y="250.29999999999998"/>
      <point x="403.9" y="323.0"/>
      <point x="300.16666666666663" y="323.0" type="curve" smooth="yes"/>
      <point x="192.3" y="323.0"/>
      <point x="127.63333333333333" y="243.83333333333331"/>
      <point x="118.3" y="110.03333333333333" type="curve"/>
      <point x="159.1" y="88.46666666666667" type="line"/>
      <point x="162.36666666666665" y="186.66666666666666"/>
      <point x="201.93333333333334" y="240.7"/>
      <point x="256.7" y="240.7" type="curve" smooth="yes"/>
      <point x="307.53333333333336" y="240.7"/>
      <point x="332.23333333333335" y="199.9"/>
      <point x="332.23333333333335" y="154.9" type="curve" smooth="yes"/>
      <point x="332.23333333333335" y="105.33333333333334"/>
      <point x="304.1" y="61.733333333333334"/>
      <point x="242.36666666666665" y="61.733333333333334" type="curve" smooth="yes"/>
      <point x="161.13333333333335" y="61.733333333333334"/>
      <point x="113.33333333333334" y="147.56666666666666"/>
      <point x="113.33333333333334" y="261.9666666666667" type="curve" smooth="yes"/>
      <point x="113.33333333333334" y="400.43333333333334"/>
      <point x="201.4" y="505.53333333333336"/>
      <point x="372.3333333333333" y="505.53333333333336" type="curve" smooth="yes"/>
      <point x="490.06666666666666" y="505.53333333333336"/>
      <point x="599.4666666666667" y="430.7"/>
      <point x="599.4666666666667" y="301.3666666666667" type="curve"/>
      <point x="660.8333333333334" y="313.2666666666667" type="line"/>
      <point x="642.8666666666667" y="489.3666666666667"/>
      <point x="505.1333333333333" y="568.7333333333333"/>
      <point x="363.6333333333333" y="568.7333333333333" type="curve" smooth="yes"/>
      <point x="160.56666666666666" y="568.7333333333333"/>
      <point x="49.96666666666667" y="430.73333333333335"/>
      <point x="49.96666666666667" y="263.9666666666667" type="curve" smooth="yes"/>
      <point x="49.96666666666667" y="109.93333333333334"/>
      <point x="134.73333333333332" y="-5.0"/>
    </contour>
    <contour>
      <point x="599.8333333333334" y="0.0" type="line"/>
      <point x="754.2333333333333" y="0.0" type="line"/>
      <point x="754.2333333333333" y="503.1" type="line"/>
      <point x="924.1" y="503.1" type="line"/>
      <point x="924.1" y="0.0" type="line"/>
      <point x="1078.5" y="0.0" type="line"/>
      <point x="1078.5" y="503.1" type="line"/>
      <point x="1216.0666666666666" y="503.1" type="line"/>
      <point x="1216.0666666666666" y="563.7333333333333" type="line"/>
      <point x="634.4666666666667" y="563.7333333333333" type="line"/>
      <point x="634.4666666666667" y="355.8333333333333" type="line"/>
      <point x="599.8333333333334" y="368.26666666666665" type="line"/>
    </contour>
  </outline>
</glyph>
<glyph name="llla-tamil" format="2">
  <advance width="890.3000000000001"/>
  <unicode hex="0BB4"/>
  <note>
uni0BB4
</note>
  <anchor x="445.20000000000005" y="0.0" name="bottom"/>
  <anchor x="446.6666666666667" y="-353.9666666666667" name="nukta"/>
  <anchor x="500.0666666666667" y="563.7333333333333" name="top"/>
  <anchor x="456.06666666666666" y="563.7333333333333" name="vedic"/>
  <anchor x="823.5" y="563.7333333333333" name="imatra"/>
  <outline>
    <contour>
      <point x="299.5" y="-381.8333333333333" type="curve" smooth="yes"/>
      <point x="534.5" y="-381.8333333333333"/>
      <point x="558.2333333333333" y="-184.13333333333333"/>
      <point x="713.5" y="-184.13333333333333" type="curve" smooth="yes"/>
      <point x="769.0666666666666" y="-184.13333333333333" type="line"/>
      <point x="769.0666666666666" y="-120.33333333333334" type="line"/>
      <point x="700.4666666666667" y="-120.33333333333334" type="line" smooth="yes"/>
      <point x="630.8333333333333" y="-120.33333333333334"/>
      <point x="573.6" y="-86.43333333333334"/>
      <point x="573.6" y="3.5" type="curve" smooth="yes"/>
      <point x="573.6" y="117.23333333333333" type="line"/>
      <point x="417.93333333333334" y="117.23333333333333" type="line"/>
      <point x="417.93333333333334" y="7.766666666666667" type="line" smooth="yes"/>
      <point x="417.93333333333334" y="-68.73333333333333"/>
      <point x="480.40000000000003" y="-129.53333333333333"/>
      <point x="562.1" y="-142.43333333333334" type="curve"/>
      <point x="562.1" y="-147.8" type="line"/>
      <point x="425.93333333333334" y="-161.73333333333335"/>
      <point x="394.03333333333336" y="-313.73333333333335"/>
      <point x="265.1666666666667" y="-313.73333333333335" type="curve" smooth="yes"/>
      <point x="204.33333333333334" y="-313.73333333333335"/>
      <point x="161.1" y="-278.8666666666667"/>
      <point x="161.1" y="-222.1" type="curve" smooth="yes"/>
      <point x="161.1" y="-173.5"/>
      <point x="196.13333333333335" y="-141.96666666666664"/>
      <point x="244.1" y="-141.96666666666664" type="curve" smooth="yes"/>
      <point x="274.6333333333333" y="-141.96666666666664"/>
      <point x="302.06666666666666" y="-154.96666666666667"/>
      <point x="326.3333333333333" y="-179.76666666666668" type="curve"/>
      <point x="362.3333333333333" y="-136.76666666666668" type="line"/>
      <point x="326.70000000000005" y="-99.7"/>
      <point x="285.4666666666667" y="-82.43333333333334"/>
      <point x="239.46666666666667" y="-82.43333333333334" type="curve" smooth="yes"/>
      <point x="156.6" y="-82.43333333333334"/>
      <point x="98.46666666666667" y="-140.96666666666667"/>
      <point x="98.46666666666667" y="-221.36666666666667" type="curve" smooth="yes"/>
      <point x="98.46666666666667" y="-320.6666666666667"/>
      <point x="186.36666666666667" y="-381.8333333333333"/>
    </contour>
    <component base="ma-tamil"/>
  </outline>
</glyph>
<glyph name="va-tamil" format="2">
  <advance width="1116.6000000000001"/>
  <unicode hex="0BB5"/>
  <note>
uni0BB5
</note>
  <anchor x="579.2333333333333" y="0.0" name="bottom"/>
  <anchor x="899.7666666666668" y="563.7333333333333" name="imatra"/>
  <anchor x="577.0333333333334" y="0.0" name="nukta"/>
  <anchor x="578.6666666666667" y="563.7333333333333" name="top"/>
  <anchor x="546.2666666666667" y="563.7333333333333" name="vedic"/>
  <outline>
    <contour>
      <point x="272.8" y="-5.0" type="curve" smooth="yes"/>
      <point x="389.2666666666667" y="-5.0"/>
      <point x="461.8666666666667" y="65.06666666666668"/>
      <point x="461.8666666666667" y="161.46666666666664" type="curve" smooth="yes"/>
      <point x="461.8666666666667" y="250.29999999999998"/>
      <point x="403.9" y="323.0"/>
      <point x="300.16666666666663" y="323.0" type="curve" smooth="yes"/>
      <point x="192.29999999999998" y="323.0"/>
      <point x="127.63333333333334" y="243.83333333333331"/>
      <point x="118.3" y="110.03333333333333" type="curve"/>
      <point x="159.1" y="88.46666666666667" type="line"/>
      <point x="162.36666666666667" y="186.66666666666666"/>
      <point x="201.93333333333334" y="240.7"/>
      <point x="256.7" y="240.7" type="curve" smooth="yes"/>
      <point x="307.53333333333336" y="240.7"/>
      <point x="332.2333333333333" y="199.9"/>
      <point x="332.2333333333333" y="154.9" type="curve" smooth="yes"/>
      <point x="332.2333333333333" y="105.33333333333334"/>
      <point x="304.1" y="61.733333333333334"/>
      <point x="242.36666666666667" y="61.733333333333334" type="curve" smooth="yes"/>
      <point x="161.13333333333333" y="61.733333333333334"/>
      <point x="113.33333333333334" y="147.56666666666666"/>
      <point x="113.33333333333334" y="261.96666666666664" type="curve" smooth="yes"/>
      <point x="113.33333333333334" y="397.8"/>
      <point x="199.39999999999998" y="505.9"/>
      <point x="367.1333333333333" y="505.9" type="curve" smooth="yes"/>
      <point x="509.6" y="505.9"/>
      <point x="595.8000000000001" y="407.3666666666667"/>
      <point x="595.8000000000001" y="261.9" type="curve" smooth="yes"/>
      <point x="595.8000000000001" y="173.76666666666668"/>
      <point x="568.4666666666667" y="95.73333333333333"/>
      <point x="519.6666666666666" y="44.0" type="curve"/>
      <point x="539.6666666666667" y="0.0" type="line"/>
      <point x="1035.8666666666668" y="0.0" type="line"/>
      <point x="1035.8666666666668" y="563.7333333333333" type="line"/>
      <point x="879.2" y="563.7333333333333" type="line"/>
      <point x="879.2" y="61.0" type="line"/>
      <point x="641.7333333333333" y="61.0" type="line"/>
      <point x="705.9333333333334" y="121.7"/>
      <point x="742.4" y="196.93333333333334"/>
      <point x="742.4" y="279.9" type="curve" smooth="yes"/>
      <point x="742.4" y="449.0"/>
      <point x="598.4666666666667" y="568.7333333333333"/>
      <point x="391.8333333333333" y="568.7333333333333" type="curve" smooth="yes"/>
      <point x="160.5" y="568.7333333333333"/>
      <point x="49.96666666666667" y="428.1666666666667"/>
      <point x="49.96666666666667" y="263.9666666666667" type="curve" smooth="yes"/>
      <point x="49.96666666666667" y="109.93333333333334"/>
      <point x="134.73333333333335" y="-5.0"/>
    </contour>
  </outline>
</glyph>
<glyph name="sha-tamil" format="2">
  <advance width="1110.8333333333335"/>
  <unicode hex="0BB6"/>
  <note>
uni0BB6
</note>
  <anchor x="562.0666666666666" y="0.0" name="bottom"/>
  <anchor x="873.2333333333333" y="563.7333333333333" name="imatra"/>
  <anchor x="562.0666666666666" y="0.0" name="nukta"/>
  <anchor x="562.0666666666667" y="563.7333333333333" name="top"/>
  <anchor x="567.1666666666667" y="563.7333333333333" name="vedic"/>
  <outline>
    <contour>
      <point x="295.0" y="-5.0" type="curve" smooth="yes"/>
      <point x="416.4666666666667" y="-5.0"/>
      <point x="499.6333333333333" y="46.96666666666666"/>
      <point x="499.6333333333333" y="203.03333333333333" type="curve" smooth="yes"/>
      <point x="499.6333333333333" y="503.1" type="line"/>
      <point x="633.3000000000001" y="503.1" type="line"/>
      <point x="633.3000000000001" y="174.93333333333334" type="line" smooth="yes"/>
      <point x="633.3000000000001" y="61.06666666666666"/>
      <point x="699.8" y="-5.0"/>
      <point x="816.6333333333334" y="-5.0" type="curve" smooth="yes"/>
      <point x="950.4666666666667" y="-5.0"/>
      <point x="1056.6" y="118.56666666666666"/>
      <point x="1056.6" y="331.1" type="curve" smooth="yes"/>
      <point x="1056.6" y="484.2"/>
      <point x="1010.6999999999999" y="563.7333333333333"/>
      <point x="906.2333333333333" y="563.7333333333333" type="curve" smooth="yes"/>
      <point x="433.6333333333333" y="563.7333333333333" type="line"/>
      <point x="433.6333333333333" y="203.03333333333333" type="line" smooth="yes"/>
      <point x="433.6333333333333" y="84.4"/>
      <point x="384.1666666666667" y="63.2"/>
      <point x="327.0333333333333" y="63.2" type="curve" smooth="yes"/>
      <point x="269.79999999999995" y="63.2"/>
      <point x="235.03333333333333" y="96.73333333333333"/>
      <point x="235.03333333333333" y="179.53333333333333" type="curve" smooth="yes"/>
      <point x="235.03333333333333" y="563.7333333333333" type="line"/>
      <point x="77.73333333333333" y="563.7333333333333" type="line"/>
      <point x="77.73333333333333" y="190.6" type="line" smooth="yes"/>
      <point x="77.73333333333333" y="61.93333333333333"/>
      <point x="167.53333333333333" y="-5.0"/>
    </contour>
    <contour>
      <point x="855.8666666666667" y="65.4" type="curve" smooth="yes"/>
      <point x="811.1" y="65.4"/>
      <point x="788.7" y="92.56666666666668"/>
      <point x="788.7" y="153.46666666666667" type="curve" smooth="yes"/>
      <point x="788.7" y="503.1" type="line"/>
      <point x="900.5" y="503.1" type="line" smooth="yes"/>
      <point x="968.6333333333333" y="503.1"/>
      <point x="990.3333333333334" y="440.1"/>
      <point x="990.3333333333334" y="329.2" type="curve" smooth="yes"/>
      <point x="990.3333333333334" y="178.06666666666666"/>
      <point x="928.4666666666667" y="65.4"/>
    </contour>
  </outline>
</glyph>
<glyph name="ssa-tamil" format="2">
  <advance width="1463.4666666666667"/>
  <unicode hex="0BB7"/>
  <note>
uni0BB7
</note>
  <anchor x="734.8" y="0.0" name="bottom"/>
  <anchor x="630.7333333333333" y="0.0" name="nukta"/>
  <anchor x="758.7666666666667" y="563.7333333333333" name="top"/>
  <anchor x="734.3666666666667" y="563.7333333333333" name="vedic"/>
  <outline>
    <contour>
      <point x="272.8" y="-5.0" type="curve" smooth="yes"/>
      <point x="389.2666666666667" y="-5.0"/>
      <point x="461.8666666666667" y="65.06666666666668"/>
      <point x="461.8666666666667" y="161.46666666666664" type="curve" smooth="yes"/>
      <point x="461.8666666666667" y="250.29999999999998"/>
      <point x="403.9" y="323.0"/>
      <point x="300.16666666666663" y="323.0" type="curve" smooth="yes"/>
      <point x="192.29999999999998" y="323.0"/>
      <point x="127.63333333333334" y="243.83333333333331"/>
      <point x="118.3" y="110.03333333333333" type="curve"/>
      <point x="159.1" y="88.46666666666667" type="line"/>
      <point x="162.36666666666667" y="186.66666666666666"/>
      <point x="201.93333333333334" y="240.7"/>
      <point x="256.7" y="240.7" type="curve" smooth="yes"/>
      <point x="307.53333333333336" y="240.7"/>
      <point x="332.2333333333333" y="199.9"/>
      <point x="332.2333333333333" y="154.9" type="curve" smooth="yes"/>
      <point x="332.2333333333333" y="105.33333333333334"/>
      <point x="304.1" y="61.733333333333334"/>
      <point x="242.36666666666667" y="61.733333333333334" type="curve" smooth="yes"/>
      <point x="161.13333333333333" y="61.733333333333334"/>
      <point x="113.33333333333334" y="147.56666666666666"/>
      <point x="113.33333333333334" y="261.96666666666664" type="curve" smooth="yes"/>
      <point x="113.33333333333334" y="397.8"/>
      <point x="199.03333333333333" y="505.9"/>
      <point x="367.1333333333333" y="505.9" type="curve" smooth="yes"/>
      <point x="509.6" y="505.9"/>
      <point x="595.8000000000001" y="407.3666666666667"/>
      <point x="595.8000000000001" y="261.9" type="curve" smooth="yes"/>
      <point x="595.8000000000001" y="173.76666666666668"/>
      <point x="568.4666666666667" y="95.73333333333333"/>
      <point x="519.6666666666666" y="44.0" type="curve"/>
      <point x="539.6666666666667" y="0.0" type="line"/>
      <point x="1408.1333333333332" y="0.0" type="line"/>
      <point x="1408.1333333333332" y="333.5333333333333" type="line"/>
      <point x="1253.2" y="275.93333333333334" type="line"/>
      <point x="1253.2" y="61.0" type="line"/>
      <point x="641.7333333333333" y="61.0" type="line"/>
      <point x="705.9333333333334" y="121.7"/>
      <point x="742.4" y="196.93333333333334"/>
      <point x="742.4" y="279.9" type="curve" smooth="yes"/>
      <point x="742.4" y="449.0"/>
      <point x="598.4666666666667" y="568.7333333333333"/>
      <point x="391.8333333333333" y="568.7333333333333" type="curve" smooth="yes"/>
      <point x="160.13333333333333" y="568.7333333333333"/>
      <point x="49.96666666666667" y="428.1666666666667"/>
      <point x="49.96666666666667" y="263.9666666666667" type="curve" smooth="yes"/>
      <point x="49.96666666666667" y="109.93333333333334"/>
      <point x="134.73333333333335" y="-5.0"/>
    </contour>
    <contour>
      <point x="994.2666666666667" y="-302.3666666666667" type="line"/>
      <point x="1147.2" y="-302.3666666666667" type="line"/>
      <point x="1147.2" y="419.2" type="line" smooth="yes"/>
      <point x="1147.2" y="522.8"/>
      <point x="1075.5666666666666" y="569.3666666666667"/>
      <point x="986.3000000000001" y="569.3666666666667" type="curve" smooth="yes"/>
      <point x="884.7" y="569.3666666666667"/>
      <point x="817.8666666666667" y="502.73333333333335"/>
      <point x="817.8666666666667" y="404.5" type="curve" smooth="yes"/>
      <point x="817.8666666666667" y="277.40000000000003"/>
      <point x="906.4333333333334" y="195.4333333333333"/>
      <point x="1061.5" y="195.4333333333333" type="curve" smooth="yes"/>
      <point x="1196.6000000000001" y="195.4333333333333"/>
      <point x="1287.3999999999999" y="233.16666666666669"/>
      <point x="1408.1333333333332" y="325.0" type="curve"/>
      <point x="1408.1333333333332" y="337.9" type="line"/>
      <point x="1372.6000000000001" y="368.66666666666663" type="line"/>
      <point x="1268.8333333333335" y="293.3333333333333"/>
      <point x="1194.6000000000001" y="250.0"/>
      <point x="1074.6999999999998" y="250.0" type="curve" smooth="yes"/>
      <point x="947.1333333333334" y="250.0"/>
      <point x="878.5" y="295.9"/>
      <point x="878.5" y="404.23333333333335" type="curve" smooth="yes"/>
      <point x="878.5" y="449.8666666666667"/>
      <point x="904.1" y="481.3"/>
      <point x="940.2333333333333" y="481.3" type="curve" smooth="yes"/>
      <point x="972.5666666666667" y="481.3"/>
      <point x="994.2666666666667" y="462.4"/>
      <point x="994.2666666666667" y="423.1333333333333" type="curve" smooth="yes"/>
    </contour>
  </outline>
</glyph>
<glyph name="sa-tamil" format="2">
  <advance width="1379.0333333333333"/>
  <unicode hex="0BB8"/>
  <note>
uni0BB8
</note>
  <anchor x="698.0" y="0.0" name="bottom"/>
  <anchor x="696.9" y="0.0" name="nukta"/>
  <anchor x="688.6333333333333" y="563.7333333333333" name="top"/>
  <anchor x="696.5333333333333" y="563.7333333333333" name="vedic"/>
  <outline>
    <contour>
      <point x="569.3333333333334" y="0.0" type="line"/>
      <point x="723.3666666666667" y="0.0" type="line"/>
      <point x="723.3666666666667" y="413.43333333333334" type="line" smooth="yes"/>
      <point x="723.3666666666667" y="476.93333333333334"/>
      <point x="752.0666666666667" y="507.26666666666665"/>
      <point x="805.1666666666666" y="507.26666666666665" type="curve" smooth="yes"/>
      <point x="855.6333333333333" y="507.26666666666665"/>
      <point x="878.9" y="475.66666666666663"/>
      <point x="878.9" y="424.9666666666667" type="curve" smooth="yes"/>
      <point x="878.9" y="182.56666666666666" type="line" smooth="yes"/>
      <point x="878.9" y="66.13333333333334"/>
      <point x="949.9666666666667" y="-3.9000000000000004"/>
      <point x="1081.3999999999999" y="-3.9000000000000004" type="curve" smooth="yes"/>
      <point x="1226.9333333333334" y="-3.9000000000000004"/>
      <point x="1324.8" y="117.93333333333334"/>
      <point x="1324.8" y="298.3333333333333" type="curve" smooth="yes"/>
      <point x="1324.8" y="395.46666666666664"/>
      <point x="1298.0666666666666" y="475.3666666666667"/>
      <point x="1230.6666666666667" y="568.1" type="curve"/>
      <point x="1177.1999999999998" y="533.3" type="line"/>
      <point x="1236.6000000000001" y="450.6666666666667"/>
      <point x="1259.8" y="382.26666666666665"/>
      <point x="1259.8" y="290.1" type="curve" smooth="yes"/>
      <point x="1259.8" y="161.4"/>
      <point x="1191.2333333333333" y="61.5"/>
      <point x="1116.8666666666668" y="61.5" type="curve" smooth="yes"/>
      <point x="1062.6" y="61.5"/>
      <point x="1034.9333333333334" y="97.0"/>
      <point x="1034.9333333333334" y="173.4" type="curve" smooth="yes"/>
      <point x="1034.9333333333334" y="389.59999999999997" type="line" smooth="yes"/>
      <point x="1034.9333333333334" y="501.96666666666664"/>
      <point x="947.8666666666667" y="568.3666666666667"/>
      <point x="824.7666666666667" y="568.3666666666667" type="curve" smooth="yes"/>
      <point x="711.7333333333332" y="568.3666666666667"/>
      <point x="629.6666666666666" y="514.9"/>
      <point x="629.6666666666666" y="413.6" type="curve" smooth="yes"/>
      <point x="629.6666666666666" y="355.3333333333333" type="line"/>
      <point x="569.3333333333334" y="355.3333333333333" type="line"/>
    </contour>
    <contour>
      <point x="277.8666666666667" y="-5.0" type="curve" smooth="yes"/>
      <point x="393.96666666666664" y="-5.0"/>
      <point x="464.40000000000003" y="65.06666666666668"/>
      <point x="464.40000000000003" y="161.46666666666664" type="curve" smooth="yes"/>
      <point x="464.40000000000003" y="250.29999999999998"/>
      <point x="408.33333333333337" y="323.0"/>
      <point x="304.23333333333335" y="323.0" type="curve" smooth="yes"/>
      <point x="182.16666666666669" y="323.0"/>
      <point x="127.63333333333333" y="229.26666666666665"/>
      <point x="122.10000000000001" y="109.39999999999999" type="curve"/>
      <point x="162.26666666666665" y="88.46666666666667" type="line"/>
      <point x="165.53333333333333" y="177.8"/>
      <point x="196.23333333333332" y="240.7"/>
      <point x="261.76666666666665" y="240.7" type="curve" smooth="yes"/>
      <point x="312.59999999999997" y="240.7"/>
      <point x="335.40000000000003" y="199.9"/>
      <point x="335.40000000000003" y="154.9" type="curve" smooth="yes"/>
      <point x="335.40000000000003" y="105.33333333333334"/>
      <point x="308.1666666666667" y="61.733333333333334"/>
      <point x="246.79999999999998" y="61.733333333333334" type="curve" smooth="yes"/>
      <point x="165.56666666666666" y="61.733333333333334"/>
      <point x="116.5" y="148.20000000000002"/>
      <point x="116.5" y="262.6" type="curve" smooth="yes"/>
      <point x="116.5" y="408.0"/>
      <point x="213.13333333333335" y="503.0"/>
      <point x="350.96666666666664" y="503.0" type="curve" smooth="yes"/>
      <point x="482.7" y="503.0"/>
      <point x="569.7" y="440.59999999999997"/>
      <point x="569.7" y="287.4" type="curve"/>
      <point x="645.3666666666667" y="291.06666666666666" type="line"/>
      <point x="642.4333333333333" y="476.1666666666667"/>
      <point x="524.2666666666667" y="569.3666666666667"/>
      <point x="357.3" y="569.3666666666667" type="curve" smooth="yes"/>
      <point x="177.1" y="569.3666666666667"/>
      <point x="53.13333333333333" y="446.8"/>
      <point x="53.13333333333333" y="263.9666666666667" type="curve" smooth="yes"/>
      <point x="53.13333333333333" y="109.93333333333334"/>
      <point x="139.16666666666666" y="-5.0"/>
    </contour>
  </outline>
</glyph>
<glyph name="ha-tamil" format="2">
  <advance width="1629.3666666666668"/>
  <unicode hex="0BB9"/>
  <note>
uni0BB9
</note>
  <anchor x="864.9000000000001" y="0.0" name="bottom"/>
  <anchor x="865.6333333333333" y="-144.23333333333332" name="nukta"/>
  <anchor x="844.0666666666666" y="563.7333333333333" name="top"/>
  <anchor x="824.9333333333334" y="563.7333333333333" name="vedic"/>
  <outline>
    <contour>
      <point x="235.23333333333335" y="-282.1333333333334" type="curve"/>
      <point x="235.23333333333335" y="-198.6"/>
      <point x="256.93333333333334" y="-144.23333333333335"/>
      <point x="366.3333333333333" y="-144.23333333333335" type="curve" smooth="yes"/>
      <point x="1087.1333333333334" y="-144.23333333333335" type="line" smooth="yes"/>
      <point x="1410.1333333333332" y="-144.23333333333335"/>
      <point x="1591.1000000000001" y="-44.96666666666667"/>
      <point x="1591.1000000000001" y="241.93333333333334" type="curve" smooth="yes"/>
      <point x="1591.1000000000001" y="464.1333333333333"/>
      <point x="1486.1000000000001" y="567.4666666666667"/>
      <point x="1336.6666666666667" y="567.4666666666667" type="curve" smooth="yes"/>
      <point x="1227.5333333333333" y="567.4666666666667"/>
      <point x="1165.9333333333334" y="515.0"/>
      <point x="1144.3000000000002" y="457.1" type="curve"/>
      <point x="1126.9333333333334" y="517.1666666666666"/>
      <point x="1080.1333333333332" y="566.8333333333334"/>
      <point x="997.8333333333334" y="566.8333333333334" type="curve" smooth="yes"/>
      <point x="907.5333333333334" y="566.8333333333334"/>
      <point x="845.3" y="510.4"/>
      <point x="845.3" y="399.3" type="curve" smooth="yes"/>
      <point x="845.3" y="61.0" type="line"/>
      <point x="641.7333333333333" y="61.0" type="line"/>
      <point x="705.9333333333334" y="121.7"/>
      <point x="742.4" y="196.93333333333334"/>
      <point x="742.4" y="279.9" type="curve" smooth="yes"/>
      <point x="742.4" y="449.0"/>
      <point x="598.4666666666667" y="568.7333333333333"/>
      <point x="391.8333333333333" y="568.7333333333333" type="curve" smooth="yes"/>
      <point x="160.5" y="568.7333333333333"/>
      <point x="49.96666666666667" y="428.1666666666667"/>
      <point x="49.96666666666667" y="263.9666666666667" type="curve" smooth="yes"/>
      <point x="49.96666666666667" y="109.93333333333334"/>
      <point x="134.73333333333335" y="-5.0"/>
      <point x="272.8" y="-5.0" type="curve" smooth="yes"/>
      <point x="389.2666666666667" y="-5.0"/>
      <point x="461.8666666666667" y="65.06666666666668"/>
      <point x="461.8666666666667" y="161.46666666666664" type="curve" smooth="yes"/>
      <point x="461.8666666666667" y="250.29999999999998"/>
      <point x="403.9" y="323.0"/>
      <point x="300.16666666666663" y="323.0" type="curve" smooth="yes"/>
      <point x="192.29999999999998" y="323.0"/>
      <point x="127.63333333333334" y="243.83333333333331"/>
      <point x="118.3" y="110.03333333333333" type="curve"/>
      <point x="159.1" y="88.46666666666667" type="line"/>
      <point x="162.36666666666667" y="186.66666666666666"/>
      <point x="201.93333333333334" y="240.7"/>
      <point x="256.7" y="240.7" type="curve" smooth="yes"/>
      <point x="307.53333333333336" y="240.7"/>
      <point x="332.2333333333333" y="199.9"/>
      <point x="332.2333333333333" y="154.9" type="curve" smooth="yes"/>
      <point x="332.2333333333333" y="105.33333333333334"/>
      <point x="304.1" y="61.733333333333334"/>
      <point x="242.36666666666667" y="61.733333333333334" type="curve" smooth="yes"/>
      <point x="161.13333333333333" y="61.733333333333334"/>
      <point x="113.33333333333334" y="147.56666666666666"/>
      <point x="113.33333333333334" y="261.96666666666664" type="curve" smooth="yes"/>
      <point x="113.33333333333334" y="397.8"/>
      <point x="199.39999999999998" y="505.9"/>
      <point x="367.1333333333333" y="505.9" type="curve" smooth="yes"/>
      <point x="509.6" y="505.9"/>
      <point x="595.8000000000001" y="407.3666666666667"/>
      <point x="595.8000000000001" y="261.9" type="curve" smooth="yes"/>
      <point x="595.8000000000001" y="173.76666666666668"/>
      <point x="568.4666666666667" y="95.73333333333333"/>
      <point x="519.6666666666666" y="44.0" type="curve"/>
      <point x="539.6666666666667" y="0.0" type="line"/>
      <point x="913.8333333333334" y="0.0" type="line"/>
      <point x="913.8333333333334" y="394.93333333333334" type="line" smooth="yes"/>
      <point x="913.8333333333334" y="470.4"/>
      <point x="937.9000000000001" y="504.3666666666667"/>
      <point x="992.7333333333333" y="504.3666666666667" type="curve" smooth="yes"/>
      <point x="1043.3333333333333" y="504.3666666666667"/>
      <point x="1068.6666666666667" y="465.4"/>
      <point x="1068.6666666666667" y="392.2" type="curve" smooth="yes"/>
      <point x="1068.6666666666667" y="-0.6333333333333333" type="line"/>
      <point x="1226.4333333333334" y="-0.6333333333333333" type="line"/>
      <point x="1226.4333333333334" y="382.6666666666667" type="line" smooth="yes"/>
      <point x="1226.4333333333334" y="463.76666666666665"/>
      <point x="1259.3" y="505.0"/>
      <point x="1319.1333333333334" y="505.0" type="curve" smooth="yes"/>
      <point x="1384.0333333333333" y="505.0"/>
      <point x="1430.6000000000001" y="434.93333333333334"/>
      <point x="1430.6000000000001" y="259.6333333333333" type="curve" smooth="yes"/>
      <point x="1430.6000000000001" y="-1.9666666666666681"/>
      <point x="1342.8" y="-86.96666666666667"/>
      <point x="1068.0666666666666" y="-86.96666666666667" type="curve" smooth="yes"/>
      <point x="307.2" y="-86.96666666666667" type="line" smooth="yes"/>
      <point x="204.33333333333334" y="-86.96666666666667"/>
      <point x="111.56666666666668" y="-108.23333333333333"/>
      <point x="111.56666666666668" y="-194.23333333333332" type="curve" smooth="yes"/>
      <point x="111.56666666666668" y="-254.5"/>
      <point x="161.63333333333335" y="-282.1333333333334"/>
    </contour>
  </outline>
</glyph>
<glyph name="aaMatra-tamil" format="2">
  <advance width="629.1666666666666"/>
  <unicode hex="0BBE"/>
  <note>
uni0BBE
</note>
  <anchor x="333.9" y="0.0" name="bottom"/>
  <anchor x="332.9" y="0.0" name="nukta"/>
  <anchor x="326.9" y="563.7333333333333" name="top"/>
  <anchor x="326.9" y="563.7333333333333" name="vedic"/>
  <outline>
    <contour>
      <point x="80.46666666666667" y="0.0" type="line"/>
      <point x="149.0" y="0.0" type="line"/>
      <point x="149.0" y="503.1" type="line"/>
      <point x="319.4666666666667" y="503.1" type="line"/>
      <point x="319.4666666666667" y="0.0" type="line"/>
      <point x="474.23333333333335" y="0.0" type="line"/>
      <point x="474.23333333333335" y="503.1" type="line"/>
      <point x="611.8" y="503.1" type="line"/>
      <point x="611.8" y="563.7333333333333" type="line"/>
      <point x="80.46666666666667" y="563.7333333333333" type="line"/>
    </contour>
  </outline>
</glyph>
<glyph name="iMatra-tamil" format="2">
  <advance width="220.70000000000002"/>
  <unicode hex="0BBF"/>
  <note>
uni0BBF
</note>
  <anchor x="-148.3" y="854.4333333333333" name="top"/>
  <outline>
    <contour>
      <point x="71.43333333333334" y="0.0" type="line"/>
      <point x="139.96666666666667" y="0.0" type="line"/>
      <point x="139.96666666666667" y="561.8333333333333" type="line" smooth="yes"/>
      <point x="139.96666666666667" y="739.8666666666667"/>
      <point x="19.1" y="854.4333333333333"/>
      <point x="-148.3" y="854.4333333333333" type="curve" smooth="yes"/>
      <point x="-303.4" y="854.4333333333333"/>
      <point x="-380.2" y="765.6"/>
      <point x="-380.2" y="665.5" type="curve" smooth="yes"/>
      <point x="-380.2" y="569.6"/>
      <point x="-316.76666666666665" y="513.3333333333334"/>
      <point x="-212.03333333333333" y="513.3333333333334" type="curve" smooth="yes"/>
      <point x="-209.66666666666669" y="513.3333333333334" type="line"/>
      <point x="-209.66666666666669" y="563.7333333333333" type="line"/>
      <point x="-212.03333333333333" y="563.7333333333333" type="line" smooth="yes"/>
      <point x="-261.83333333333337" y="563.7333333333333"/>
      <point x="-301.0" y="590.0666666666666"/>
      <point x="-301.0" y="638.3333333333334" type="curve" smooth="yes"/>
      <point x="-301.0" y="695.9333333333333"/>
      <point x="-246.8" y="731.8333333333333"/>
      <point x="-153.8" y="731.8333333333333" type="curve" smooth="yes"/>
      <point x="-27.233333333333334" y="731.8333333333333"/>
      <point x="71.43333333333334" y="661.5666666666666"/>
      <point x="71.43333333333334" y="523.3" type="curve" smooth="yes"/>
    </contour>
  </outline>
</glyph>
<glyph name="iiMatra-tamil" format="2">
  <unicode hex="0BC0"/>
  <note>
uni0BC0
</note>
  <anchor x="0.0" y="563.7333333333333" name="_imatra"/>
  <anchor x="15.100000000000001" y="904.7333333333333" name="top"/>
  <outline>
    <contour>
      <point x="-31.433333333333334" y="503.8333333333333" type="curve" smooth="yes"/>
      <point x="0.0" y="503.8333333333333" type="line"/>
      <point x="0.0" y="563.7333333333333" type="line"/>
      <point x="-29.966666666666665" y="563.7333333333333" type="line" smooth="yes"/>
      <point x="-102.46666666666667" y="563.7333333333333"/>
      <point x="-146.56666666666666" y="610.7333333333333"/>
      <point x="-146.56666666666666" y="690.3" type="curve" smooth="yes"/>
      <point x="-146.56666666666666" y="778.9333333333333"/>
      <point x="-89.46666666666667" y="843.6333333333333"/>
      <point x="3.2666666666666675" y="843.6333333333333" type="curve" smooth="yes"/>
      <point x="64.60000000000001" y="843.6333333333333"/>
      <point x="103.0" y="806.9"/>
      <point x="103.0" y="748.6333333333333" type="curve" smooth="yes"/>
      <point x="103.0" y="711.0666666666666"/>
      <point x="79.56666666666666" y="681.2666666666667"/>
      <point x="42.333333333333336" y="681.2666666666667" type="curve" smooth="yes"/>
      <point x="-30.666666666666668" y="681.2666666666667"/>
      <point x="-45.46666666666667" y="778.8"/>
      <point x="-3.499999999999999" y="867.2666666666667" type="curve"/>
      <point x="-54.83333333333333" y="871.2666666666667" type="line"/>
      <point x="-124.76666666666667" y="747.9"/>
      <point x="-76.93333333333334" y="605.1"/>
      <point x="65.9" y="605.1" type="curve" smooth="yes"/>
      <point x="150.13333333333333" y="605.1"/>
      <point x="211.1" y="658.2"/>
      <point x="211.1" y="739.4666666666667" type="curve" smooth="yes"/>
      <point x="211.1" y="842.9000000000001"/>
      <point x="130.16666666666666" y="904.7333333333333"/>
      <point x="15.100000000000001" y="904.7333333333333" type="curve" smooth="yes"/>
      <point x="-119.2" y="904.7333333333333"/>
      <point x="-212.73333333333335" y="818.5333333333333"/>
      <point x="-212.73333333333335" y="694.5666666666667" type="curve" smooth="yes"/>
      <point x="-212.73333333333335" y="579.3666666666667"/>
      <point x="-141.5" y="503.8333333333333"/>
    </contour>
  </outline>
</glyph>
<glyph name="uMatra-tamil" format="2">
  <advance width="535.6"/>
  <unicode hex="0BC1"/>
  <note>
uni0BC1
</note>
  <anchor x="209.76666666666665" y="563.7333333333333" name="top"/>
  <outline>
    <contour>
      <point x="322.6666666666667" y="223.26666666666668" type="curve" smooth="yes"/>
      <point x="419.66666666666663" y="223.26666666666668"/>
      <point x="513.8333333333334" y="277.26666666666665"/>
      <point x="513.8333333333334" y="399.8666666666667" type="curve" smooth="yes"/>
      <point x="513.8333333333334" y="563.7333333333333" type="line"/>
      <point x="-277.2666666666667" y="563.7333333333333" type="line"/>
      <point x="-226.46666666666667" y="503.1" type="line"/>
      <point x="358.70000000000005" y="503.1" type="line"/>
      <point x="358.70000000000005" y="385.5" type="line" smooth="yes"/>
      <point x="358.70000000000005" y="322.3666666666667"/>
      <point x="322.5" y="296.90000000000003"/>
      <point x="281.9666666666667" y="296.90000000000003" type="curve" smooth="yes"/>
      <point x="232.56666666666666" y="296.90000000000003"/>
      <point x="205.79999999999998" y="328.7"/>
      <point x="205.79999999999998" y="405.73333333333335" type="curve" smooth="yes"/>
      <point x="205.79999999999998" y="532.1666666666666" type="line"/>
      <point x="139.9" y="532.1666666666666" type="line"/>
      <point x="139.9" y="416.90000000000003" type="line" smooth="yes"/>
      <point x="139.9" y="281.53333333333336"/>
      <point x="215.16666666666666" y="223.26666666666668"/>
    </contour>
  </outline>
</glyph>
<glyph name="uuMatra-tamil" format="2">
  <advance width="878.7333333333333"/>
  <unicode hex="0BC2"/>
  <note>
uni0BC2
</note>
  <anchor x="444.70000000000005" y="783.8333333333334" name="top"/>
  <outline>
    <contour>
      <point x="385.76666666666665" y="7.800000000000001" type="curve" smooth="yes"/>
      <point x="638.6666666666666" y="7.800000000000001"/>
      <point x="820.7333333333333" y="158.86666666666667"/>
      <point x="820.7333333333333" y="400.03333333333336" type="curve" smooth="yes"/>
      <point x="820.7333333333333" y="624.8"/>
      <point x="681.2333333333333" y="783.8333333333334"/>
      <point x="444.70000000000005" y="783.8333333333334" type="curve" smooth="yes"/>
      <point x="238.96666666666667" y="783.8333333333334"/>
      <point x="146.86666666666667" y="648.9333333333334"/>
      <point x="146.86666666666667" y="531.4333333333334" type="curve" smooth="yes"/>
      <point x="146.86666666666667" y="416.90000000000003" type="line" smooth="yes"/>
      <point x="146.86666666666667" y="281.53333333333336"/>
      <point x="221.5" y="223.26666666666668"/>
      <point x="329.0" y="223.26666666666668" type="curve" smooth="yes"/>
      <point x="424.73333333333335" y="223.26666666666668"/>
      <point x="520.1666666666667" y="274.7333333333333"/>
      <point x="520.1666666666667" y="399.8666666666667" type="curve" smooth="yes"/>
      <point x="520.1666666666667" y="563.7333333333333" type="line"/>
      <point x="-274.6333333333333" y="563.7333333333333" type="line"/>
      <point x="-229.53333333333333" y="503.1" type="line"/>
      <point x="365.03333333333336" y="503.1" type="line"/>
      <point x="365.03333333333336" y="385.5" type="line" smooth="yes"/>
      <point x="365.03333333333336" y="322.3666666666667"/>
      <point x="328.46666666666664" y="296.90000000000003"/>
      <point x="288.3" y="296.90000000000003" type="curve" smooth="yes"/>
      <point x="238.89999999999998" y="296.90000000000003"/>
      <point x="212.13333333333333" y="328.7"/>
      <point x="212.13333333333333" y="405.73333333333335" type="curve" smooth="yes"/>
      <point x="212.13333333333333" y="531.4333333333334" type="line" smooth="yes"/>
      <point x="212.13333333333333" y="624.0"/>
      <point x="295.59999999999997" y="712.0333333333333"/>
      <point x="418.4" y="712.0333333333333" type="curve" smooth="yes"/>
      <point x="594.1666666666666" y="712.0333333333333"/>
      <point x="660.7666666666667" y="586.9"/>
      <point x="660.7666666666667" y="409.76666666666665" type="curve" smooth="yes"/>
      <point x="660.7666666666667" y="206.06666666666666"/>
      <point x="554.5666666666667" y="76.43333333333334"/>
      <point x="377.7" y="76.43333333333334" type="curve" smooth="yes"/>
      <point x="258.4666666666667" y="76.43333333333334"/>
      <point x="163.03333333333333" y="122.46666666666668"/>
      <point x="88.56666666666666" y="222.89999999999998" type="curve"/>
      <point x="39.833333333333336" y="183.0666666666667" type="line"/>
      <point x="121.30000000000001" y="73.19999999999999"/>
      <point x="239.33333333333334" y="7.800000000000001"/>
    </contour>
  </outline>
</glyph>
<glyph name="eMatra-tamil" format="2">
  <advance width="822.8666666666667"/>
  <unicode hex="0BC6"/>
  <note>
uni0BC6
</note>
  <outline>
    <contour>
      <point x="325.56666666666666" y="-5.0" type="curve" smooth="yes"/>
      <point x="442.03333333333336" y="-5.0"/>
      <point x="514.0" y="65.06666666666668"/>
      <point x="514.0" y="161.83333333333334" type="curve" smooth="yes"/>
      <point x="514.0" y="255.46666666666667"/>
      <point x="456.0333333333333" y="328.5333333333333"/>
      <point x="352.3" y="328.5333333333333" type="curve" smooth="yes"/>
      <point x="240.36666666666667" y="328.5333333333333"/>
      <point x="174.96666666666667" y="243.83333333333334"/>
      <point x="166.26666666666668" y="110.03333333333333" type="curve"/>
      <point x="206.79999999999998" y="88.1" type="line"/>
      <point x="210.0666666666667" y="187.03333333333333"/>
      <point x="250.0" y="246.23333333333332"/>
      <point x="309.46666666666664" y="246.23333333333332" type="curve" smooth="yes"/>
      <point x="360.3" y="246.23333333333332"/>
      <point x="385.0" y="205.06666666666666"/>
      <point x="385.0" y="155.26666666666665" type="curve" smooth="yes"/>
      <point x="385.0" y="105.33333333333334"/>
      <point x="356.8666666666666" y="61.733333333333334"/>
      <point x="295.5" y="61.733333333333334" type="curve" smooth="yes"/>
      <point x="194.39999999999998" y="61.733333333333334"/>
      <point x="118.7" y="199.36666666666667"/>
      <point x="118.7" y="382.6333333333333" type="curve" smooth="yes"/>
      <point x="118.7" y="593.7333333333333"/>
      <point x="245.13333333333333" y="730.0"/>
      <point x="421.23333333333335" y="730.0" type="curve" smooth="yes"/>
      <point x="588.7" y="730.0"/>
      <point x="673.9666666666667" y="638.9333333333333"/>
      <point x="673.9666666666667" y="423.4" type="curve" smooth="yes"/>
      <point x="673.9666666666667" y="0.0" type="line"/>
      <point x="742.1333333333334" y="0.0" type="line"/>
      <point x="742.1333333333334" y="471.4" type="line" smooth="yes"/>
      <point x="742.1333333333334" y="720.7333333333333"/>
      <point x="638.1666666666666" y="851.2666666666667"/>
      <point x="424.59999999999997" y="851.2666666666667" type="curve" smooth="yes"/>
      <point x="191.63333333333333" y="851.2666666666667"/>
      <point x="55.333333333333336" y="655.4"/>
      <point x="55.333333333333336" y="390.96666666666664" type="curve" smooth="yes"/>
      <point x="55.333333333333336" y="161.03333333333333"/>
      <point x="170.06666666666666" y="-5.0"/>
    </contour>
  </outline>
</glyph>
